ply
format ascii 1.0
comment Created by Blender 2.60 (sub 0) - www.blender.org, source file: ''
element vertex 1372
property float x
property float y
property float z
element face 500
property list uchar uint vertex_indices
end_header
11.258900 10.952900 7.928120
11.350500 11.007200 7.924860
11.307900 10.974500 7.923550
11.350500 11.007200 7.924860
11.258900 10.952900 7.928120
11.206900 10.943800 7.938230
11.350500 11.007200 7.924860
11.206900 10.943800 7.938230
11.383800 11.048700 7.931930
11.383800 11.048700 7.931930
11.206900 10.943800 7.938230
11.155500 10.947900 7.953210
11.383800 11.048700 7.931930
11.155500 10.947900 7.953210
11.405700 11.096200 7.944310
11.405700 11.096200 7.944310
11.155500 10.947900 7.953210
11.108200 10.964800 7.972040
11.405700 11.096200 7.944310
11.108200 10.964800 7.972040
11.414500 11.146400 7.961130
11.414500 11.146400 7.961130
11.108200 10.964800 7.972040
11.068100 10.993400 7.993420
11.414500 11.146400 7.961130
11.068100 10.993400 7.993420
11.409800 11.196000 7.981250
11.409800 11.196000 7.981250
11.068100 10.993400 7.993420
11.038000 11.031800 8.015910
11.409800 11.196000 7.981250
11.038000 11.031800 8.015910
11.391700 11.241500 8.003310
11.391700 11.241500 8.003310
11.038000 11.031800 8.015910
11.019900 11.077300 8.037970
11.391700 11.241500 8.003310
11.019900 11.077300 8.037970
11.361600 11.279800 8.025800
11.361600 11.279800 8.025800
11.019900 11.077300 8.037970
11.015200 11.126800 8.058090
11.361600 11.279800 8.025800
11.015200 11.126800 8.058090
11.321500 11.308500 8.047190
11.321500 11.308500 8.047190
11.015200 11.126800 8.058090
11.024000 11.177100 8.074920
11.321500 11.308500 8.047190
11.024000 11.177100 8.074920
11.274200 11.325400 8.066010
11.274200 11.325400 8.066010
11.024000 11.177100 8.074920
11.045900 11.224500 8.087290
11.274200 11.325400 8.066010
11.045900 11.224500 8.087290
11.222700 11.329400 8.080990
11.222700 11.329400 8.080990
11.045900 11.224500 8.087290
11.079200 11.266000 8.094370
11.222700 11.329400 8.080990
11.079200 11.266000 8.094370
11.170800 11.320300 8.091110
11.170800 11.320300 8.091110
11.079200 11.266000 8.094370
11.121800 11.298700 8.095670
11.170800 11.320300 8.091110
13.813000 7.355520 17.948900
11.222700 11.329400 8.080990
13.813000 7.355520 17.948900
11.170800 11.320300 8.091110
13.811800 7.355300 17.949100
11.222700 11.329400 8.080990
13.814300 7.355420 17.948500
11.274200 11.325400 8.066010
13.814300 7.355420 17.948500
11.222700 11.329400 8.080990
13.813000 7.355520 17.948900
13.814300 7.355420 17.948500
11.321500 11.308500 8.047190
11.274200 11.325400 8.066010
11.321500 11.308500 8.047190
13.814300 7.355420 17.948500
13.815400 7.355010 17.948099
13.815400 7.355010 17.948099
11.361600 11.279800 8.025800
11.321500 11.308500 8.047190
11.361600 11.279800 8.025800
13.815400 7.355010 17.948099
13.816400 7.354320 17.947500
13.816400 7.354320 17.947500
11.391700 11.241500 8.003310
11.361600 11.279800 8.025800
11.391700 11.241500 8.003310
13.816400 7.354320 17.947500
13.817100 7.353390 17.947001
13.817100 7.353390 17.947001
11.409800 11.196000 7.981250
11.391700 11.241500 8.003310
11.409800 11.196000 7.981250
13.817100 7.353390 17.947001
13.817600 7.352290 17.946501
13.817600 7.352290 17.946501
11.414500 11.146400 7.961130
11.409800 11.196000 7.981250
11.414500 11.146400 7.961130
13.817600 7.352290 17.946501
13.817700 7.351090 17.945999
13.817700 7.351090 17.945999
11.405700 11.096200 7.944310
11.414500 11.146400 7.961130
11.405700 11.096200 7.944310
13.817700 7.351090 17.945999
13.817500 7.349870 17.945601
13.817500 7.349870 17.945601
11.383800 11.048700 7.931930
11.405700 11.096200 7.944310
11.383800 11.048700 7.931930
13.817500 7.349870 17.945601
13.816900 7.348730 17.945299
13.816900 7.348730 17.945299
11.350500 11.007200 7.924860
11.383800 11.048700 7.931930
11.350500 11.007200 7.924860
13.816900 7.348730 17.945299
13.816100 7.347720 17.945101
13.816100 7.347720 17.945101
11.307900 10.974500 7.923550
11.350500 11.007200 7.924860
11.307900 10.974500 7.923550
13.816100 7.347720 17.945101
13.815100 7.346930 17.945101
13.813900 7.346410 17.945200
11.307900 10.974500 7.923550
13.815100 7.346930 17.945101
11.307900 10.974500 7.923550
13.813900 7.346410 17.945200
11.258900 10.952900 7.928120
13.812700 7.346190 17.945400
11.258900 10.952900 7.928120
13.813900 7.346410 17.945200
11.258900 10.952900 7.928120
13.812700 7.346190 17.945400
11.206900 10.943800 7.938230
13.811400 7.346290 17.945801
11.206900 10.943800 7.938230
13.812700 7.346190 17.945400
11.206900 10.943800 7.938230
13.811400 7.346290 17.945801
11.155500 10.947900 7.953210
13.811400 7.346290 17.945801
11.108200 10.964800 7.972040
11.155500 10.947900 7.953210
11.108200 10.964800 7.972040
13.811400 7.346290 17.945801
13.810300 7.346690 17.946199
13.810300 7.346690 17.946199
11.068100 10.993400 7.993420
11.108200 10.964800 7.972040
11.068100 10.993400 7.993420
13.810300 7.346690 17.946199
13.809300 7.347390 17.946800
13.809300 7.347390 17.946800
11.038000 11.031800 8.015910
11.068100 10.993400 7.993420
11.038000 11.031800 8.015910
13.809300 7.347390 17.946800
13.808600 7.348320 17.947300
13.808600 7.348320 17.947300
11.019900 11.077300 8.037970
11.038000 11.031800 8.015910
11.019900 11.077300 8.037970
13.808600 7.348320 17.947300
13.808100 7.349420 17.947800
13.808100 7.349420 17.947800
11.015200 11.126800 8.058090
11.019900 11.077300 8.037970
11.015200 11.126800 8.058090
13.808100 7.349420 17.947800
13.808000 7.350620 17.948299
13.808000 7.350620 17.948299
11.024000 11.177100 8.074920
11.015200 11.126800 8.058090
11.024000 11.177100 8.074920
13.808000 7.350620 17.948299
13.808200 7.351830 17.948700
11.045900 11.224500 8.087290
13.808200 7.351830 17.948700
13.808800 7.352980 17.948999
13.808200 7.351830 17.948700
11.045900 11.224500 8.087290
11.024000 11.177100 8.074920
11.079200 11.266000 8.094370
13.808800 7.352980 17.948999
13.809600 7.353980 17.949200
13.808800 7.352980 17.948999
11.079200 11.266000 8.094370
11.045900 11.224500 8.087290
11.079200 11.266000 8.094370
13.810600 7.354780 17.949200
11.121800 11.298700 8.095670
13.810600 7.354780 17.949200
11.079200 11.266000 8.094370
13.809600 7.353980 17.949200
11.121800 11.298700 8.095670
13.811800 7.355300 17.949100
11.170800 11.320300 8.091110
13.811800 7.355300 17.949100
11.121800 11.298700 8.095670
13.810600 7.354780 17.949200
13.816100 7.347720 17.945101
13.813900 7.346410 17.945200
13.815100 7.346930 17.945101
13.813900 7.346410 17.945200
13.816100 7.347720 17.945101
13.816900 7.348730 17.945299
13.813900 7.346410 17.945200
13.816900 7.348730 17.945299
13.812700 7.346190 17.945400
13.812700 7.346190 17.945400
13.816900 7.348730 17.945299
13.817500 7.349870 17.945601
13.812700 7.346190 17.945400
13.817500 7.349870 17.945601
13.811400 7.346290 17.945801
13.811400 7.346290 17.945801
13.817500 7.349870 17.945601
13.817700 7.351090 17.945999
13.811400 7.346290 17.945801
13.817700 7.351090 17.945999
13.810300 7.346690 17.946199
13.810300 7.346690 17.946199
13.817700 7.351090 17.945999
13.817600 7.352290 17.946501
13.810300 7.346690 17.946199
13.817600 7.352290 17.946501
13.809300 7.347390 17.946800
13.809300 7.347390 17.946800
13.817600 7.352290 17.946501
13.817100 7.353390 17.947001
13.809300 7.347390 17.946800
13.817100 7.353390 17.947001
13.808600 7.348320 17.947300
13.816400 7.354320 17.947500
13.808600 7.348320 17.947300
13.816400 7.354320 17.947500
13.808100 7.349420 17.947800
13.808100 7.349420 17.947800
13.816400 7.354320 17.947500
13.815400 7.355010 17.948099
13.808100 7.349420 17.947800
13.815400 7.355010 17.948099
13.808000 7.350620 17.948299
13.808000 7.350620 17.948299
13.815400 7.355010 17.948099
13.814300 7.355420 17.948500
13.808000 7.350620 17.948299
13.814300 7.355420 17.948500
13.808200 7.351830 17.948700
13.808200 7.351830 17.948700
13.814300 7.355420 17.948500
13.813000 7.355520 17.948900
13.808200 7.351830 17.948700
13.813000 7.355520 17.948900
13.808800 7.352980 17.948999
13.808800 7.352980 17.948999
13.813000 7.355520 17.948900
13.811800 7.355300 17.949100
13.808800 7.352980 17.948999
13.811800 7.355300 17.949100
13.809600 7.353980 17.949200
13.809600 7.353980 17.949200
13.811800 7.355300 17.949100
13.810600 7.354780 17.949200
10.685300 11.379700 0.000000
10.685300 11.086200 0.000000
10.666000 11.233000 0.000000
10.742000 11.516400 0.000000
10.742000 10.949500 0.000000
10.832100 11.633800 0.000000
10.832100 10.832100 0.000000
10.949500 11.723900 0.000000
10.949500 10.742000 0.000000
11.086200 11.780600 0.000000
11.086200 10.685300 0.000000
11.233000 11.799900 0.000000
11.233000 10.666000 0.000000
11.379700 11.780600 0.000000
11.379700 10.685300 0.000000
11.516400 11.723900 0.000000
11.516400 10.742000 0.000000
11.633800 11.633800 0.000000
11.633800 10.832100 0.000000
11.723900 11.516400 0.000000
11.723900 10.949500 0.000000
11.780600 11.379700 0.000000
11.780600 11.086200 0.000000
11.799900 11.233000 0.000000
11.780600 11.086200 0.000000
11.244800 11.226100 20.472000
11.723900 10.949500 0.000000
11.244800 11.226100 20.472000
11.780600 11.086200 0.000000
11.246200 11.229400 20.472000
11.723900 10.949500 0.000000
11.242700 11.223200 20.472000
11.633800 10.832100 0.000000
11.242700 11.223200 20.472000
11.723900 10.949500 0.000000
11.244800 11.226100 20.472000
11.242700 11.223200 20.472000
11.516400 10.742000 0.000000
11.633800 10.832100 0.000000
11.516400 10.742000 0.000000
11.242700 11.223200 20.472000
11.239800 11.221100 20.472000
11.239800 11.221100 20.472000
11.379700 10.685300 0.000000
11.516400 10.742000 0.000000
11.379700 10.685300 0.000000
11.239800 11.221100 20.472000
11.236500 11.219700 20.472000
11.236500 11.219700 20.472000
11.233000 10.666000 0.000000
11.379700 10.685300 0.000000
11.233000 10.666000 0.000000
11.236500 11.219700 20.472000
11.233000 11.219200 20.472000
11.233000 11.219200 20.472000
11.086200 10.685300 0.000000
11.233000 10.666000 0.000000
11.086200 10.685300 0.000000
11.233000 11.219200 20.472000
11.229400 11.219700 20.472000
11.229400 11.219700 20.472000
10.949500 10.742000 0.000000
11.086200 10.685300 0.000000
10.949500 10.742000 0.000000
11.229400 11.219700 20.472000
11.226100 11.221100 20.472000
11.226100 11.221100 20.472000
10.832100 10.832100 0.000000
10.949500 10.742000 0.000000
10.832100 10.832100 0.000000
11.226100 11.221100 20.472000
11.223200 11.223200 20.472000
11.223200 11.223200 20.472000
10.742000 10.949500 0.000000
10.832100 10.832100 0.000000
10.742000 10.949500 0.000000
11.223200 11.223200 20.472000
11.221100 11.226100 20.472000
11.221100 11.226100 20.472000
10.685300 11.086200 0.000000
10.742000 10.949500 0.000000
10.685300 11.086200 0.000000
11.221100 11.226100 20.472000
11.219700 11.229400 20.472000
11.219700 11.229400 20.472000
10.666000 11.233000 0.000000
10.685300 11.086200 0.000000
10.666000 11.233000 0.000000
11.219700 11.229400 20.472000
11.219200 11.233000 20.472000
11.219700 11.236500 20.472000
10.666000 11.233000 0.000000
11.219200 11.233000 20.472000
10.666000 11.233000 0.000000
11.219700 11.236500 20.472000
10.685300 11.379700 0.000000
11.221100 11.239800 20.472000
10.685300 11.379700 0.000000
11.219700 11.236500 20.472000
10.685300 11.379700 0.000000
11.221100 11.239800 20.472000
10.742000 11.516400 0.000000
11.223200 11.242700 20.472000
10.742000 11.516400 0.000000
11.221100 11.239800 20.472000
10.742000 11.516400 0.000000
11.223200 11.242700 20.472000
10.832100 11.633800 0.000000
11.223200 11.242700 20.472000
10.949500 11.723900 0.000000
10.832100 11.633800 0.000000
10.949500 11.723900 0.000000
11.223200 11.242700 20.472000
11.226100 11.244800 20.472000
11.226100 11.244800 20.472000
11.086200 11.780600 0.000000
10.949500 11.723900 0.000000
11.086200 11.780600 0.000000
11.226100 11.244800 20.472000
11.229400 11.246200 20.472000
11.229400 11.246200 20.472000
11.233000 11.799900 0.000000
11.086200 11.780600 0.000000
11.233000 11.799900 0.000000
11.229400 11.246200 20.472000
11.233000 11.246700 20.472000
11.233000 11.246700 20.472000
11.379700 11.780600 0.000000
11.233000 11.799900 0.000000
11.379700 11.780600 0.000000
11.233000 11.246700 20.472000
11.236500 11.246200 20.472000
11.236500 11.246200 20.472000
11.516400 11.723900 0.000000
11.379700 11.780600 0.000000
11.516400 11.723900 0.000000
11.236500 11.246200 20.472000
11.239800 11.244800 20.472000
11.239800 11.244800 20.472000
11.633800 11.633800 0.000000
11.516400 11.723900 0.000000
11.633800 11.633800 0.000000
11.239800 11.244800 20.472000
11.242700 11.242700 20.472000
11.723900 11.516400 0.000000
11.242700 11.242700 20.472000
11.244800 11.239800 20.472000
11.242700 11.242700 20.472000
11.723900 11.516400 0.000000
11.633800 11.633800 0.000000
11.780600 11.379700 0.000000
11.244800 11.239800 20.472000
11.246200 11.236500 20.472000
11.244800 11.239800 20.472000
11.780600 11.379700 0.000000
11.723900 11.516400 0.000000
11.780600 11.379700 0.000000
11.246700 11.233000 20.472000
11.799900 11.233000 0.000000
11.246700 11.233000 20.472000
11.780600 11.379700 0.000000
11.246200 11.236500 20.472000
11.799900 11.233000 0.000000
11.246200 11.229400 20.472000
11.780600 11.086200 0.000000
11.246200 11.229400 20.472000
11.799900 11.233000 0.000000
11.246700 11.233000 20.472000
11.219700 11.229400 20.472000
11.219700 11.236500 20.472000
11.219200 11.233000 20.472000
11.221100 11.226100 20.472000
11.221100 11.239800 20.472000
11.223200 11.223200 20.472000
11.223200 11.242700 20.472000
11.226100 11.221100 20.472000
11.226100 11.244800 20.472000
11.229400 11.219700 20.472000
11.229400 11.246200 20.472000
11.233000 11.219200 20.472000
11.233000 11.246700 20.472000
11.236500 11.219700 20.472000
11.236500 11.246200 20.472000
11.239800 11.221100 20.472000
11.239800 11.244800 20.472000
11.242700 11.223200 20.472000
11.242700 11.242700 20.472000
11.244800 11.226100 20.472000
11.244800 11.239800 20.472000
11.246200 11.229400 20.472000
11.246200 11.236500 20.472000
11.246700 11.233000 20.472000
11.000400 11.244300 6.844600
11.001500 11.154400 6.841850
10.995600 11.199400 6.840750
11.001500 11.154400 6.841850
11.000400 11.244300 6.844600
11.015700 11.286100 6.853140
11.001500 11.154400 6.841850
11.015700 11.286100 6.853140
11.017700 11.112500 6.847820
11.017700 11.112500 6.847820
11.015700 11.286100 6.853140
11.040400 11.322000 6.865780
11.017700 11.112500 6.847820
11.040400 11.322000 6.865780
11.043200 11.076500 6.858270
11.043200 11.076500 6.858270
11.040400 11.322000 6.865780
11.072700 11.349500 6.881670
11.043200 11.076500 6.858270
11.072700 11.349500 6.881670
11.076200 11.048900 6.872460
11.076200 11.048900 6.872460
11.072700 11.349500 6.881670
11.110500 11.366700 6.899720
11.076200 11.048900 6.872460
11.110500 11.366700 6.899720
11.114400 11.031400 6.889450
11.114400 11.031400 6.889450
11.110500 11.366700 6.899720
11.151300 11.372500 6.918700
11.114400 11.031400 6.889450
11.151300 11.372500 6.918700
11.155300 11.025400 6.908070
11.155300 11.025400 6.908070
11.151300 11.372500 6.918700
11.192200 11.366500 6.937320
11.155300 11.025400 6.908070
11.192200 11.366500 6.937320
11.196000 11.031200 6.927050
11.196000 11.031200 6.927050
11.192200 11.366500 6.937320
11.230400 11.349100 6.954310
11.196000 11.031200 6.927050
11.230400 11.349100 6.954310
11.233900 11.048400 6.945100
11.233900 11.048400 6.945100
11.230400 11.349100 6.954310
11.263400 11.321400 6.968510
11.233900 11.048400 6.945100
11.263400 11.321400 6.968510
11.266200 11.075900 6.960990
11.266200 11.075900 6.960990
11.263400 11.321400 6.968510
11.288900 11.285400 6.978950
11.266200 11.075900 6.960990
11.288900 11.285400 6.978950
11.290900 11.111800 6.973640
11.290900 11.111800 6.973640
11.288900 11.285400 6.978950
11.305100 11.243500 6.984930
11.290900 11.111800 6.973640
11.305100 11.243500 6.984930
11.306200 11.153600 6.982170
11.306200 11.153600 6.982170
11.305100 11.243500 6.984930
11.311000 11.198500 6.986030
11.306200 11.153600 6.982170
6.640860 10.844600 16.718201
11.290900 11.111800 6.973640
6.640860 10.844600 16.718201
11.306200 11.153600 6.982170
6.641230 10.845600 16.718399
11.290900 11.111800 6.973640
6.640260 10.843700 16.717899
11.266200 11.075900 6.960990
6.640260 10.843700 16.717899
11.290900 11.111800 6.973640
6.640860 10.844600 16.718201
6.640260 10.843700 16.717899
11.233900 11.048400 6.945100
11.266200 11.075900 6.960990
11.233900 11.048400 6.945100
6.640260 10.843700 16.717899
6.639480 10.843100 16.717501
6.639480 10.843100 16.717501
11.196000 11.031200 6.927050
11.233900 11.048400 6.945100
11.196000 11.031200 6.927050
6.639480 10.843100 16.717501
6.638570 10.842700 16.717100
6.638570 10.842700 16.717100
11.155300 11.025400 6.908070
11.196000 11.031200 6.927050
11.155300 11.025400 6.908070
6.638570 10.842700 16.717100
6.637580 10.842500 16.716600
6.637580 10.842500 16.716600
11.114400 11.031400 6.889450
11.155300 11.025400 6.908070
11.114400 11.031400 6.889450
6.637580 10.842500 16.716600
6.636590 10.842700 16.716200
6.636590 10.842700 16.716200
11.076200 11.048900 6.872460
11.114400 11.031400 6.889450
11.076200 11.048900 6.872460
6.636590 10.842700 16.716200
6.635660 10.843100 16.715799
6.635660 10.843100 16.715799
11.043200 11.076500 6.858270
11.076200 11.048900 6.872460
11.043200 11.076500 6.858270
6.635660 10.843100 16.715799
6.634870 10.843800 16.715401
6.634870 10.843800 16.715401
11.017700 11.112500 6.847820
11.043200 11.076500 6.858270
11.017700 11.112500 6.847820
6.634870 10.843800 16.715401
6.634250 10.844600 16.715200
6.634250 10.844600 16.715200
11.001500 11.154400 6.841850
11.017700 11.112500 6.847820
11.001500 11.154400 6.841850
6.634250 10.844600 16.715200
6.633860 10.845600 16.715000
6.633860 10.845600 16.715000
10.995600 11.199400 6.840750
11.001500 11.154400 6.841850
10.995600 11.199400 6.840750
6.633860 10.845600 16.715000
6.633710 10.846700 16.715000
6.633830 10.847800 16.715099
10.995600 11.199400 6.840750
6.633710 10.846700 16.715000
10.995600 11.199400 6.840750
6.633830 10.847800 16.715099
11.000400 11.244300 6.844600
6.634200 10.848800 16.715300
11.000400 11.244300 6.844600
6.633830 10.847800 16.715099
11.000400 11.244300 6.844600
6.634200 10.848800 16.715300
11.015700 11.286100 6.853140
6.634800 10.849700 16.715599
11.015700 11.286100 6.853140
6.634200 10.848800 16.715300
11.015700 11.286100 6.853140
6.634800 10.849700 16.715599
11.040400 11.322000 6.865780
6.634800 10.849700 16.715599
11.072700 11.349500 6.881670
11.040400 11.322000 6.865780
11.072700 11.349500 6.881670
6.634800 10.849700 16.715599
6.635580 10.850400 16.716000
6.635580 10.850400 16.716000
11.110500 11.366700 6.899720
11.072700 11.349500 6.881670
11.110500 11.366700 6.899720
6.635580 10.850400 16.716000
6.636500 10.850800 16.716400
6.636500 10.850800 16.716400
11.151300 11.372500 6.918700
11.110500 11.366700 6.899720
11.151300 11.372500 6.918700
6.636500 10.850800 16.716400
6.637480 10.850900 16.716900
6.637480 10.850900 16.716900
11.192200 11.366500 6.937320
11.151300 11.372500 6.918700
11.192200 11.366500 6.937320
6.637480 10.850900 16.716900
6.638470 10.850800 16.717300
6.638470 10.850800 16.717300
11.230400 11.349100 6.954310
11.192200 11.366500 6.937320
11.230400 11.349100 6.954310
6.638470 10.850800 16.717300
6.639400 10.850400 16.717699
6.639400 10.850400 16.717699
11.263400 11.321400 6.968510
11.230400 11.349100 6.954310
11.263400 11.321400 6.968510
6.639400 10.850400 16.717699
6.640200 10.849700 16.718100
11.288900 11.285400 6.978950
6.640200 10.849700 16.718100
6.640810 10.848800 16.718300
6.640200 10.849700 16.718100
11.288900 11.285400 6.978950
11.263400 11.321400 6.968510
11.305100 11.243500 6.984930
6.640810 10.848800 16.718300
6.641210 10.847800 16.718500
6.640810 10.848800 16.718300
11.305100 11.243500 6.984930
11.288900 11.285400 6.978950
11.305100 11.243500 6.984930
6.641350 10.846700 16.718500
11.311000 11.198500 6.986030
6.641350 10.846700 16.718500
11.305100 11.243500 6.984930
6.641210 10.847800 16.718500
11.311000 11.198500 6.986030
6.641230 10.845600 16.718399
11.306200 11.153600 6.982170
6.641230 10.845600 16.718399
11.311000 11.198500 6.986030
6.641350 10.846700 16.718500
6.633860 10.845600 16.715000
6.633830 10.847800 16.715099
6.633710 10.846700 16.715000
6.633830 10.847800 16.715099
6.633860 10.845600 16.715000
6.634250 10.844600 16.715200
6.633830 10.847800 16.715099
6.634250 10.844600 16.715200
6.634200 10.848800 16.715300
6.634200 10.848800 16.715300
6.634250 10.844600 16.715200
6.634870 10.843800 16.715401
6.634200 10.848800 16.715300
6.634870 10.843800 16.715401
6.634800 10.849700 16.715599
6.634800 10.849700 16.715599
6.634870 10.843800 16.715401
6.635660 10.843100 16.715799
6.634800 10.849700 16.715599
6.635660 10.843100 16.715799
6.635580 10.850400 16.716000
6.635580 10.850400 16.716000
6.635660 10.843100 16.715799
6.636590 10.842700 16.716200
6.635580 10.850400 16.716000
6.636590 10.842700 16.716200
6.636500 10.850800 16.716400
6.636500 10.850800 16.716400
6.636590 10.842700 16.716200
6.637580 10.842500 16.716600
6.636500 10.850800 16.716400
6.637580 10.842500 16.716600
6.637480 10.850900 16.716900
6.637480 10.850900 16.716900
6.637580 10.842500 16.716600
6.638570 10.842700 16.717100
6.637480 10.850900 16.716900
6.638570 10.842700 16.717100
6.638470 10.850800 16.717300
6.638470 10.850800 16.717300
6.638570 10.842700 16.717100
6.639480 10.843100 16.717501
6.638470 10.850800 16.717300
6.639480 10.843100 16.717501
6.639400 10.850400 16.717699
6.639400 10.850400 16.717699
6.639480 10.843100 16.717501
6.640260 10.843700 16.717899
6.639400 10.850400 16.717699
6.640260 10.843700 16.717899
6.640200 10.849700 16.718100
6.640200 10.849700 16.718100
6.640260 10.843700 16.717899
6.640860 10.844600 16.718201
6.640200 10.849700 16.718100
6.640860 10.844600 16.718201
6.640810 10.848800 16.718300
6.640810 10.848800 16.718300
6.640860 10.844600 16.718201
6.641230 10.845600 16.718399
6.640810 10.848800 16.718300
6.641230 10.845600 16.718399
6.641210 10.847800 16.718500
6.641210 10.847800 16.718500
6.641230 10.845600 16.718399
6.641350 10.846700 16.718500
11.453400 11.354000 5.034930
11.354800 11.409500 5.031470
11.407500 11.387600 5.030080
11.354800 11.409500 5.031470
11.453400 11.354000 5.034930
11.489400 11.311100 5.045680
11.354800 11.409500 5.031470
11.489400 11.311100 5.045680
11.298900 11.418100 5.038990
11.298900 11.418100 5.038990
11.489400 11.311100 5.045680
11.513000 11.261600 5.061600
11.298900 11.418100 5.038990
11.513000 11.261600 5.061600
11.243600 11.413000 5.052130
11.243600 11.413000 5.052130
11.513000 11.261600 5.061600
11.522600 11.209000 5.081600
11.243600 11.413000 5.052130
11.522600 11.209000 5.081600
11.192700 11.394500 5.070010
11.192700 11.394500 5.070010
11.522600 11.209000 5.081600
11.517600 11.156900 5.104320
11.192700 11.394500 5.070010
11.517600 11.156900 5.104320
11.149600 11.363800 5.091390
11.149600 11.363800 5.091390
11.517600 11.156900 5.104320
11.498200 11.108900 5.128210
11.149600 11.363800 5.091390
11.498200 11.108900 5.128210
11.117300 11.323000 5.114830
11.465900 11.068100 5.151650
11.117300 11.323000 5.114830
11.465900 11.068100 5.151650
11.098000 11.274900 5.138720
11.098000 11.274900 5.138720
11.465900 11.068100 5.151650
11.422900 11.037400 5.173030
11.098000 11.274900 5.138720
11.422900 11.037400 5.173030
11.093000 11.222800 5.161440
11.093000 11.222800 5.161440
11.422900 11.037400 5.173030
11.372000 11.018800 5.190910
11.093000 11.222800 5.161440
11.372000 11.018800 5.190910
11.102600 11.170200 5.181440
11.102600 11.170200 5.181440
11.372000 11.018800 5.190910
11.316700 11.013700 5.204050
11.102600 11.170200 5.181440
11.316700 11.013700 5.204050
11.126200 11.120800 5.197360
11.126200 11.120800 5.197360
11.316700 11.013700 5.204050
11.260800 11.022400 5.211570
11.126200 11.120800 5.197360
11.260800 11.022400 5.211570
11.162200 11.077800 5.208110
11.162200 11.077800 5.208110
11.260800 11.022400 5.211570
11.208100 11.044200 5.212960
11.162200 11.077800 5.208110
13.341000 15.477800 15.352000
11.126200 11.120800 5.197360
13.341000 15.477800 15.352000
11.162200 11.077800 5.208110
13.341800 15.476800 15.352300
11.126200 11.120800 5.197360
13.340400 15.479000 15.351600
11.102600 11.170200 5.181440
13.340400 15.479000 15.351600
11.126200 11.120800 5.197360
13.341000 15.477800 15.352000
13.340400 15.479000 15.351600
11.093000 11.222800 5.161440
11.102600 11.170200 5.181440
11.093000 11.222800 5.161440
13.340400 15.479000 15.351600
13.340200 15.480300 15.351200
13.340200 15.480300 15.351200
11.098000 11.274900 5.138720
11.093000 11.222800 5.161440
11.098000 11.274900 5.138720
13.340200 15.480300 15.351200
13.340300 15.481500 15.350600
13.340300 15.481500 15.350600
11.117300 11.323000 5.114830
11.098000 11.274900 5.138720
11.117300 11.323000 5.114830
13.340300 15.481500 15.350600
13.340700 15.482700 15.350000
13.340700 15.482700 15.350000
11.149600 11.363800 5.091390
11.117300 11.323000 5.114830
11.149600 11.363800 5.091390
13.340700 15.482700 15.350000
13.341500 15.483700 15.349500
13.341500 15.483700 15.349500
11.192700 11.394500 5.070010
11.149600 11.363800 5.091390
11.192700 11.394500 5.070010
13.341500 15.483700 15.349500
13.342600 15.484400 15.349000
13.342600 15.484400 15.349000
11.243600 11.413000 5.052130
11.192700 11.394500 5.070010
11.243600 11.413000 5.052130
13.342600 15.484400 15.349000
13.343800 15.484900 15.348500
13.343800 15.484900 15.348500
11.298900 11.418100 5.038990
11.243600 11.413000 5.052130
11.298900 11.418100 5.038990
13.343800 15.484900 15.348500
13.345100 15.485000 15.348200
13.345100 15.485000 15.348200
11.354800 11.409500 5.031470
11.298900 11.418100 5.038990
11.354800 11.409500 5.031470
13.345100 15.485000 15.348200
13.346500 15.484800 15.348000
13.346500 15.484800 15.348000
11.407500 11.387600 5.030080
11.354800 11.409500 5.031470
11.407500 11.387600 5.030080
13.346500 15.484800 15.348000
13.347800 15.484300 15.348000
13.348900 15.483400 15.348100
11.407500 11.387600 5.030080
13.347800 15.484300 15.348000
11.407500 11.387600 5.030080
13.348900 15.483400 15.348100
11.453400 11.354000 5.034930
13.349700 15.482400 15.348400
11.453400 11.354000 5.034930
13.348900 15.483400 15.348100
11.453400 11.354000 5.034930
13.349700 15.482400 15.348400
11.489400 11.311100 5.045680
13.350300 15.481200 15.348700
11.489400 11.311100 5.045680
13.349700 15.482400 15.348400
11.489400 11.311100 5.045680
13.350300 15.481200 15.348700
11.513000 11.261600 5.061600
13.350300 15.481200 15.348700
11.522600 11.209000 5.081600
11.513000 11.261600 5.061600
11.522600 11.209000 5.081600
13.350300 15.481200 15.348700
13.350500 15.479900 15.349200
13.350500 15.479900 15.349200
11.517600 11.156900 5.104320
11.522600 11.209000 5.081600
11.517600 11.156900 5.104320
13.350500 15.479900 15.349200
13.350400 15.478700 15.349800
13.350400 15.478700 15.349800
11.498200 11.108900 5.128210
11.517600 11.156900 5.104320
11.498200 11.108900 5.128210
13.350400 15.478700 15.349800
13.350000 15.477500 15.350400
13.350000 15.477500 15.350400
11.465900 11.068100 5.151650
11.498200 11.108900 5.128210
11.465900 11.068100 5.151650
13.350000 15.477500 15.350400
13.349200 15.476500 15.350900
13.349200 15.476500 15.350900
11.422900 11.037400 5.173030
11.465900 11.068100 5.151650
11.422900 11.037400 5.173030
13.349200 15.476500 15.350900
13.348100 15.475800 15.351400
13.348100 15.475800 15.351400
11.372000 11.018800 5.190910
11.422900 11.037400 5.173030
11.372000 11.018800 5.190910
13.348100 15.475800 15.351400
13.346900 15.475300 15.351900
11.316700 11.013700 5.204050
13.346900 15.475300 15.351900
13.345600 15.475200 15.352200
13.346900 15.475300 15.351900
11.316700 11.013700 5.204050
11.372000 11.018800 5.190910
11.260800 11.022400 5.211570
13.345600 15.475200 15.352200
13.344200 15.475400 15.352400
13.345600 15.475200 15.352200
11.260800 11.022400 5.211570
11.316700 11.013700 5.204050
11.260800 11.022400 5.211570
13.342900 15.475900 15.352400
11.208100 11.044200 5.212960
13.342900 15.475900 15.352400
11.260800 11.022400 5.211570
13.344200 15.475400 15.352400
11.208100 11.044200 5.212960
13.341800 15.476800 15.352300
11.162200 11.077800 5.208110
13.341800 15.476800 15.352300
11.208100 11.044200 5.212960
13.342900 15.475900 15.352400
13.346500 15.484800 15.348000
13.348900 15.483400 15.348100
13.347800 15.484300 15.348000
13.348900 15.483400 15.348100
13.346500 15.484800 15.348000
13.345100 15.485000 15.348200
13.348900 15.483400 15.348100
13.345100 15.485000 15.348200
13.349700 15.482400 15.348400
13.349700 15.482400 15.348400
13.345100 15.485000 15.348200
13.343800 15.484900 15.348500
13.349700 15.482400 15.348400
13.343800 15.484900 15.348500
13.350300 15.481200 15.348700
13.350300 15.481200 15.348700
13.343800 15.484900 15.348500
13.342600 15.484400 15.349000
13.350300 15.481200 15.348700
13.342600 15.484400 15.349000
13.350500 15.479900 15.349200
13.350500 15.479900 15.349200
13.342600 15.484400 15.349000
13.341500 15.483700 15.349500
13.350500 15.479900 15.349200
13.341500 15.483700 15.349500
13.350400 15.478700 15.349800
13.350400 15.478700 15.349800
13.341500 15.483700 15.349500
13.340700 15.482700 15.350000
13.350400 15.478700 15.349800
13.340700 15.482700 15.350000
13.350000 15.477500 15.350400
13.350000 15.477500 15.350400
13.340700 15.482700 15.350000
13.340300 15.481500 15.350600
13.350000 15.477500 15.350400
13.340300 15.481500 15.350600
13.349200 15.476500 15.350900
13.349200 15.476500 15.350900
13.340300 15.481500 15.350600
13.340200 15.480300 15.351200
13.349200 15.476500 15.350900
13.340200 15.480300 15.351200
13.348100 15.475800 15.351400
13.348100 15.475800 15.351400
13.340200 15.480300 15.351200
13.340400 15.479000 15.351600
13.348100 15.475800 15.351400
13.340400 15.479000 15.351600
13.346900 15.475300 15.351900
13.346900 15.475300 15.351900
13.340400 15.479000 15.351600
13.341000 15.477800 15.352000
13.346900 15.475300 15.351900
13.341000 15.477800 15.352000
13.345600 15.475200 15.352200
13.345600 15.475200 15.352200
13.341000 15.477800 15.352000
13.341800 15.476800 15.352300
13.345600 15.475200 15.352200
13.341800 15.476800 15.352300
13.344200 15.475400 15.352400
13.344200 15.475400 15.352400
13.341800 15.476800 15.352300
13.342900 15.475900 15.352400
11.378600 11.176200 9.344560
10.586400 18.142401 10.587400
5.948510 15.553300 10.587400
4.491500 10.400200 10.587400
11.378600 11.176200 9.344560
5.948510 15.553300 10.587400
5.948510 15.553300 10.587400
10.586400 18.142401 10.587400
2.592540 18.258499 15.724200
10.096800 22.447701 15.724200
2.592540 18.258499 15.724200
10.586400 18.142401 10.587400
10.586400 18.142401 10.587400
11.378600 11.176200 9.344560
15.688300 16.650801 10.587400
7.068840 5.701660 10.587400
11.378600 11.176200 9.344560
4.491500 10.400200 10.587400
0.235052 9.920550 15.724200
4.491500 10.400200 10.587400
2.592540 18.258499 15.724200
5.948510 15.553300 10.587400
2.592540 18.258499 15.724200
4.491500 10.400200 10.587400
15.688300 16.650801 10.587400
18.351900 20.034300 15.724200
10.586400 18.142401 10.587400
10.096800 22.447701 15.724200
10.586400 18.142401 10.587400
18.351900 20.034300 15.724200
2.592540 18.258499 21.989401
2.592540 18.258499 15.724200
10.096800 22.447701 21.989401
10.096800 22.447701 15.724200
15.688300 16.650801 10.587400
17.481899 11.864000 10.446000
18.265600 11.952300 10.587400
17.481899 11.864000 10.446000
15.688300 16.650801 10.587400
11.378600 11.176200 9.344560
7.068840 5.701660 10.587400
12.170800 4.210070 10.587400
11.378600 11.176200 9.344560
4.491500 10.400200 10.587400
0.235052 9.920550 15.724200
7.068840 5.701660 10.587400
4.405280 2.318180 15.724200
7.068840 5.701660 10.587400
0.235052 9.920550 15.724200
0.235052 9.920550 15.724200
2.592540 18.258499 15.724200
0.235052 9.920550 21.989401
2.592540 18.258499 21.989401
15.688300 16.650801 10.587400
18.265600 11.952300 10.587400
18.351900 20.034300 15.724200
22.522100 12.431900 15.724200
18.351900 20.034300 15.724200
18.265600 11.952300 10.587400
18.351900 20.034300 15.724200
18.351900 20.034300 21.989401
10.096800 22.447701 15.724200
10.096800 22.447701 21.989401
2.592540 18.258499 21.989401
10.096800 22.447701 21.989401
5.948510 15.553300 25.586000
10.586400 18.142401 25.586000
5.948510 15.553300 25.586000
10.096800 22.447701 21.989401
11.378600 11.176200 9.344560
16.808599 6.799170 10.587400
17.481899 11.864000 10.446000
18.265600 11.952300 10.587400
17.481899 11.864000 10.446000
16.808599 6.799170 10.587400
12.170800 4.210070 10.587400
16.808599 6.799170 10.587400
11.378600 11.176200 9.344560
12.170800 4.210070 10.587400
7.068840 5.701660 10.587400
12.660400 -0.095256 15.724200
4.405280 2.318180 15.724200
4.405280 2.318180 15.724200
0.235052 9.920550 15.724200
4.405280 2.318180 21.989401
0.235052 9.920550 21.989401
2.592540 18.258499 21.989401
5.948510 15.553300 25.586000
0.235052 9.920550 21.989401
4.491500 10.400200 25.586000
0.235052 9.920550 21.989401
5.948510 15.553300 25.586000
18.351900 20.034300 15.724200
22.522100 12.431900 15.724200
18.351900 20.034300 21.989401
22.522100 12.431900 21.989401
16.808599 6.799170 10.587400
20.164600 4.094000 15.724200
18.265600 11.952300 10.587400
22.522100 12.431900 15.724200
18.265600 11.952300 10.587400
20.164600 4.094000 15.724200
10.096800 22.447701 21.989401
18.351900 20.034300 21.989401
10.586400 18.142401 25.586000
15.688300 16.650801 25.586000
10.586400 18.142401 25.586000
18.351900 20.034300 21.989401
10.586400 18.142401 25.586000
11.378600 11.176200 27.507999
5.948510 15.553300 25.586000
12.170800 4.210070 10.587400
12.660400 -0.095256 15.724200
16.808599 6.799170 10.587400
20.164600 4.094000 15.724200
16.808599 6.799170 10.587400
12.660400 -0.095256 15.724200
4.405280 2.318180 15.724200
4.405280 2.318180 21.989401
12.660400 -0.095256 15.724200
12.660400 -0.095256 21.989401
0.235052 9.920550 21.989401
4.491500 10.400200 25.586000
4.405280 2.318180 21.989401
7.068840 5.701660 25.586000
4.405280 2.318180 21.989401
4.491500 10.400200 25.586000
11.378600 11.176200 27.507999
4.491500 10.400200 25.586000
5.948510 15.553300 25.586000
15.688300 16.650801 25.586000
18.351900 20.034300 21.989401
18.265600 11.952300 25.586000
22.522100 12.431900 21.989401
18.265600 11.952300 25.586000
18.351900 20.034300 21.989401
20.164600 4.094000 15.724200
20.164600 4.094000 21.989401
22.522100 12.431900 15.724200
22.522100 12.431900 21.989401
15.688300 16.650801 25.586000
11.378600 11.176200 27.507999
10.586400 18.142401 25.586000
12.660400 -0.095256 21.989401
20.164600 4.094000 21.989401
12.660400 -0.095256 15.724200
20.164600 4.094000 15.724200
7.068840 5.701660 25.586000
12.170800 4.210070 25.586000
4.405280 2.318180 21.989401
12.660400 -0.095256 21.989401
11.378600 11.176200 27.507999
7.068840 5.701660 25.586000
4.491500 10.400200 25.586000
18.265600 11.952300 25.586000
22.522100 12.431900 21.989401
16.808599 6.799170 25.586000
20.164600 4.094000 21.989401
16.808599 6.799170 25.586000
22.522100 12.431900 21.989401
15.688300 16.650801 25.586000
18.265600 11.952300 25.586000
11.378600 11.176200 27.507999
12.170800 4.210070 25.586000
16.808599 6.799170 25.586000
12.660400 -0.095256 21.989401
20.164600 4.094000 21.989401
12.660400 -0.095256 21.989401
16.808599 6.799170 25.586000
12.170800 4.210070 25.586000
7.068840 5.701660 25.586000
11.378600 11.176200 27.507999
18.265600 11.952300 25.586000
16.808599 6.799170 25.586000
11.378600 11.176200 27.507999
16.808599 6.799170 25.586000
12.170800 4.210070 25.586000
11.378600 11.176200 27.507999
5.948510 15.553300 10.587400
10.586400 18.142401 10.587400
11.378600 11.176200 9.344560
5.948510 15.553300 10.587400
11.378600 11.176200 9.344560
4.491500 10.400200 10.587400
10.586400 18.142401 10.587400
2.592540 18.258499 15.724200
10.096800 22.447701 15.724200
2.592540 18.258499 15.724200
10.586400 18.142401 10.587400
5.948510 15.553300 10.587400
15.688300 16.650801 10.587400
11.378600 11.176200 9.344560
10.586400 18.142401 10.587400
4.491500 10.400200 10.587400
11.378600 11.176200 9.344560
7.068840 5.701660 10.587400
4.491500 10.400200 10.587400
2.592540 18.258499 15.724200
5.948510 15.553300 10.587400
2.592540 18.258499 15.724200
4.491500 10.400200 10.587400
0.235052 9.920550 15.724200
18.351900 20.034300 15.724200
10.586400 18.142401 10.587400
10.096800 22.447701 15.724200
10.586400 18.142401 10.587400
18.351900 20.034300 15.724200
15.688300 16.650801 10.587400
2.592540 18.258499 15.724200
10.096800 22.447701 21.989401
10.096800 22.447701 15.724200
2.592540 18.258499 21.989401
11.378600 11.176200 9.344560
15.688300 16.650801 10.587400
17.481899 11.864000 10.446000
18.265600 11.952300 10.587400
17.481899 11.864000 10.446000
15.688300 16.650801 10.587400
11.378600 11.176200 9.344560
12.170800 4.210070 10.587400
7.068840 5.701660 10.587400
0.235052 9.920550 15.724200
7.068840 5.701660 10.587400
4.405280 2.318180 15.724200
7.068840 5.701660 10.587400
0.235052 9.920550 15.724200
4.491500 10.400200 10.587400
2.592540 18.258499 15.724200
0.235052 9.920550 21.989401
2.592540 18.258499 21.989401
0.235052 9.920550 15.724200
18.265600 11.952300 10.587400
18.351900 20.034300 15.724200
22.522100 12.431900 15.724200
18.351900 20.034300 15.724200
18.265600 11.952300 10.587400
15.688300 16.650801 10.587400
18.351900 20.034300 21.989401
10.096800 22.447701 15.724200
10.096800 22.447701 21.989401
18.351900 20.034300 15.724200
10.096800 22.447701 21.989401
5.948510 15.553300 25.586000
10.586400 18.142401 25.586000
5.948510 15.553300 25.586000
10.096800 22.447701 21.989401
2.592540 18.258499 21.989401
16.808599 6.799170 10.587400
17.481899 11.864000 10.446000
18.265600 11.952300 10.587400
17.481899 11.864000 10.446000
16.808599 6.799170 10.587400
11.378600 11.176200 9.344560
11.378600 11.176200 9.344560
16.808599 6.799170 10.587400
12.170800 4.210070 10.587400
7.068840 5.701660 10.587400
12.660400 -0.095256 15.724200
4.405280 2.318180 15.724200
12.170800 4.210070 10.587400
0.235052 9.920550 15.724200
4.405280 2.318180 21.989401
0.235052 9.920550 21.989401
4.405280 2.318180 15.724200
5.948510 15.553300 25.586000
0.235052 9.920550 21.989401
4.491500 10.400200 25.586000
0.235052 9.920550 21.989401
5.948510 15.553300 25.586000
2.592540 18.258499 21.989401
22.522100 12.431900 15.724200
18.351900 20.034300 21.989401
22.522100 12.431900 21.989401
18.351900 20.034300 15.724200
20.164600 4.094000 15.724200
18.265600 11.952300 10.587400
22.522100 12.431900 15.724200
18.265600 11.952300 10.587400
20.164600 4.094000 15.724200
16.808599 6.799170 10.587400
18.351900 20.034300 21.989401
10.586400 18.142401 25.586000
15.688300 16.650801 25.586000
10.586400 18.142401 25.586000
18.351900 20.034300 21.989401
10.096800 22.447701 21.989401
5.948510 15.553300 25.586000
11.378600 11.176200 27.507999
10.586400 18.142401 25.586000
12.660400 -0.095256 15.724200
16.808599 6.799170 10.587400
20.164600 4.094000 15.724200
16.808599 6.799170 10.587400
12.660400 -0.095256 15.724200
12.170800 4.210070 10.587400
4.405280 2.318180 21.989401
12.660400 -0.095256 15.724200
12.660400 -0.095256 21.989401
4.405280 2.318180 15.724200
4.491500 10.400200 25.586000
4.405280 2.318180 21.989401
7.068840 5.701660 25.586000
4.405280 2.318180 21.989401
4.491500 10.400200 25.586000
0.235052 9.920550 21.989401
5.948510 15.553300 25.586000
4.491500 10.400200 25.586000
11.378600 11.176200 27.507999
18.351900 20.034300 21.989401
18.265600 11.952300 25.586000
22.522100 12.431900 21.989401
18.265600 11.952300 25.586000
18.351900 20.034300 21.989401
15.688300 16.650801 25.586000
20.164600 4.094000 21.989401
22.522100 12.431900 15.724200
22.522100 12.431900 21.989401
20.164600 4.094000 15.724200
10.586400 18.142401 25.586000
11.378600 11.176200 27.507999
15.688300 16.650801 25.586000
20.164600 4.094000 21.989401
12.660400 -0.095256 15.724200
20.164600 4.094000 15.724200
12.660400 -0.095256 21.989401
12.170800 4.210070 25.586000
4.405280 2.318180 21.989401
12.660400 -0.095256 21.989401
7.068840 5.701660 25.586000
4.491500 10.400200 25.586000
7.068840 5.701660 25.586000
11.378600 11.176200 27.507999
22.522100 12.431900 21.989401
16.808599 6.799170 25.586000
20.164600 4.094000 21.989401
16.808599 6.799170 25.586000
22.522100 12.431900 21.989401
18.265600 11.952300 25.586000
11.378600 11.176200 27.507999
18.265600 11.952300 25.586000
15.688300 16.650801 25.586000
16.808599 6.799170 25.586000
12.660400 -0.095256 21.989401
20.164600 4.094000 21.989401
12.660400 -0.095256 21.989401
16.808599 6.799170 25.586000
12.170800 4.210070 25.586000
11.378600 11.176200 27.507999
7.068840 5.701660 25.586000
12.170800 4.210070 25.586000
11.378600 11.176200 27.507999
16.808599 6.799170 25.586000
18.265600 11.952300 25.586000
11.378600 11.176200 27.507999
12.170800 4.210070 25.586000
16.808599 6.799170 25.586000
3 0 1 2
3 3 4 5
3 6 7 8
3 9 10 11
3 12 13 14
3 15 16 17
3 18 19 20
3 21 22 23
3 24 25 26
3 27 28 29
3 30 31 32
3 33 34 35
3 36 37 38
3 39 40 41
3 42 43 44
3 45 46 47
3 48 49 50
3 51 52 53
3 54 55 56
3 57 58 59
3 60 61 62
3 63 64 65
3 66 67 68
3 69 70 71
3 72 73 74
3 75 76 77
3 78 79 80
3 81 82 83
3 84 85 86
3 87 88 89
3 90 91 92
3 93 94 95
3 96 97 98
3 99 100 101
3 102 103 104
3 105 106 107
3 108 109 110
3 111 112 113
3 114 115 116
3 117 118 119
3 120 121 122
3 123 124 125
3 126 127 128
3 129 130 131
3 132 133 134
3 135 136 137
3 138 139 140
3 141 142 143
3 144 145 146
3 147 148 149
3 150 151 152
3 153 154 155
3 156 157 158
3 159 160 161
3 162 163 164
3 165 166 167
3 168 169 170
3 171 172 173
3 174 175 176
3 177 178 179
3 180 181 182
3 183 184 185
3 186 187 188
3 189 190 191
3 192 193 194
3 195 196 197
3 198 199 200
3 201 202 203
3 204 205 206
3 207 208 209
3 210 211 212
3 213 214 215
3 216 217 218
3 219 220 221
3 222 223 224
3 225 226 227
3 228 229 230
3 231 232 233
3 234 235 236
3 237 238 239
3 240 241 242
3 242 241 243
3 244 245 246
3 247 248 249
3 250 251 252
3 253 254 255
3 256 257 258
3 259 260 261
3 262 263 264
3 265 266 267
3 268 269 270
3 271 272 273
3 274 275 276
3 275 274 277
3 275 277 278
3 278 277 279
3 278 279 280
3 280 279 281
3 280 281 282
3 282 281 283
3 282 283 284
3 284 283 285
3 284 285 286
3 286 285 287
3 286 287 288
3 288 287 289
3 288 289 290
3 290 289 291
3 290 291 292
3 292 291 293
3 292 293 294
3 294 293 295
3 294 295 296
3 296 295 297
3 298 299 300
3 301 302 303
3 304 305 306
3 307 308 309
3 310 311 312
3 313 314 315
3 316 317 318
3 319 320 321
3 322 323 324
3 325 326 327
3 328 329 330
3 331 332 333
3 334 335 336
3 337 338 339
3 340 341 342
3 343 344 345
3 346 347 348
3 349 350 351
3 352 353 354
3 355 356 357
3 358 359 360
3 361 362 363
3 364 365 366
3 367 368 369
3 370 371 372
3 373 374 375
3 376 377 378
3 379 380 381
3 382 383 384
3 385 386 387
3 388 389 390
3 391 392 393
3 394 395 396
3 397 398 399
3 400 401 402
3 403 404 405
3 406 407 408
3 409 410 411
3 412 413 414
3 415 416 417
3 418 419 420
3 421 422 423
3 424 425 426
3 427 428 429
3 430 431 432
3 433 434 435
3 436 437 438
3 439 440 441
3 442 443 444
3 443 442 445
3 443 445 446
3 446 445 447
3 446 447 448
3 448 447 449
3 448 449 450
3 450 449 451
3 450 451 452
3 452 451 453
3 452 453 454
3 454 453 455
3 454 455 456
3 456 455 457
3 456 457 458
3 458 457 459
3 458 459 460
3 460 459 461
3 460 461 462
3 462 461 463
3 462 463 464
3 464 463 465
3 466 467 468
3 469 470 471
3 472 473 474
3 475 476 477
3 478 479 480
3 481 482 483
3 484 485 486
3 487 488 489
3 490 491 492
3 493 494 495
3 496 497 498
3 499 500 501
3 502 503 504
3 505 506 507
3 508 509 510
3 511 512 513
3 514 515 516
3 517 518 519
3 520 521 522
3 523 524 525
3 526 527 528
3 529 530 531
3 532 533 534
3 535 536 537
3 538 539 540
3 541 542 543
3 544 545 546
3 547 548 549
3 550 551 552
3 553 554 555
3 556 557 558
3 559 560 561
3 562 563 564
3 565 566 567
3 568 569 570
3 571 572 573
3 574 575 576
3 577 578 579
3 580 581 582
3 583 584 585
3 586 587 588
3 589 590 591
3 592 593 594
3 595 596 597
3 598 599 600
3 601 602 603
3 604 605 606
3 607 608 609
3 610 611 612
3 613 614 615
3 616 617 618
3 619 620 621
3 622 623 624
3 625 626 627
3 628 629 630
3 631 632 633
3 634 635 636
3 637 638 639
3 640 641 642
3 643 644 645
3 646 647 648
3 649 650 651
3 652 653 654
3 655 656 657
3 658 659 660
3 661 662 663
3 664 665 666
3 667 668 669
3 670 671 672
3 673 674 675
3 676 677 678
3 679 680 681
3 682 683 684
3 685 686 687
3 688 689 690
3 691 692 693
3 694 695 696
3 697 698 699
3 700 701 702
3 703 704 705
3 706 707 708
3 709 710 711
3 712 713 714
3 715 716 717
3 718 719 720
3 721 722 723
3 724 725 726
3 727 728 729
3 730 731 732
3 733 734 735
3 736 737 738
3 739 740 741
3 742 743 744
3 745 746 747
3 748 749 750
3 751 752 753
3 754 755 756
3 757 758 759
3 760 761 762
3 763 764 765
3 766 767 768
3 769 770 771
3 772 773 774
3 774 773 775
3 776 777 778
3 779 780 781
3 782 783 784
3 785 786 787
3 788 789 790
3 791 792 793
3 794 795 796
3 797 798 799
3 800 801 802
3 803 804 805
3 806 807 808
3 809 810 811
3 812 813 814
3 815 816 817
3 818 819 820
3 821 822 823
3 824 825 826
3 827 828 829
3 830 831 832
3 833 834 835
3 836 837 838
3 839 840 841
3 842 843 844
3 845 846 847
3 848 849 850
3 851 852 853
3 854 855 856
3 857 858 859
3 860 861 862
3 863 864 865
3 866 867 868
3 869 870 871
3 872 873 874
3 875 876 877
3 878 879 880
3 881 882 883
3 884 885 886
3 887 888 889
3 890 891 892
3 893 894 895
3 896 897 898
3 899 900 901
3 902 903 904
3 905 906 907
3 908 909 910
3 911 912 913
3 914 915 916
3 917 918 919
3 920 921 922
3 923 924 925
3 926 927 928
3 929 930 931
3 932 933 934
3 935 936 937
3 938 939 940
3 941 942 943
3 944 945 946
3 947 948 949
3 950 951 952
3 953 954 955
3 956 957 958
3 959 960 961
3 962 963 964
3 965 966 967
3 968 969 970
3 971 972 973
3 974 975 976
3 977 978 979
3 980 981 982
3 983 984 985
3 986 987 988
3 989 990 991
3 992 993 994
3 995 996 997
3 998 999 1000
3 1001 1002 1003
3 1004 1005 1006
3 1007 1008 1009
3 1010 1011 1012
3 1013 1014 1015
3 1016 1017 1018
3 1019 1020 1021
3 1022 1023 1024
3 1025 1026 1027
3 1028 1029 1030
3 1031 1032 1033
3 1034 1035 1036
3 1037 1038 1039
3 1040 1041 1042
3 1043 1044 1045
3 1046 1047 1048
3 1049 1048 1047
3 1050 1051 1052
3 1053 1054 1055
3 1056 1057 1058
3 1059 1060 1061
3 1062 1063 1064
3 1065 1066 1067
3 1068 1067 1066
3 1069 1070 1071
3 1072 1073 1074
3 1075 1076 1077
3 1078 1077 1076
3 1079 1080 1081
3 1082 1083 1084
3 1085 1086 1087
3 1088 1089 1090
3 1091 1092 1093
3 1094 1095 1096
3 1097 1096 1095
3 1098 1099 1100
3 1101 1100 1099
3 1102 1103 1104
3 1105 1106 1107
3 1108 1109 1110
3 1111 1110 1109
3 1112 1113 1114
3 1115 1116 1117
3 1118 1119 1120
3 1121 1122 1123
3 1124 1125 1126
3 1127 1128 1129
3 1130 1131 1132
3 1133 1134 1135
3 1136 1135 1134
3 1137 1138 1139
3 1140 1141 1142
3 1143 1144 1145
3 1146 1147 1148
3 1149 1150 1151
3 1152 1153 1154
3 1155 1154 1153
3 1156 1157 1158
3 1159 1160 1161
3 1162 1161 1160
3 1163 1164 1165
3 1166 1165 1164
3 1167 1168 1169
3 1170 1171 1172
3 1173 1174 1175
3 1176 1177 1178
3 1179 1180 1181
3 1182 1183 1184
3 1185 1186 1187
3 1188 1189 1190
3 1191 1192 1193
3 1194 1195 1196
3 1197 1198 1199
3 1200 1201 1202
3 1203 1204 1205
3 1206 1207 1208
3 1209 1210 1211
3 1212 1213 1214
3 1215 1216 1217
3 1218 1219 1220
3 1221 1222 1223
3 1224 1225 1226
3 1225 1224 1227
3 1228 1229 1230
3 1231 1232 1233
3 1234 1235 1236
3 1237 1238 1239
3 1240 1241 1242
3 1243 1244 1245
3 1244 1243 1246
3 1247 1248 1249
3 1250 1251 1252
3 1253 1254 1255
3 1254 1253 1256
3 1257 1258 1259
3 1260 1261 1262
3 1263 1264 1265
3 1266 1267 1268
3 1269 1270 1271
3 1272 1273 1274
3 1273 1272 1275
3 1276 1277 1278
3 1277 1276 1279
3 1280 1281 1282
3 1283 1284 1285
3 1286 1287 1288
3 1287 1286 1289
3 1290 1291 1292
3 1293 1294 1295
3 1296 1297 1298
3 1299 1300 1301
3 1302 1303 1304
3 1305 1306 1307
3 1308 1309 1310
3 1311 1312 1313
3 1312 1311 1314
3 1315 1316 1317
3 1318 1319 1320
3 1321 1322 1323
3 1324 1325 1326
3 1327 1328 1329
3 1330 1331 1332
3 1331 1330 1333
3 1334 1335 1336
3 1337 1338 1339
3 1338 1337 1340
3 1341 1342 1343
3 1342 1341 1344
3 1345 1346 1347
3 1348 1349 1350
3 1351 1352 1353
3 1354 1355 1356
3 1357 1358 1359
3 1360 1361 1362
3 1363 1364 1365
3 1366 1367 1368
3 1369 1370 1371
