ply
format ascii 1.0
comment Created by Blender 2.60 (sub 0) - www.blender.org, source file: ''
element vertex 580
property float x
property float y
property float z
property float nx
property float ny
property float nz
element face 196
property list uchar uint vertex_indices
end_header
-57.547001 -21.836599 480.000000 -0.536899 0.081689 0.839682
-89.793297 -21.276800 459.326996 -0.536899 0.081689 0.839682
-100.191002 -45.950401 455.079010 -0.536899 0.081689 0.839682
-100.191002 -45.950401 455.079010 0.536899 -0.081689 -0.839682
-89.793297 -21.276800 459.326996 0.536899 -0.081689 -0.839682
-57.547001 -21.836599 480.000000 0.536899 -0.081689 -0.839682
-57.547001 -21.836599 480.000000 -0.023327 -0.698211 0.715512
-100.191002 -45.950401 455.079010 -0.023327 -0.698211 0.715512
-66.611000 -47.212700 454.941986 -0.023327 -0.698211 0.715512
-66.611000 -47.212700 454.941986 0.023327 0.698211 -0.715512
-100.191002 -45.950401 455.079010 0.023327 0.698211 -0.715512
-57.547001 -21.836599 480.000000 0.023327 0.698211 -0.715512
-57.547001 -21.836599 480.000000 -0.499011 0.360338 0.788127
-65.509804 -5.263690 467.381012 -0.499011 0.360338 0.788127
-89.793297 -21.276800 459.326996 -0.499011 0.360338 0.788127
-89.793297 -21.276800 459.326996 0.499011 -0.360338 -0.788127
-65.509804 -5.263690 467.381012 0.499011 -0.360338 -0.788127
-57.547001 -21.836599 480.000000 0.499011 -0.360338 -0.788127
-57.547001 -21.836599 480.000000 0.288191 -0.722969 0.627902
-66.611000 -47.212700 454.941986 0.288191 -0.722969 0.627902
-33.034401 -25.189301 464.889008 0.288191 -0.722969 0.627902
-33.034401 -25.189301 464.889008 -0.288191 0.722969 -0.627902
-66.611000 -47.212700 454.941986 -0.288191 0.722969 -0.627902
-57.547001 -21.836599 480.000000 -0.288191 0.722969 -0.627902
-65.509804 -5.263690 467.381012 -0.185771 0.537198 0.822744
-57.547001 -21.836599 480.000000 -0.185771 0.537198 0.822744
-39.691299 -3.962320 472.360992 -0.185771 0.537198 0.822744
-57.547001 -21.836599 480.000000 0.185771 -0.537198 -0.822744
-65.509804 -5.263690 467.381012 0.185771 -0.537198 -0.822744
-39.691299 -3.962320 472.360992 0.185771 -0.537198 -0.822744
-1.002450 -1.234300 434.467010 0.530058 0.298956 0.793514
-57.547001 -21.836599 480.000000 0.530058 0.298956 0.793514
-33.034401 -25.189301 464.889008 0.530058 0.298956 0.793514
-33.034401 -25.189301 464.889008 -0.530058 -0.298956 -0.793514
-57.547001 -21.836599 480.000000 -0.530058 -0.298956 -0.793514
-1.002450 -1.234300 434.467010 -0.530058 -0.298956 -0.793514
-39.691299 -3.962320 472.360992 0.659988 -0.383111 0.646252
-57.547001 -21.836599 480.000000 0.659988 -0.383111 0.646252
-1.002450 -1.234300 434.467010 0.659988 -0.383111 0.646252
-57.547001 -21.836599 480.000000 -0.659988 0.383111 -0.646252
-39.691299 -3.962320 472.360992 -0.659988 0.383111 -0.646252
-1.002450 -1.234300 434.467010 -0.659988 0.383111 -0.646252
64.071602 1.248230 480.000000 0.228289 0.791511 0.566916
94.341499 13.554600 450.628998 0.228289 0.791511 0.566916
60.291000 16.251699 460.575012 0.228289 0.791511 0.566916
60.291000 16.251699 460.575012 -0.228289 -0.791511 -0.566916
94.341499 13.554600 450.628998 -0.228289 -0.791511 -0.566916
64.071602 1.248230 480.000000 -0.228289 -0.791511 -0.566916
64.071602 1.248230 480.000000 -0.438138 0.668151 0.601339
60.291000 16.251699 460.575012 -0.438138 0.668151 0.601339
-1.361410 -0.679312 434.467010 -0.438138 0.668151 0.601339
-1.361410 -0.679312 434.467010 0.438138 -0.668151 -0.601339
60.291000 16.251699 460.575012 0.438138 -0.668151 -0.601339
64.071602 1.248230 480.000000 0.438138 -0.668151 -0.601339
116.286003 -10.334700 455.079010 0.456044 0.549344 0.700175
94.341499 13.554600 450.628998 0.456044 0.549344 0.700175
64.071602 1.248230 480.000000 0.456044 0.549344 0.700175
64.071602 1.248230 480.000000 -0.456044 -0.549344 -0.700175
94.341499 13.554600 450.628998 -0.456044 -0.549344 -0.700175
116.286003 -10.334700 455.079010 -0.456044 -0.549344 -0.700175
64.071602 1.248230 480.000000 -0.466522 0.605486 0.644782
-1.361410 -0.679312 434.467010 -0.466522 0.605486 0.644782
35.333698 -12.098000 471.739990 -0.466522 0.605486 0.644782
35.333698 -12.098000 471.739990 0.466522 -0.605486 -0.644782
-1.361410 -0.679312 434.467010 0.466522 -0.605486 -0.644782
64.071602 1.248230 480.000000 0.466522 -0.605486 -0.644782
116.286003 -10.334700 455.079010 0.245861 -0.573298 0.781589
64.071602 1.248230 480.000000 0.245861 -0.573298 0.781589
91.230003 -24.646500 452.463013 0.245861 -0.573298 0.781589
91.230003 -24.646500 452.463013 -0.245861 0.573298 -0.781589
64.071602 1.248230 480.000000 -0.245861 0.573298 -0.781589
116.286003 -10.334700 455.079010 -0.245861 0.573298 -0.781589
64.272598 -23.514601 463.003998 0.025724 -0.565556 0.824308
64.071602 1.248230 480.000000 0.025724 -0.565556 0.824308
35.333698 -12.098000 471.739990 0.025724 -0.565556 0.824308
35.333698 -12.098000 471.739990 -0.025724 0.565556 -0.824308
64.071602 1.248230 480.000000 -0.025724 0.565556 -0.824308
64.272598 -23.514601 463.003998 -0.025724 0.565556 -0.824308
91.230003 -24.646500 452.463013 0.286595 -0.540565 0.790982
64.071602 1.248230 480.000000 0.286595 -0.540565 0.790982
64.272598 -23.514601 463.003998 0.286595 -0.540565 0.790982
64.272598 -23.514601 463.003998 -0.286595 0.540565 -0.790982
64.071602 1.248230 480.000000 -0.286595 0.540565 -0.790982
91.230003 -24.646500 452.463013 -0.286595 0.540565 -0.790982
35.587299 116.828003 455.079010 0.708047 0.201311 0.676863
26.426100 65.258301 480.000000 0.708047 0.201311 0.676863
49.108700 84.232903 450.628998 0.708047 0.201311 0.676863
49.108700 84.232903 450.628998 -0.708047 -0.201311 -0.676863
26.426100 65.258301 480.000000 -0.708047 -0.201311 -0.676863
35.587299 116.828003 455.079010 -0.708047 -0.201311 -0.676863
35.587299 116.828003 455.079010 0.173295 0.403397 0.898465
10.732700 94.566498 469.868011 0.173295 0.403397 0.898465
26.426100 65.258301 480.000000 0.173295 0.403397 0.898465
26.426100 65.258301 480.000000 -0.173295 -0.403397 -0.898465
10.732700 94.566498 469.868011 -0.173295 -0.403397 -0.898465
35.587299 116.828003 455.079010 -0.173295 -0.403397 -0.898465
49.108700 84.232903 450.628998 0.836541 -0.230897 0.496876
26.426100 65.258301 480.000000 0.836541 -0.230897 0.496876
41.876099 58.029202 450.628998 0.836541 -0.230897 0.496876
41.876099 58.029202 450.628998 -0.836541 0.230897 -0.496876
26.426100 65.258301 480.000000 -0.836541 0.230897 -0.496876
49.108700 84.232903 450.628998 -0.836541 0.230897 -0.496876
26.426100 65.258301 480.000000 -0.301821 0.163110 0.939308
10.732700 94.566498 469.868011 -0.301821 0.163110 0.939308
9.991240 57.254200 476.109009 -0.301821 0.163110 0.939308
9.991240 57.254200 476.109009 0.301821 -0.163110 -0.939308
10.732700 94.566498 469.868011 0.301821 -0.163110 -0.939308
26.426100 65.258301 480.000000 0.301821 -0.163110 -0.939308
26.426100 65.258301 480.000000 0.860732 -0.144101 0.488238
26.546801 31.640301 469.864990 0.860732 -0.144101 0.488238
41.876099 58.029202 450.628998 0.860732 -0.144101 0.488238
41.876099 58.029202 450.628998 -0.860732 0.144101 -0.488238
26.546801 31.640301 469.864990 -0.860732 0.144101 -0.488238
26.426100 65.258301 480.000000 -0.860732 0.144101 -0.488238
26.426100 65.258301 480.000000 0.107005 -0.603738 0.789969
9.991240 57.254200 476.109009 0.107005 -0.603738 0.789969
-0.551757 0.898544 434.467010 0.107005 -0.603738 0.789969
-0.551757 0.898544 434.467010 -0.107005 0.603738 -0.789969
9.991240 57.254200 476.109009 -0.107005 0.603738 -0.789969
26.426100 65.258301 480.000000 -0.107005 0.603738 -0.789969
26.546801 31.640301 469.864990 -0.676495 -0.214796 0.704426
26.426100 65.258301 480.000000 -0.676495 -0.214796 0.704426
-0.551757 0.898544 434.467010 -0.676495 -0.214796 0.704426
-0.551757 0.898544 434.467010 0.676495 0.214796 -0.704426
26.426100 65.258301 480.000000 0.676495 0.214796 -0.704426
26.546801 31.640301 469.864990 0.676495 0.214796 -0.704426
-6.451670 52.057899 451.067993 0.572583 -0.131528 0.809227
-17.650499 89.084198 465.010010 0.572583 -0.131528 0.809227
-24.546600 65.935699 466.127014 0.572583 -0.131528 0.809227
-24.546600 65.935699 466.127014 -0.572583 0.131528 -0.809227
-17.650499 89.084198 465.010010 -0.572583 0.131528 -0.809227
-6.451670 52.057899 451.067993 -0.572583 0.131528 -0.809227
-24.546600 65.935699 466.127014 0.742939 0.348733 0.571338
-11.623200 35.348301 467.992004 0.742939 0.348733 0.571338
-6.451670 52.057899 451.067993 0.742939 0.348733 0.571338
-6.451670 52.057899 451.067993 -0.742939 -0.348733 -0.571338
-11.623200 35.348301 467.992004 -0.742939 -0.348733 -0.571338
-24.546600 65.935699 466.127014 -0.742939 -0.348733 -0.571338
-3.815370 80.566704 450.628998 0.703385 -0.054131 0.708745
-17.650499 89.084198 465.010010 0.703385 -0.054131 0.708745
-6.451670 52.057899 451.067993 0.703385 -0.054131 0.708745
-6.451670 52.057899 451.067993 -0.703385 0.054131 -0.708745
-17.650499 89.084198 465.010010 -0.703385 0.054131 -0.708745
-3.815370 80.566704 450.628998 -0.703385 0.054131 -0.708745
-6.451670 52.057899 451.067993 0.955625 0.002592 0.294573
-11.623200 35.348301 467.992004 0.955625 0.002592 0.294573
-1.192520 -0.250105 434.467010 0.955625 0.002592 0.294573
-1.192520 -0.250105 434.467010 -0.955625 -0.002592 -0.294573
-11.623200 35.348301 467.992004 -0.955625 -0.002592 -0.294573
-6.451670 52.057899 451.067993 -0.955625 -0.002592 -0.294573
-3.815370 80.566704 450.628998 -0.754172 0.079778 0.651813
-6.451670 52.057899 451.067993 -0.754172 0.079778 0.651813
4.466280 57.192799 463.071991 -0.754172 0.079778 0.651813
4.466280 57.192799 463.071991 0.754172 -0.079778 -0.651813
-6.451670 52.057899 451.067993 0.754172 -0.079778 -0.651813
-3.815370 80.566704 450.628998 0.754172 -0.079778 -0.651813
-6.451670 52.057899 451.067993 -0.909200 -0.206208 0.361709
-1.192520 -0.250105 434.467010 -0.909200 -0.206208 0.361709
2.651670 35.039001 464.247986 -0.909200 -0.206208 0.361709
2.651670 35.039001 464.247986 0.909200 0.206208 -0.361709
-1.192520 -0.250105 434.467010 0.909200 0.206208 -0.361709
-6.451670 52.057899 451.067993 0.909200 0.206208 -0.361709
4.466280 57.192799 463.071991 -0.756501 0.096302 0.646863
-6.451670 52.057899 451.067993 -0.756501 0.096302 0.646863
2.651670 35.039001 464.247986 -0.756501 0.096302 0.646863
2.651670 35.039001 464.247986 0.756501 -0.096302 -0.646863
-6.451670 52.057899 451.067993 0.756501 -0.096302 -0.646863
4.466280 57.192799 463.071991 0.756501 -0.096302 -0.646863
31.713699 -89.355103 458.703003 0.318557 -0.433461 0.842990
13.059400 -61.646301 480.000000 0.318557 -0.433461 0.842990
6.807430 -114.707001 455.079010 0.318557 -0.433461 0.842990
6.807430 -114.707001 455.079010 -0.318557 0.433461 -0.842990
13.059400 -61.646301 480.000000 -0.318557 0.433461 -0.842990
31.713699 -89.355103 458.703003 -0.318557 0.433461 -0.842990
31.713699 -89.355103 458.703003 0.682354 -0.097468 0.724495
27.214899 -55.906898 467.440002 0.682354 -0.097468 0.724495
13.059400 -61.646301 480.000000 0.682354 -0.097468 0.724495
13.059400 -61.646301 480.000000 -0.682354 0.097468 -0.724495
27.214899 -55.906898 467.440002 -0.682354 0.097468 -0.724495
31.713699 -89.355103 458.703003 -0.682354 0.097468 -0.724495
13.059400 -61.646301 480.000000 -0.622163 -0.271562 0.734280
-10.078300 -88.053299 450.628998 -0.622163 -0.271562 0.734280
6.807430 -114.707001 455.079010 -0.622163 -0.271562 0.734280
6.807430 -114.707001 455.079010 0.622163 0.271562 -0.734280
-10.078300 -88.053299 450.628998 0.622163 0.271562 -0.734280
13.059400 -61.646301 480.000000 0.622163 0.271562 -0.734280
27.214899 -55.906898 467.440002 0.376284 0.605877 0.700945
-1.546420 0.102257 434.467010 0.376284 0.605877 0.700945
13.059400 -61.646301 480.000000 0.376284 0.605877 0.700945
13.059400 -61.646301 480.000000 -0.376284 -0.605877 -0.700945
-1.546420 0.102257 434.467010 -0.376284 -0.605877 -0.700945
27.214899 -55.906898 467.440002 -0.376284 -0.605877 -0.700945
-6.042070 -60.861000 459.326996 -0.732312 -0.106445 0.672599
-10.078300 -88.053299 450.628998 -0.732312 -0.106445 0.672599
13.059400 -61.646301 480.000000 -0.732312 -0.106445 0.672599
13.059400 -61.646301 480.000000 0.732312 0.106445 -0.672599
-10.078300 -88.053299 450.628998 0.732312 0.106445 -0.672599
-6.042070 -60.861000 459.326996 0.732312 0.106445 -0.672599
-1.546420 0.102257 434.467010 0.603241 0.560838 0.567063
-2.488450 -34.675400 469.864990 0.603241 0.560838 0.567063
13.059400 -61.646301 480.000000 0.603241 0.560838 0.567063
13.059400 -61.646301 480.000000 -0.603241 -0.560838 -0.567063
-2.488450 -34.675400 469.864990 -0.603241 -0.560838 -0.567063
-1.546420 0.102257 434.467010 -0.603241 -0.560838 -0.567063
-2.488450 -34.675400 469.864990 -0.727088 -0.169104 0.665392
-6.042070 -60.861000 459.326996 -0.727088 -0.169104 0.665392
13.059400 -61.646301 480.000000 -0.727088 -0.169104 0.665392
13.059400 -61.646301 480.000000 0.727088 0.169104 -0.665392
-6.042070 -60.861000 459.326996 0.727088 0.169104 -0.665392
-2.488450 -34.675400 469.864990 0.727088 0.169104 -0.665392
50.804901 -24.604000 417.472992 0.715987 0.469348 0.516794
47.692600 -37.254501 433.273987 0.715987 0.469348 0.516794
72.773102 -46.473400 406.898987 0.715987 0.469348 0.516794
72.773102 -46.473400 406.898987 -0.715987 -0.469348 -0.516794
47.692600 -37.254501 433.273987 -0.715987 -0.469348 -0.516794
50.804901 -24.604000 417.472992 -0.715987 -0.469348 -0.516794
-2.912840 -0.730542 433.919006 0.470555 0.641270 0.606094
47.692600 -37.254501 433.273987 0.470555 0.641270 0.606094
50.804901 -24.604000 417.472992 0.470555 0.641270 0.606094
50.804901 -24.604000 417.472992 -0.470555 -0.641270 -0.606094
47.692600 -37.254501 433.273987 -0.470555 -0.641270 -0.606094
-2.912840 -0.730542 433.919006 -0.470555 -0.641270 -0.606094
47.692600 -37.254501 433.273987 0.737901 0.096403 0.667988
71.242996 -79.994797 413.427002 0.737901 0.096403 0.667988
72.773102 -46.473400 406.898987 0.737901 0.096403 0.667988
72.773102 -46.473400 406.898987 -0.737901 -0.096403 -0.667988
71.242996 -79.994797 413.427002 -0.737901 -0.096403 -0.667988
47.692600 -37.254501 433.273987 -0.737901 -0.096403 -0.667988
47.692600 -37.254501 433.273987 -0.009922 -0.031398 0.999458
-2.912840 -0.730542 433.919006 -0.009922 -0.031398 0.999458
18.356899 -26.805700 433.311005 -0.009922 -0.031398 0.999458
18.356899 -26.805700 433.311005 0.009922 0.031398 -0.999458
-2.912840 -0.730542 433.919006 0.009922 0.031398 -0.999458
47.692600 -37.254501 433.273987 0.009922 0.031398 -0.999458
71.242996 -79.994797 413.427002 0.147979 -0.348291 0.925633
47.692600 -37.254501 433.273987 0.147979 -0.348291 0.925633
43.235100 -70.553703 421.457001 0.147979 -0.348291 0.925633
43.235100 -70.553703 421.457001 -0.147979 0.348291 -0.925633
47.692600 -37.254501 433.273987 -0.147979 0.348291 -0.925633
71.242996 -79.994797 413.427002 -0.147979 0.348291 -0.925633
47.692600 -37.254501 433.273987 -0.114262 -0.324125 0.939089
18.356899 -26.805700 433.311005 -0.114262 -0.324125 0.939089
30.678499 -48.165298 427.437988 -0.114262 -0.324125 0.939089
30.678499 -48.165298 427.437988 0.114262 0.324125 -0.939089
18.356899 -26.805700 433.311005 0.114262 0.324125 -0.939089
47.692600 -37.254501 433.273987 0.114262 0.324125 -0.939089
47.692600 -37.254501 433.273987 -0.118782 -0.317911 0.940650
30.678499 -48.165298 427.437988 -0.118782 -0.317911 0.940650
43.235100 -70.553703 421.457001 -0.118782 -0.317911 0.940650
43.235100 -70.553703 421.457001 0.118782 0.317911 -0.940650
30.678499 -48.165298 427.437988 0.118782 0.317911 -0.940650
47.692600 -37.254501 433.273987 0.118782 0.317911 -0.940650
96.002296 40.337299 388.450989 0.629771 0.149894 0.762181
70.584999 51.242500 407.308014 0.629771 0.149894 0.762181
55.437500 25.309999 424.924011 0.629771 0.149894 0.762181
55.437500 25.309999 424.924011 -0.629771 -0.149894 -0.762181
70.584999 51.242500 407.308014 -0.629771 -0.149894 -0.762181
96.002296 40.337299 388.450989 -0.629771 -0.149894 -0.762181
70.584999 51.242500 407.308014 0.334022 0.388318 0.858859
43.273800 38.792000 423.558990 0.334022 0.388318 0.858859
55.437500 25.309999 424.924011 0.334022 0.388318 0.858859
55.437500 25.309999 424.924011 -0.334022 -0.388318 -0.858859
43.273800 38.792000 423.558990 -0.334022 -0.388318 -0.858859
70.584999 51.242500 407.308014 -0.334022 -0.388318 -0.858859
96.002296 40.337299 388.450989 0.645168 -0.603110 0.469059
55.437500 25.309999 424.924011 0.645168 -0.603110 0.469059
78.028801 19.365200 386.207001 0.645168 -0.603110 0.469059
78.028801 19.365200 386.207001 -0.645168 0.603110 -0.469059
55.437500 25.309999 424.924011 -0.645168 0.603110 -0.469059
96.002296 40.337299 388.450989 -0.645168 0.603110 -0.469059
55.437500 25.309999 424.924011 0.057976 0.152203 0.986647
43.273800 38.792000 423.558990 0.057976 0.152203 0.986647
-4.138580 0.908413 432.188995 0.057976 0.152203 0.986647
-4.138580 0.908413 432.188995 -0.057976 -0.152203 -0.986647
43.273800 38.792000 423.558990 -0.057976 -0.152203 -0.986647
55.437500 25.309999 424.924011 -0.057976 -0.152203 -0.986647
55.437500 25.309999 424.924011 0.591848 -0.669944 0.448209
56.666302 8.705900 398.483002 0.591848 -0.669944 0.448209
78.028801 19.365200 386.207001 0.591848 -0.669944 0.448209
78.028801 19.365200 386.207001 -0.591848 0.669944 -0.448209
56.666302 8.705900 398.483002 -0.591848 0.669944 -0.448209
55.437500 25.309999 424.924011 -0.591848 0.669944 -0.448209
-4.138580 0.908413 432.188995 0.354401 -0.671523 0.650736
31.096001 5.419600 417.654999 0.354401 -0.671523 0.650736
55.437500 25.309999 424.924011 0.354401 -0.671523 0.650736
55.437500 25.309999 424.924011 -0.354401 0.671523 -0.650736
31.096001 5.419600 417.654999 -0.354401 0.671523 -0.650736
-4.138580 0.908413 432.188995 -0.354401 0.671523 -0.650736
55.437500 25.309999 424.924011 0.460684 -0.741850 0.487267
31.096001 5.419600 417.654999 0.460684 -0.741850 0.487267
56.666302 8.705900 398.483002 0.460684 -0.741850 0.487267
56.666302 8.705900 398.483002 -0.460684 0.741850 -0.487267
31.096001 5.419600 417.654999 -0.460684 0.741850 -0.487267
55.437500 25.309999 424.924011 -0.460684 0.741850 -0.487267
-52.777500 46.590500 432.123993 -0.265816 0.461284 0.846498
-58.169800 74.206299 415.381989 -0.265816 0.461284 0.846498
-92.035301 73.036598 405.385010 -0.265816 0.461284 0.846498
-92.035301 73.036598 405.385010 0.265816 -0.461284 -0.846498
-58.169800 74.206299 415.381989 0.265816 -0.461284 -0.846498
-52.777500 46.590500 432.123993 0.265816 -0.461284 -0.846498
-52.777500 46.590500 432.123993 -0.669013 -0.310219 0.675415
-92.035301 73.036598 405.385010 -0.669013 -0.310219 0.675415
-79.238197 42.758400 404.153992 -0.669013 -0.310219 0.675415
-79.238197 42.758400 404.153992 0.669013 0.310219 -0.675415
-92.035301 73.036598 405.385010 0.669013 0.310219 -0.675415
-52.777500 46.590500 432.123993 0.669013 0.310219 -0.675415
-37.872002 58.517899 424.302002 0.029226 0.522364 0.852222
-58.169800 74.206299 415.381989 0.029226 0.522364 0.852222
-52.777500 46.590500 432.123993 0.029226 0.522364 0.852222
-52.777500 46.590500 432.123993 -0.029226 -0.522364 -0.852222
-58.169800 74.206299 415.381989 -0.029226 -0.522364 -0.852222
-37.872002 58.517899 424.302002 -0.029226 -0.522364 -0.852222
-52.777500 46.590500 432.123993 -0.527933 -0.616689 0.583936
-79.238197 42.758400 404.153992 -0.527933 -0.616689 0.583936
-47.306900 29.143200 418.644012 -0.527933 -0.616689 0.583936
-47.306900 29.143200 418.644012 0.527933 0.616689 -0.583936
-79.238197 42.758400 404.153992 0.527933 0.616689 -0.583936
-52.777500 46.590500 432.123993 0.527933 0.616689 -0.583936
-19.979900 35.373901 431.782013 0.148274 0.406063 0.901736
-37.872002 58.517899 424.302002 0.148274 0.406063 0.901736
-52.777500 46.590500 432.123993 0.148274 0.406063 0.901736
-52.777500 46.590500 432.123993 -0.148274 -0.406063 -0.901736
-37.872002 58.517899 424.302002 -0.148274 -0.406063 -0.901736
-19.979900 35.373901 431.782013 -0.148274 -0.406063 -0.901736
-52.777500 46.590500 432.123993 -0.511886 -0.619951 0.594671
-47.306900 29.143200 418.644012 -0.511886 -0.619951 0.594671
0.488826 0.200543 429.613007 -0.511886 -0.619951 0.594671
0.488826 0.200543 429.613007 0.511886 0.619951 -0.594671
-47.306900 29.143200 418.644012 0.511886 0.619951 -0.594671
-52.777500 46.590500 432.123993 0.511886 0.619951 -0.594671
0.488826 0.200543 429.613007 -0.013279 -0.069240 0.997512
-19.979900 35.373901 431.782013 -0.013279 -0.069240 0.997512
-52.777500 46.590500 432.123993 -0.013279 -0.069240 0.997512
-52.777500 46.590500 432.123993 0.013279 0.069240 -0.997512
-19.979900 35.373901 431.782013 0.013279 0.069240 -0.997512
0.488826 0.200543 429.613007 0.013279 0.069240 -0.997512
-60.975899 14.654800 407.007996 -0.693458 -0.415713 0.588472
-93.164597 14.481100 368.954010 -0.693458 -0.415713 0.588472
-71.253403 -3.348420 382.178986 -0.693458 -0.415713 0.588472
-71.253403 -3.348420 382.178986 0.693458 0.415713 -0.588472
-93.164597 14.481100 368.954010 0.693458 0.415713 -0.588472
-60.975899 14.654800 407.007996 0.693458 0.415713 -0.588472
-38.640099 0.378475 408.653992 -0.447161 -0.625931 0.638950
-60.975899 14.654800 407.007996 -0.447161 -0.625931 0.638950
-71.253403 -3.348420 382.178986 -0.447161 -0.625931 0.638950
-71.253403 -3.348420 382.178986 0.447161 0.625931 -0.638950
-60.975899 14.654800 407.007996 0.447161 0.625931 -0.638950
-38.640099 0.378475 408.653992 0.447161 0.625931 -0.638950
-76.600304 27.227301 373.519989 -0.608113 0.607000 0.511614
-93.164597 14.481100 368.954010 -0.608113 0.607000 0.511614
-60.975899 14.654800 407.007996 -0.608113 0.607000 0.511614
-60.975899 14.654800 407.007996 0.608113 -0.607000 -0.511614
-93.164597 14.481100 368.954010 0.608113 -0.607000 -0.511614
-76.600304 27.227301 373.519989 0.608113 -0.607000 -0.511614
3.735350 -1.859760 431.316986 -0.412666 -0.563079 0.715995
-60.975899 14.654800 407.007996 -0.412666 -0.563079 0.715995
-38.640099 0.378475 408.653992 -0.412666 -0.563079 0.715995
-38.640099 0.378475 408.653992 0.412666 0.563079 -0.715995
-60.975899 14.654800 407.007996 0.412666 0.563079 -0.715995
3.735350 -1.859760 431.316986 0.412666 0.563079 -0.715995
-60.975899 14.654800 407.007996 -0.428780 0.761564 0.485971
-52.285801 28.159000 393.513000 -0.428780 0.761564 0.485971
-76.600304 27.227301 373.519989 -0.428780 0.761564 0.485971
-76.600304 27.227301 373.519989 0.428780 -0.761564 -0.485971
-52.285801 28.159000 393.513000 0.428780 -0.761564 -0.485971
-60.975899 14.654800 407.007996 0.428780 -0.761564 -0.485971
3.735350 -1.859760 431.316986 -0.171275 0.540944 0.823434
-32.922100 17.422501 411.024994 -0.171275 0.540944 0.823434
-60.975899 14.654800 407.007996 -0.171275 0.540944 0.823434
-60.975899 14.654800 407.007996 0.171275 -0.540944 -0.823434
-32.922100 17.422501 411.024994 0.171275 -0.540944 -0.823434
3.735350 -1.859760 431.316986 0.171275 -0.540944 -0.823434
-32.922100 17.422501 411.024994 -0.165789 0.748419 0.642170
-52.285801 28.159000 393.513000 -0.165789 0.748419 0.642170
-60.975899 14.654800 407.007996 -0.165789 0.748419 0.642170
-60.975899 14.654800 407.007996 0.165789 -0.748419 -0.642170
-52.285801 28.159000 393.513000 0.165789 -0.748419 -0.642170
-32.922100 17.422501 411.024994 0.165789 -0.748419 -0.642170
-44.222599 -50.208302 420.093994 -0.891536 0.079708 0.445881
-62.271400 -65.292198 386.701996 -0.891536 0.079708 0.445881
-62.301201 -94.182602 391.807007 -0.891536 0.079708 0.445881
-62.301201 -94.182602 391.807007 0.891536 -0.079708 -0.445881
-62.271400 -65.292198 386.701996 0.891536 -0.079708 -0.445881
-44.222599 -50.208302 420.093994 0.891536 -0.079708 -0.445881
-33.195499 -78.376701 409.858002 -0.297766 -0.426858 0.853890
-44.222599 -50.208302 420.093994 -0.297766 -0.426858 0.853890
-62.301201 -94.182602 391.807007 -0.297766 -0.426858 0.853890
-62.301201 -94.182602 391.807007 0.297766 0.426858 -0.853890
-44.222599 -50.208302 420.093994 0.297766 0.426858 -0.853890
-33.195499 -78.376701 409.858002 0.297766 0.426858 -0.853890
-50.547401 -37.900002 398.039001 -0.896051 0.225157 0.382619
-62.271400 -65.292198 386.701996 -0.896051 0.225157 0.382619
-44.222599 -50.208302 420.093994 -0.896051 0.225157 0.382619
-44.222599 -50.208302 420.093994 0.896051 -0.225157 -0.382619
-62.271400 -65.292198 386.701996 0.896051 -0.225157 -0.382619
-50.547401 -37.900002 398.039001 0.896051 -0.225157 -0.382619
-16.933901 -40.613800 425.570007 -0.059630 -0.361465 0.930477
-44.222599 -50.208302 420.093994 -0.059630 -0.361465 0.930477
-33.195499 -78.376701 409.858002 -0.059630 -0.361465 0.930477
-33.195499 -78.376701 409.858002 0.059630 0.361465 -0.930477
-44.222599 -50.208302 420.093994 0.059630 0.361465 -0.930477
-16.933901 -40.613800 425.570007 0.059630 0.361465 -0.930477
-31.260900 -23.741699 414.798004 -0.750195 0.462045 0.472992
-50.547401 -37.900002 398.039001 -0.750195 0.462045 0.472992
-44.222599 -50.208302 420.093994 -0.750195 0.462045 0.472992
-44.222599 -50.208302 420.093994 0.750195 -0.462045 -0.472992
-50.547401 -37.900002 398.039001 0.750195 -0.462045 -0.472992
-31.260900 -23.741699 414.798004 0.750195 -0.462045 -0.472992
2.024080 -1.434460 431.697998 -0.172472 -0.070218 0.982508
-44.222599 -50.208302 420.093994 -0.172472 -0.070218 0.982508
-16.933901 -40.613800 425.570007 -0.172472 -0.070218 0.982508
-16.933901 -40.613800 425.570007 0.172472 0.070218 -0.982508
-44.222599 -50.208302 420.093994 0.172472 0.070218 -0.982508
2.024080 -1.434460 431.697998 0.172472 0.070218 -0.982508
2.024080 -1.434460 431.697998 -0.622053 0.434923 0.651071
-31.260900 -23.741699 414.798004 -0.622053 0.434923 0.651071
-44.222599 -50.208302 420.093994 -0.622053 0.434923 0.651071
-44.222599 -50.208302 420.093994 0.622053 -0.434923 -0.651071
-31.260900 -23.741699 414.798004 0.622053 -0.434923 -0.651071
2.024080 -1.434460 431.697998 0.622053 -0.434923 -0.651071
-0.604020 12.473600 0.000009 0.000000 0.000000 -1.000000
-0.603926 -14.371400 0.000009 0.000000 0.000000 -1.000000
-14.026500 -0.948923 0.000009 0.000000 0.000000 -1.000000
12.818600 -0.948914 0.000009 -0.000000 -0.000000 -1.000000
12.818600 -0.948914 0.000009 -0.000000 -0.000000 1.000000
-0.604020 12.473600 0.000009 -0.000000 -0.000000 1.000000
-0.603926 -14.371400 0.000009 -0.000000 -0.000000 1.000000
-14.026500 -0.948923 0.000009 0.000000 0.000000 1.000000
5.597560 -0.949169 96.530899 0.706119 -0.706121 0.052820
-0.603926 -14.371400 0.000009 0.706119 -0.706121 0.052820
12.818600 -0.948914 0.000009 0.706119 -0.706121 0.052820
-0.603926 -14.371400 0.000009 0.706111 -0.706128 0.052821
5.597560 -0.949169 96.530899 0.706111 -0.706128 0.052821
-0.604001 -7.150580 96.530899 0.706111 -0.706128 0.052821
-0.604001 -7.150580 96.530899 -0.706111 0.706128 -0.052821
5.597560 -0.949169 96.530899 -0.706111 0.706128 -0.052821
-0.603926 -14.371400 0.000009 -0.706111 0.706128 -0.052821
12.818600 -0.948914 0.000009 -0.706119 0.706121 -0.052820
-0.603926 -14.371400 0.000009 -0.706119 0.706121 -0.052820
5.597560 -0.949169 96.530899 -0.706119 0.706121 -0.052820
-0.604001 -7.150580 96.530899 -0.706117 -0.706122 0.052820
-14.026500 -0.948923 0.000009 -0.706117 -0.706122 0.052820
-0.603926 -14.371400 0.000009 -0.706117 -0.706122 0.052820
-14.026500 -0.948923 0.000009 -0.706120 -0.706120 0.052820
-0.604001 -7.150580 96.530899 -0.706120 -0.706120 0.052820
-6.805530 -0.949051 96.530899 -0.706120 -0.706120 0.052820
-6.805530 -0.949051 96.530899 0.706120 0.706120 -0.052820
-0.604001 -7.150580 96.530899 0.706120 0.706120 -0.052820
-14.026500 -0.948923 0.000009 0.706120 0.706120 -0.052820
-0.603926 -14.371400 0.000009 0.706117 0.706122 -0.052820
-14.026500 -0.948923 0.000009 0.706117 0.706122 -0.052820
-0.604001 -7.150580 96.530899 0.706117 0.706122 -0.052820
-6.805530 -0.949051 96.530899 -0.706121 0.706118 0.052822
-0.604020 12.473600 0.000009 -0.706121 0.706118 0.052822
-14.026500 -0.948923 0.000009 -0.706121 0.706118 0.052822
-0.604020 12.473600 0.000009 -0.706119 0.706120 0.052822
-6.805530 -0.949051 96.530899 -0.706119 0.706120 0.052822
-0.604000 5.252470 96.530899 -0.706119 0.706120 0.052822
-0.604000 5.252470 96.530899 0.706119 -0.706120 -0.052822
-6.805530 -0.949051 96.530899 0.706119 -0.706120 -0.052822
-0.604020 12.473600 0.000009 0.706119 -0.706120 -0.052822
-14.026500 -0.948923 0.000009 0.706121 -0.706118 -0.052822
-0.604020 12.473600 0.000009 0.706121 -0.706118 -0.052822
-6.805530 -0.949051 96.530899 0.706121 -0.706118 -0.052822
12.818600 -0.948914 0.000009 0.706124 0.706115 0.052824
-0.604000 5.252470 96.530899 0.706124 0.706115 0.052824
5.597560 -0.949169 96.530899 0.706124 0.706115 0.052824
-0.604000 5.252470 96.530899 0.706117 0.706122 0.052822
12.818600 -0.948914 0.000009 0.706117 0.706122 0.052822
-0.604020 12.473600 0.000009 0.706117 0.706122 0.052822
-0.604020 12.473600 0.000009 -0.706117 -0.706122 -0.052822
12.818600 -0.948914 0.000009 -0.706117 -0.706122 -0.052822
-0.604000 5.252470 96.530899 -0.706117 -0.706122 -0.052822
5.597560 -0.949169 96.530899 -0.706124 -0.706115 -0.052824
-0.604000 5.252470 96.530899 -0.706124 -0.706115 -0.052824
12.818600 -0.948914 0.000009 -0.706124 -0.706115 -0.052824
5.597560 -0.949169 96.530899 0.707081 -0.707098 0.007026
-0.603948 -5.641550 248.391998 0.707081 -0.707098 0.007026
-0.604001 -7.150580 96.530899 0.707081 -0.707098 0.007026
-0.603948 -5.641550 248.391998 0.707090 -0.707088 0.007027
5.597560 -0.949169 96.530899 0.707090 -0.707088 0.007027
4.088620 -0.948968 248.391998 0.707090 -0.707088 0.007027
4.088620 -0.948968 248.391998 -0.707090 0.707088 -0.007027
5.597560 -0.949169 96.530899 -0.707090 0.707088 -0.007027
-0.603948 -5.641550 248.391998 -0.707090 0.707088 -0.007027
-0.604001 -7.150580 96.530899 -0.707081 0.707098 -0.007026
-0.603948 -5.641550 248.391998 -0.707081 0.707098 -0.007026
5.597560 -0.949169 96.530899 -0.707081 0.707098 -0.007026
-0.603948 -5.641550 248.391998 -0.707089 -0.707089 0.007027
-6.805530 -0.949051 96.530899 -0.707089 -0.707089 0.007027
-0.604001 -7.150580 96.530899 -0.707089 -0.707089 0.007027
-6.805530 -0.949051 96.530899 -0.707088 -0.707091 0.007026
-0.603948 -5.641550 248.391998 -0.707088 -0.707091 0.007026
-5.296530 -0.948986 248.391998 -0.707088 -0.707091 0.007026
-5.296530 -0.948986 248.391998 0.707088 0.707091 -0.007026
-0.603948 -5.641550 248.391998 0.707088 0.707091 -0.007026
-6.805530 -0.949051 96.530899 0.707088 0.707091 -0.007026
-0.604001 -7.150580 96.530899 0.707089 0.707089 -0.007027
-6.805530 -0.949051 96.530899 0.707089 0.707089 -0.007027
-0.603948 -5.641550 248.391998 0.707089 0.707089 -0.007027
-5.296530 -0.948986 248.391998 -0.707089 0.707090 0.007026
-0.604000 5.252470 96.530899 -0.707089 0.707090 0.007026
-6.805530 -0.949051 96.530899 -0.707089 0.707090 0.007026
-0.604000 5.252470 96.530899 -0.707091 0.707088 0.007026
-5.296530 -0.948986 248.391998 -0.707091 0.707088 0.007026
-0.603966 3.743600 248.391998 -0.707091 0.707088 0.007026
-0.603966 3.743600 248.391998 0.707091 -0.707088 -0.007026
-5.296530 -0.948986 248.391998 0.707091 -0.707088 -0.007026
-0.604000 5.252470 96.530899 0.707091 -0.707088 -0.007026
-6.805530 -0.949051 96.530899 0.707089 -0.707090 -0.007026
-0.604000 5.252470 96.530899 0.707089 -0.707090 -0.007026
-5.296530 -0.948986 248.391998 0.707089 -0.707090 -0.007026
-0.603966 3.743600 248.391998 0.707094 0.707085 0.007025
5.597560 -0.949169 96.530899 0.707094 0.707085 0.007025
-0.604000 5.252470 96.530899 0.707094 0.707085 0.007025
5.597560 -0.949169 96.530899 0.707088 0.707091 0.007025
-0.603966 3.743600 248.391998 0.707088 0.707091 0.007025
4.088620 -0.948968 248.391998 0.707088 0.707091 0.007025
4.088620 -0.948968 248.391998 -0.707088 -0.707091 -0.007025
-0.603966 3.743600 248.391998 -0.707088 -0.707091 -0.007025
5.597560 -0.949169 96.530899 -0.707088 -0.707091 -0.007025
-0.604000 5.252470 96.530899 -0.707094 -0.707085 -0.007025
5.597560 -0.949169 96.530899 -0.707094 -0.707085 -0.007025
-0.603966 3.743600 248.391998 -0.707094 -0.707085 -0.007025
4.088620 -0.948968 248.391998 0.707106 -0.707104 0.001931
3.339860 -1.149760 449.046997 0.707106 -0.707104 0.001931
-0.603948 -5.641550 248.391998 0.707106 -0.707104 0.001931
-0.603948 -5.641550 248.391998 -0.707106 0.707104 -0.001931
3.339860 -1.149760 449.046997 -0.707106 0.707104 -0.001931
4.088620 -0.948968 248.391998 -0.707106 0.707104 -0.001931
-0.603930 -4.691690 449.046997 -0.707102 -0.707104 0.003347
-5.296530 -0.948986 248.391998 -0.707102 -0.707104 0.003347
-0.603948 -5.641550 248.391998 -0.707102 -0.707104 0.003347
-5.296530 -0.948986 248.391998 -0.707106 -0.707100 0.003348
-0.603930 -4.691690 449.046997 -0.707106 -0.707100 0.003348
-4.346700 -0.948888 449.046997 -0.707106 -0.707100 0.003348
-4.346700 -0.948888 449.046997 0.707106 0.707100 -0.003348
-0.603930 -4.691690 449.046997 0.707106 0.707100 -0.003348
-5.296530 -0.948986 248.391998 0.707106 0.707100 -0.003348
-0.603948 -5.641550 248.391998 0.707102 0.707104 -0.003347
-5.296530 -0.948986 248.391998 0.707102 0.707104 -0.003347
-0.603930 -4.691690 449.046997 0.707102 0.707104 -0.003347
-4.346700 -0.948888 449.046997 -0.707104 0.707101 0.003347
-0.603966 3.743600 248.391998 -0.707104 0.707101 0.003347
-5.296530 -0.948986 248.391998 -0.707104 0.707101 0.003347
-0.603966 3.743600 248.391998 -0.707114 0.707092 0.003346
-4.346700 -0.948888 449.046997 -0.707114 0.707092 0.003346
-0.603931 2.794000 449.046997 -0.707114 0.707092 0.003346
-0.603931 2.794000 449.046997 0.707114 -0.707092 -0.003346
-4.346700 -0.948888 449.046997 0.707114 -0.707092 -0.003346
-0.603966 3.743600 248.391998 0.707114 -0.707092 -0.003346
-5.296530 -0.948986 248.391998 0.707104 -0.707101 -0.003347
-0.603966 3.743600 248.391998 0.707104 -0.707101 -0.003347
-4.346700 -0.948888 449.046997 0.707104 -0.707101 -0.003347
-0.603931 2.794000 449.046997 0.707101 0.707104 0.003346
4.088620 -0.948968 248.391998 0.707101 0.707104 0.003346
-0.603966 3.743600 248.391998 0.707101 0.707104 0.003346
4.088620 -0.948968 248.391998 0.707100 0.707106 0.003346
-0.603931 2.794000 449.046997 0.707100 0.707106 0.003346
3.339860 -1.149760 449.046997 0.707100 0.707106 0.003346
3.339860 -1.149760 449.046997 -0.707100 -0.707106 -0.003346
-0.603931 2.794000 449.046997 -0.707100 -0.707106 -0.003346
4.088620 -0.948968 248.391998 -0.707100 -0.707106 -0.003346
-0.603966 3.743600 248.391998 -0.707101 -0.707104 -0.003346
4.088620 -0.948968 248.391998 -0.707101 -0.707104 -0.003346
-0.603931 2.794000 449.046997 -0.707101 -0.707104 -0.003346
-0.603930 -4.691690 449.046997 0.668180 -0.743991 0.003522
-0.603948 -5.641550 248.391998 0.668180 -0.743991 0.003522
3.339860 -1.149760 449.046997 0.668180 -0.743991 0.003522
3.339860 -1.149760 449.046997 -0.668180 0.743991 -0.003522
-0.603948 -5.641550 248.391998 -0.668180 0.743991 -0.003522
-0.603930 -4.691690 449.046997 -0.668180 0.743991 -0.003522
-0.603930 -4.691690 449.046997 -0.000000 0.000000 1.000000
-0.603931 2.794000 449.046997 -0.000000 0.000000 1.000000
-4.346700 -0.948888 449.046997 -0.000000 0.000000 1.000000
3.339860 -1.149760 449.046997 0.000000 0.000000 1.000000
3.339860 -1.149760 449.046997 0.000000 0.000000 -1.000000
-0.603930 -4.691690 449.046997 0.000000 0.000000 -1.000000
-0.603931 2.794000 449.046997 0.000000 0.000000 -1.000000
-4.346700 -0.948888 449.046997 -0.000000 0.000000 -1.000000
3 0 1 2
3 3 4 5
3 6 7 8
3 9 10 11
3 12 13 14
3 15 16 17
3 18 19 20
3 21 22 23
3 24 25 26
3 27 28 29
3 30 31 32
3 33 34 35
3 36 37 38
3 39 40 41
3 42 43 44
3 45 46 47
3 48 49 50
3 51 52 53
3 54 55 56
3 57 58 59
3 60 61 62
3 63 64 65
3 66 67 68
3 69 70 71
3 72 73 74
3 75 76 77
3 78 79 80
3 81 82 83
3 84 85 86
3 87 88 89
3 90 91 92
3 93 94 95
3 96 97 98
3 99 100 101
3 102 103 104
3 105 106 107
3 108 109 110
3 111 112 113
3 114 115 116
3 117 118 119
3 120 121 122
3 123 124 125
3 126 127 128
3 129 130 131
3 132 133 134
3 135 136 137
3 138 139 140
3 141 142 143
3 144 145 146
3 147 148 149
3 150 151 152
3 153 154 155
3 156 157 158
3 159 160 161
3 162 163 164
3 165 166 167
3 168 169 170
3 171 172 173
3 174 175 176
3 177 178 179
3 180 181 182
3 183 184 185
3 186 187 188
3 189 190 191
3 192 193 194
3 195 196 197
3 198 199 200
3 201 202 203
3 204 205 206
3 207 208 209
3 210 211 212
3 213 214 215
3 216 217 218
3 219 220 221
3 222 223 224
3 225 226 227
3 228 229 230
3 231 232 233
3 234 235 236
3 237 238 239
3 240 241 242
3 243 244 245
3 246 247 248
3 249 250 251
3 252 253 254
3 255 256 257
3 258 259 260
3 261 262 263
3 264 265 266
3 267 268 269
3 270 271 272
3 273 274 275
3 276 277 278
3 279 280 281
3 282 283 284
3 285 286 287
3 288 289 290
3 291 292 293
3 294 295 296
3 297 298 299
3 300 301 302
3 303 304 305
3 306 307 308
3 309 310 311
3 312 313 314
3 315 316 317
3 318 319 320
3 321 322 323
3 324 325 326
3 327 328 329
3 330 331 332
3 333 334 335
3 336 337 338
3 339 340 341
3 342 343 344
3 345 346 347
3 348 349 350
3 351 352 353
3 354 355 356
3 357 358 359
3 360 361 362
3 363 364 365
3 366 367 368
3 369 370 371
3 372 373 374
3 375 376 377
3 378 379 380
3 381 382 383
3 384 385 386
3 387 388 389
3 390 391 392
3 393 394 395
3 396 397 398
3 399 400 401
3 402 403 404
3 405 406 407
3 408 409 410
3 411 412 413
3 414 415 416
3 417 418 419
3 420 421 422
3 421 420 423
3 424 425 426
3 427 426 425
3 428 429 430
3 431 432 433
3 434 435 436
3 437 438 439
3 440 441 442
3 443 444 445
3 446 447 448
3 449 450 451
3 452 453 454
3 455 456 457
3 458 459 460
3 461 462 463
3 464 465 466
3 467 468 469
3 470 471 472
3 473 474 475
3 476 477 478
3 479 480 481
3 482 483 484
3 485 486 487
3 488 489 490
3 491 492 493
3 494 495 496
3 497 498 499
3 500 501 502
3 503 504 505
3 506 507 508
3 509 510 511
3 512 513 514
3 515 516 517
3 518 519 520
3 521 522 523
3 524 525 526
3 527 528 529
3 530 531 532
3 533 534 535
3 536 537 538
3 539 540 541
3 542 543 544
3 545 546 547
3 548 549 550
3 551 552 553
3 554 555 556
3 557 558 559
3 560 561 562
3 563 564 565
3 566 567 568
3 569 570 571
3 572 573 574
3 573 572 575
3 576 577 578
3 579 578 577
