ply
format ascii 1.0
comment Created by Blender 2.60 (sub 0) - www.blender.org, source file: 'chassis.blend'
element vertex 832
property float x
property float y
property float z
element face 456
property list uchar uint vertex_indices
end_header
-1.823518 -1.813951 -2.344399
-1.823518 -1.315360 -2.344399
-0.910145 -1.315360 -2.344399
-0.910145 -1.813951 -2.344399
-0.910145 -1.873811 -1.193464
-0.910145 -1.315360 -1.719957
0.003228 -1.315360 -1.719957
0.003228 -1.873811 -1.193464
0.916602 -1.315360 -1.719957
0.916602 -1.873811 -1.193464
0.916602 -1.813951 -2.344399
0.916602 -1.315360 -2.344399
1.829975 -1.315360 -2.344399
1.829975 -1.813951 -2.344399
-1.823518 -0.401062 -2.344399
-0.910145 -0.401062 -2.344399
-0.910145 -1.315360 -1.719957
-0.910145 -0.401062 -1.719957
0.003228 -0.401062 -1.719957
0.003228 -1.315360 -1.719957
0.916602 -0.401062 -1.719957
0.916602 -1.315360 -1.719957
0.916602 -0.401062 -2.344399
1.829975 -0.401062 -2.344399
-1.823518 0.513235 -2.344399
-0.910145 0.513235 -2.344399
-0.910145 0.513235 -1.719957
0.003228 0.513235 -1.719957
0.916602 0.513235 -1.719957
0.916602 0.513235 -2.344399
1.829975 0.513235 -2.344399
-1.823518 1.427532 -2.344399
-0.910145 1.427533 -2.344399
-0.910145 1.427533 -1.719957
0.003228 1.427532 -1.719957
0.916602 1.427533 -1.719957
0.916602 1.427532 -2.344399
1.829975 1.427533 -2.344399
-1.823518 2.001844 -2.344399
-0.910145 2.001844 -2.344399
-0.910145 1.427533 -1.719957
-0.910145 2.056574 -1.292348
0.003228 2.056574 -1.292348
0.003228 2.056574 -1.292348
0.003228 1.427532 -1.719957
-0.910145 1.427533 -1.719957
0.916602 2.056574 -1.292348
0.916602 2.056574 -1.292348
0.916602 1.427533 -1.719957
0.003228 1.427532 -1.719957
0.916602 2.001844 -2.344399
1.829975 2.001844 -2.344399
-1.823518 -2.254925 -0.288864
-0.910145 -2.254925 -0.288864
-0.910145 -1.320642 -0.124963
-1.823518 -1.320642 -0.124963
-0.910145 -2.254925 -0.288864
0.003228 -2.254795 -0.288810
0.003228 -1.320642 -0.124963
0.003228 -1.320642 -0.124963
-0.910145 -1.320642 -0.124963
-0.910145 -2.254925 -0.288864
0.003228 -2.254795 -0.288810
0.916602 -2.254925 -0.288864
0.916602 -1.320642 -0.124963
0.916602 -1.320642 -0.124963
0.003228 -1.320642 -0.124963
0.003228 -2.254795 -0.288810
0.916602 -2.254925 -0.288864
1.829975 -2.254925 -0.288864
1.829975 -1.320641 -0.124963
0.916602 -1.320642 -0.124963
-1.823518 -1.320642 -0.124963
-0.910145 -1.320642 -0.124963
-0.910145 -0.400923 -0.128799
-1.823518 -0.400923 -0.128799
0.003228 -1.320642 -0.124963
0.003228 -0.400923 -0.128799
0.916602 -1.320642 -0.124963
0.916602 -0.400923 -0.128799
1.829975 -1.320641 -0.124963
1.829975 -0.400923 -0.128799
-1.823518 -0.400923 -0.128799
-0.910145 -0.400923 -0.128799
-0.910145 0.513235 -0.128799
-1.823518 0.513235 -0.128799
0.003228 -0.400923 -0.128799
0.003228 0.513235 -0.128799
0.916602 -0.400923 -0.128799
0.916602 0.513235 -0.128799
1.829975 -0.400923 -0.128799
1.829975 0.513235 -0.128799
-1.823518 0.513235 -0.128799
-0.910145 0.513235 -0.128799
-0.910145 1.431664 -0.128935
-1.823518 1.431664 -0.128935
0.003228 0.513235 -0.128799
0.003228 1.431664 -0.128935
0.916602 0.513235 -0.128799
0.916602 1.431664 -0.128935
1.829975 0.513235 -0.128799
1.829975 1.431664 -0.128935
-1.823518 1.431664 -0.128935
-0.910145 1.431664 -0.128935
-0.910145 2.371047 -0.256693
-1.823518 2.371047 -0.256693
0.003228 1.431664 -0.128935
0.003228 2.371048 -0.256693
0.916602 1.431664 -0.128935
0.916602 2.371047 -0.256693
1.829975 1.431664 -0.128935
1.829975 2.371047 -0.256693
-1.823518 -2.710966 -1.719957
-0.910145 -2.710966 -1.719957
-0.910145 -2.808696 -1.347353
-0.910145 -2.808696 -1.347353
-1.823518 -2.808696 -1.347353
-1.823518 -2.710966 -1.719957
-0.910145 -1.873811 -1.193464
0.003228 -1.873811 -1.193464
0.003228 -2.229657 -0.925069
-0.910145 -2.229657 -0.925069
0.916602 -1.873811 -1.193464
0.916602 -2.229657 -0.925069
0.916602 -2.710966 -1.719957
1.829975 -2.710966 -1.719957
1.829975 -2.808696 -1.347353
0.916602 -2.808696 -1.347353
-1.823518 -2.904095 -1.320675
-0.910145 -2.904095 -1.320675
-0.910145 -2.857532 -0.940254
-1.823518 -2.857532 -0.940254
-0.910145 -2.229657 -0.925069
0.003228 -2.229657 -0.925069
0.003228 -2.635557 -0.708671
0.003228 -2.635557 -0.708671
-0.910145 -2.645484 -0.717532
-0.910145 -2.229657 -0.925069
0.003228 -2.229657 -0.925069
0.916602 -2.229657 -0.925069
0.916602 -2.645483 -0.717532
0.916602 -2.645483 -0.717532
0.003228 -2.635557 -0.708671
0.003228 -2.229657 -0.925069
0.916602 -2.904095 -1.320675
1.829975 -2.904095 -1.320675
1.829975 -2.857532 -0.940254
0.916602 -2.857532 -0.940254
-1.823518 -2.707602 -0.602371
-0.910207 -2.700265 -0.593776
-0.910145 -2.254925 -0.288864
-0.910145 -2.254925 -0.288864
-1.823518 -2.254925 -0.288864
-1.823518 -2.707602 -0.602371
-0.910207 -2.700265 -0.593776
0.003228 -2.674441 -0.571265
0.003228 -2.254795 -0.288810
0.003228 -2.254795 -0.288810
-0.910145 -2.254925 -0.288864
-0.910207 -2.700265 -0.593776
0.003228 -2.674441 -0.571265
0.916664 -2.700265 -0.593776
0.916602 -2.254925 -0.288864
0.916602 -2.254925 -0.288864
0.003228 -2.254795 -0.288810
0.003228 -2.674441 -0.571265
0.916664 -2.700265 -0.593776
1.829975 -2.707602 -0.602371
1.829975 -2.254925 -0.288864
1.829975 -2.254925 -0.288864
0.916602 -2.254925 -0.288864
0.916664 -2.700265 -0.593776
1.829975 -2.229657 -1.719957
1.829975 -1.315360 -1.719957
1.829975 -1.315360 -0.925069
1.829975 -2.229657 -0.925069
1.829975 -0.401062 -1.719957
1.829975 -0.401062 -0.925069
1.829975 0.513235 -1.719957
1.829975 0.513235 -0.925069
1.829975 1.427532 -1.719957
1.829975 1.427532 -0.925069
1.829975 2.341830 -1.719957
1.829975 2.341830 -0.925069
1.905981 -2.229657 -0.925069
1.905981 -1.315360 -0.925069
1.905981 -1.315360 -0.694180
1.905981 -2.645484 -0.717532
1.905981 -0.401062 -0.925069
1.905981 -0.401062 -0.678668
1.905981 0.513235 -0.925069
1.905981 0.513235 -0.678668
1.905981 1.427532 -0.925069
1.905981 1.427532 -0.678668
1.905981 2.341830 -0.925069
1.905981 2.705087 -0.726796
1.905981 -2.229657 -0.433679
1.905981 -1.315360 -0.274740
1.905981 -0.401063 -0.278799
1.905981 0.513235 -0.278799
1.905981 1.427532 -0.278799
1.905981 2.341830 -0.399718
1.829975 2.811008 -1.719957
0.916602 2.811008 -1.719957
0.916602 2.879931 -1.279103
1.829975 2.879931 -1.279103
0.916602 2.056574 -1.292348
0.003228 2.056574 -1.292348
0.003228 2.341830 -0.925069
0.916602 2.341830 -0.925069
-0.910145 2.056574 -1.292348
-0.910145 2.341830 -0.925069
-0.910145 2.811008 -1.719957
-1.823518 2.811008 -1.719957
-1.823518 2.879931 -1.279103
-0.910145 2.879931 -1.279103
1.829975 2.974504 -1.246125
0.916602 2.974504 -1.246125
0.916602 2.913972 -0.855430
1.829975 2.913972 -0.855430
0.916602 2.341830 -0.925069
0.003228 2.341830 -0.925069
0.003228 2.705087 -0.726796
0.916602 2.705087 -0.726796
-0.910145 2.341830 -0.925069
-0.910145 2.705087 -0.726796
-0.910145 2.974504 -1.246125
-1.823518 2.974504 -1.246125
-1.823518 2.913972 -0.855430
-0.910145 2.913972 -0.855430
1.829975 2.765070 -0.608956
0.916602 2.761427 -0.604728
0.916602 2.371047 -0.256693
0.916602 2.371047 -0.256693
1.829975 2.371047 -0.256693
1.829975 2.765070 -0.608956
0.916602 2.761427 -0.604728
0.003228 2.753847 -0.597150
0.003228 2.371048 -0.256693
0.003228 2.371048 -0.256693
0.916602 2.371047 -0.256693
0.916602 2.761427 -0.604728
0.003228 2.753847 -0.597150
-0.910145 2.761428 -0.604728
-0.910145 2.371047 -0.256693
-0.910145 2.371047 -0.256693
0.003228 2.371048 -0.256693
0.003228 2.753847 -0.597150
-0.910145 2.761428 -0.604728
-1.823518 2.765070 -0.608956
-1.823518 2.371047 -0.256693
-1.823518 2.371047 -0.256693
-0.910145 2.371047 -0.256693
-0.910145 2.761428 -0.604728
-1.823518 2.341830 -1.719957
-1.823518 1.427532 -1.719957
-1.823518 1.427533 -0.925069
-1.823518 2.341830 -0.925069
-1.823518 0.513235 -1.719957
-1.823518 0.513235 -0.925069
-1.823518 -0.401062 -1.719957
-1.823518 -0.401062 -0.925069
-1.823518 -1.315360 -1.719957
-1.823518 -1.315360 -0.925069
-1.823518 -2.229657 -1.719957
-1.823518 -2.229657 -0.925069
-1.899524 2.341830 -0.925069
-1.899524 1.427533 -0.925069
-1.899524 1.427532 -0.678668
-1.899524 2.705087 -0.726796
-1.899524 0.513235 -0.925069
-1.899524 0.513235 -0.678668
-1.899524 -0.401062 -0.925069
-1.899524 -0.401062 -0.678668
-1.899524 -1.315360 -0.925069
-1.899524 -1.315360 -0.694180
-1.899524 -2.229657 -0.925069
-1.899524 -2.645484 -0.717532
-1.899524 1.427532 -0.278799
-1.899524 2.341830 -0.399718
-1.899524 0.513235 -0.278799
-1.899524 -0.401063 -0.278799
-1.899524 -1.315360 -0.274740
-1.899524 -2.229657 -0.433679
-1.823518 -1.315360 -2.344399
-1.823518 -1.315360 -2.344399
-1.823518 -1.813951 -2.344399
-1.823518 -0.401062 -2.344399
-1.823518 -0.401062 -2.344399
-1.823518 -1.315360 -2.344399
-1.823518 0.513235 -2.344399
-1.823518 0.513235 -2.344399
-1.823518 -0.401062 -2.344399
-1.823518 1.427532 -2.344399
-1.823518 1.427532 -2.344399
-1.823518 0.513235 -2.344399
-1.823518 2.001844 -2.344399
-1.823518 2.001844 -2.344399
-1.823518 1.427532 -2.344399
-1.823518 2.811008 -1.719957
-0.910145 2.811008 -1.719957
-0.910145 2.592677 -2.091350
-1.823518 2.592677 -2.091350
-0.910145 2.056574 -1.292348
-0.910145 1.427533 -1.719957
-0.910145 1.427533 -2.344399
-0.910145 1.427533 -2.344399
-0.910145 2.001844 -2.344399
-0.910145 2.056574 -1.292348
-0.910145 1.427533 -1.719957
-0.910145 0.513235 -1.719957
-0.910145 0.513235 -2.344399
-0.910145 0.513235 -2.344399
-0.910145 1.427533 -2.344399
-0.910145 1.427533 -1.719957
-0.910145 0.513235 -1.719957
-0.910145 -0.401062 -1.719957
-0.910145 -0.401062 -2.344399
-0.910145 -0.401062 -2.344399
-0.910145 0.513235 -2.344399
-0.910145 0.513235 -1.719957
-0.910145 -0.401062 -1.719957
-0.910145 -1.315360 -1.719957
-0.910145 -1.315360 -2.344399
-0.910145 -1.315360 -2.344399
-0.910145 -0.401062 -2.344399
-0.910145 -0.401062 -1.719957
-0.910145 -1.315360 -1.719957
-0.910145 -1.873811 -1.193464
-0.910145 -1.813951 -2.344399
-0.910145 -1.813951 -2.344399
-0.910145 -1.315360 -2.344399
-0.910145 -1.315360 -1.719957
-0.910145 -2.710966 -1.719957
-1.823518 -2.710966 -1.719957
-1.823518 -2.465311 -2.093775
-0.910145 -2.465311 -2.093775
0.916602 -1.873811 -1.193464
0.916602 -1.315360 -1.719957
0.916602 -1.315360 -2.344399
0.916602 -1.315360 -2.344399
0.916602 -1.813951 -2.344399
0.916602 -1.873811 -1.193464
0.916602 -1.315360 -1.719957
0.916602 -0.401062 -1.719957
0.916602 -0.401062 -2.344399
0.916602 -0.401062 -2.344399
0.916602 -1.315360 -2.344399
0.916602 -1.315360 -1.719957
0.916602 -0.401062 -1.719957
0.916602 0.513235 -1.719957
0.916602 0.513235 -2.344399
0.916602 0.513235 -2.344399
0.916602 -0.401062 -2.344399
0.916602 -0.401062 -1.719957
0.916602 0.513235 -1.719957
0.916602 1.427533 -1.719957
0.916602 1.427532 -2.344399
0.916602 1.427532 -2.344399
0.916602 0.513235 -2.344399
0.916602 0.513235 -1.719957
0.916602 1.427533 -1.719957
0.916602 2.056574 -1.292348
0.916602 2.001844 -2.344399
0.916602 2.001844 -2.344399
0.916602 1.427532 -2.344399
0.916602 1.427533 -1.719957
0.916602 2.811008 -1.719957
1.829975 2.811008 -1.719957
1.829975 2.592677 -2.091350
0.916602 2.592677 -2.091350
1.829975 1.427533 -2.344399
1.829975 1.427533 -2.344399
1.829975 2.001844 -2.344399
1.829975 0.513235 -2.344399
1.829975 0.513235 -2.344399
1.829975 1.427533 -2.344399
1.829975 -0.401062 -2.344399
1.829975 -0.401062 -2.344399
1.829975 0.513235 -2.344399
1.829975 -1.315360 -2.344399
1.829975 -1.315360 -2.344399
1.829975 -0.401062 -2.344399
1.829975 -1.813951 -2.344399
1.829975 -1.813951 -2.344399
1.829975 -1.315360 -2.344399
1.829975 -2.710966 -1.719957
0.916602 -2.710966 -1.719957
0.916602 -2.465311 -2.093775
1.829975 -2.465311 -2.093775
1.829975 2.811008 -1.719957
1.829975 2.811008 -1.719957
1.829975 2.879931 -1.279103
1.829975 2.001844 -2.344399
1.829975 2.592677 -2.091350
1.829975 2.592677 -2.091350
1.829975 2.811008 -1.719957
1.829975 2.001844 -2.344399
0.916602 2.001844 -2.344399
0.916602 2.592677 -2.091350
1.829975 2.592677 -2.091350
0.916602 2.001844 -2.344399
0.916602 2.056574 -1.292348
0.916602 2.811008 -1.719957
0.916602 2.811008 -1.719957
0.916602 2.592677 -2.091350
0.916602 2.001844 -2.344399
0.916602 2.056574 -1.292348
0.916602 2.341830 -0.925069
0.916602 2.879931 -1.279103
0.916602 2.879931 -1.279103
0.916602 2.811008 -1.719957
0.916602 2.056574 -1.292348
0.916602 2.341830 -0.925069
0.916602 2.705087 -0.726796
0.916602 2.828554 -0.926368
0.916602 2.879931 -1.279103
0.916602 2.761427 -0.604728
1.829975 2.765070 -0.608956
1.829975 2.913972 -0.855430
1.829975 2.913972 -0.855430
0.916602 2.913972 -0.855430
0.916602 2.761427 -0.604728
1.905981 2.879931 -1.279103
1.905981 2.828553 -0.926368
-0.910145 2.341830 -0.925069
-0.910145 2.056574 -1.292348
-0.910145 2.811008 -1.719957
-0.910145 2.811008 -1.719957
-0.910145 2.879931 -1.279103
-0.910145 2.341830 -0.925069
-0.910145 2.056574 -1.292348
-0.910145 2.001844 -2.344399
-0.910145 2.592677 -2.091350
-0.910145 2.592677 -2.091350
-0.910145 2.811008 -1.719957
-0.910145 2.056574 -1.292348
-0.910145 2.001844 -2.344399
-1.823518 2.001844 -2.344399
-1.823518 2.592677 -2.091350
-0.910145 2.592677 -2.091350
-1.823518 2.001844 -2.344399
-1.823518 2.811008 -1.719957
-1.823518 2.811008 -1.719957
-1.823518 2.592677 -2.091350
-1.823518 2.001844 -2.344399
-1.823518 2.879931 -1.279103
-1.823518 2.879931 -1.279103
-1.823518 2.811008 -1.719957
-1.899524 2.828553 -0.926368
-1.899524 2.879931 -1.279103
-1.823518 2.765070 -0.608956
-0.910145 2.761428 -0.604728
-0.910145 2.913972 -0.855430
-0.910145 2.913972 -0.855430
-1.823518 2.913972 -0.855430
-1.823518 2.765070 -0.608956
-0.910145 2.705087 -0.726796
-0.910145 2.341830 -0.925069
-0.910145 2.879931 -1.279103
-0.910145 2.879931 -1.279103
-0.910145 2.828554 -0.926368
-0.910145 -1.873811 -1.193464
-0.910145 -2.229657 -0.925069
-0.910145 -2.808696 -1.347353
-0.910145 -2.808696 -1.347353
-0.910145 -2.710966 -1.719957
-0.910145 -1.873811 -1.193464
-0.910145 -2.229657 -0.925069
-0.910145 -2.645484 -0.717532
-0.910145 -2.767758 -0.996873
-0.910145 -2.808696 -1.347353
-0.910207 -2.700265 -0.593776
-1.823518 -2.707602 -0.602371
-1.823518 -2.857532 -0.940254
-1.823518 -2.857532 -0.940254
-0.910145 -2.857532 -0.940254
-0.910207 -2.700265 -0.593776
-1.899524 -2.808696 -1.347353
-1.899524 -2.767758 -0.996873
-1.823518 -2.710966 -1.719957
-1.823518 -2.710966 -1.719957
-1.823518 -2.808696 -1.347353
-1.823518 -1.813951 -2.344399
-1.823518 -2.465311 -2.093775
-1.823518 -2.465311 -2.093775
-1.823518 -2.710966 -1.719957
-1.823518 -1.813951 -2.344399
-0.910145 -1.813951 -2.344399
-0.910145 -2.465311 -2.093775
-1.823518 -2.465311 -2.093775
-0.910145 -1.813951 -2.344399
-0.910145 -1.873811 -1.193464
-0.910145 -2.710966 -1.719957
-0.910145 -2.710966 -1.719957
-0.910145 -2.465311 -2.093775
-0.910145 -1.813951 -2.344399
0.916602 -2.229657 -0.925069
0.916602 -1.873811 -1.193464
0.916602 -2.710966 -1.719957
0.916602 -2.710966 -1.719957
0.916602 -2.808696 -1.347353
0.916602 -2.229657 -0.925069
0.916602 -1.873811 -1.193464
0.916602 -1.813951 -2.344399
0.916602 -2.465311 -2.093775
0.916602 -2.465311 -2.093775
0.916602 -2.710966 -1.719957
0.916602 -1.873811 -1.193464
0.916602 -1.813951 -2.344399
1.829975 -1.813951 -2.344399
1.829975 -2.465311 -2.093775
0.916602 -2.465311 -2.093775
1.829975 -1.813951 -2.344399
1.829975 -2.710966 -1.719957
1.829975 -2.710966 -1.719957
1.829975 -2.465311 -2.093775
1.829975 -1.813951 -2.344399
1.829975 -2.808696 -1.347353
1.829975 -2.808696 -1.347353
1.829975 -2.710966 -1.719957
1.905981 -2.767758 -0.996873
1.905981 -2.808696 -1.347353
1.829975 -2.707602 -0.602371
0.916664 -2.700265 -0.593776
0.916602 -2.857532 -0.940254
0.916602 -2.857532 -0.940254
1.829975 -2.857532 -0.940254
1.829975 -2.707602 -0.602371
0.916602 -2.645483 -0.717532
0.916602 -2.229657 -0.925069
0.916602 -2.808696 -1.347353
0.916602 -2.808696 -1.347353
0.916602 -2.767758 -0.996873
1.905981 -2.254925 -0.288864
1.905981 -1.320641 -0.124963
1.829975 -2.254925 -0.288864
1.829975 -2.707602 -0.602371
1.905981 -2.707602 -0.602371
1.905981 -2.254925 -0.288864
1.905981 -2.857532 -0.940254
1.905981 -2.707602 -0.602371
1.905981 -2.904095 -1.320675
1.905981 -2.857532 -0.940254
1.829975 -2.808696 -1.347353
1.829975 -2.229657 -0.925069
1.905981 -2.229657 -0.925069
1.905981 -2.229657 -0.925069
1.905981 -2.808696 -1.347353
1.829975 -2.808696 -1.347353
1.829975 -2.229657 -0.925069
1.829975 -1.315360 -0.925069
1.905981 -1.315360 -0.925069
1.905981 -1.315360 -0.925069
1.905981 -2.229657 -0.925069
1.829975 -2.229657 -0.925069
1.829975 -1.315360 -0.925069
1.829975 -0.401062 -0.925069
1.905981 -0.401062 -0.925069
1.905981 -0.401062 -0.925069
1.905981 -1.315360 -0.925069
1.829975 -1.315360 -0.925069
1.829975 -0.401062 -0.925069
1.829975 0.513235 -0.925069
1.905981 0.513235 -0.925069
1.905981 0.513235 -0.925069
1.905981 -0.401062 -0.925069
1.829975 -0.401062 -0.925069
1.829975 0.513235 -0.925069
1.829975 1.427532 -0.925069
1.905981 1.427532 -0.925069
1.905981 1.427532 -0.925069
1.905981 0.513235 -0.925069
1.829975 0.513235 -0.925069
1.829975 1.427532 -0.925069
1.829975 2.341830 -0.925069
1.905981 2.341830 -0.925069
1.905981 2.341830 -0.925069
1.905981 1.427532 -0.925069
1.829975 1.427532 -0.925069
1.829975 2.341830 -0.925069
1.829975 2.879931 -1.279103
1.905981 2.879931 -1.279103
1.905981 2.879931 -1.279103
1.905981 2.341830 -0.925069
1.829975 2.341830 -0.925069
1.905981 2.913972 -0.855430
1.905981 2.913972 -0.855430
1.905981 2.974504 -1.246125
1.829975 2.974504 -1.246125
1.829975 2.913972 -0.855430
1.829975 2.765070 -0.608956
1.905981 2.765070 -0.608956
1.905981 2.913972 -0.855430
1.829975 2.765070 -0.608956
1.829975 2.371047 -0.256693
1.905981 2.371047 -0.256693
1.905981 2.765070 -0.608956
1.905981 1.431664 -0.128935
1.905981 2.371047 -0.256693
1.905981 0.513235 -0.128799
1.905981 1.431664 -0.128935
1.905981 -0.400923 -0.128799
1.905981 0.513235 -0.128799
1.905981 -1.320641 -0.124963
1.905981 -0.400923 -0.128799
-1.823518 -2.254925 -0.288864
-1.823518 -1.320642 -0.124963
-1.899524 -1.320642 -0.124963
-1.899524 -2.254925 -0.288864
-1.899524 -0.400923 -0.128799
-1.899524 -1.320642 -0.124963
-1.899524 0.513235 -0.128799
-1.899524 -0.400923 -0.128799
-1.899524 1.431664 -0.128935
-1.899524 0.513235 -0.128799
-1.899524 2.371047 -0.256693
-1.899524 1.431664 -0.128935
-1.823518 2.371047 -0.256693
-1.823518 2.765070 -0.608956
-1.899524 2.765070 -0.608956
-1.899524 2.371047 -0.256693
-1.899524 2.913972 -0.855430
-1.899524 2.765070 -0.608956
-1.823518 2.913972 -0.855430
-1.823518 2.974504 -1.246125
-1.899524 2.974504 -1.246125
-1.899524 2.913972 -0.855430
-1.823518 2.879931 -1.279103
-1.823518 2.341830 -0.925069
-1.899524 2.341830 -0.925069
-1.899524 2.341830 -0.925069
-1.899524 2.879931 -1.279103
-1.823518 2.879931 -1.279103
-1.823518 2.341830 -0.925069
-1.823518 1.427533 -0.925069
-1.899524 1.427533 -0.925069
-1.899524 1.427533 -0.925069
-1.899524 2.341830 -0.925069
-1.823518 2.341830 -0.925069
-1.823518 1.427533 -0.925069
-1.823518 0.513235 -0.925069
-1.899524 0.513235 -0.925069
-1.899524 0.513235 -0.925069
-1.899524 1.427533 -0.925069
-1.823518 1.427533 -0.925069
-1.823518 0.513235 -0.925069
-1.823518 -0.401062 -0.925069
-1.899524 -0.401062 -0.925069
-1.899524 -0.401062 -0.925069
-1.899524 0.513235 -0.925069
-1.823518 0.513235 -0.925069
-1.823518 -0.401062 -0.925069
-1.823518 -1.315360 -0.925069
-1.899524 -1.315360 -0.925069
-1.899524 -1.315360 -0.925069
-1.899524 -0.401062 -0.925069
-1.823518 -0.401062 -0.925069
-1.823518 -1.315360 -0.925069
-1.823518 -2.229657 -0.925069
-1.899524 -2.229657 -0.925069
-1.899524 -2.229657 -0.925069
-1.899524 -1.315360 -0.925069
-1.823518 -1.315360 -0.925069
-1.823518 -2.229657 -0.925069
-1.823518 -2.808696 -1.347353
-1.899524 -2.808696 -1.347353
-1.899524 -2.808696 -1.347353
-1.899524 -2.229657 -0.925069
-1.823518 -2.229657 -0.925069
-1.899524 -2.857532 -0.940254
-1.899524 -2.904095 -1.320675
-1.823518 -2.857532 -0.940254
-1.823518 -2.707602 -0.602371
-1.899524 -2.707602 -0.602371
-1.899524 -2.857532 -0.940254
-1.899524 -2.254925 -0.288864
-1.899524 -2.707602 -0.602371
-1.823518 -2.808696 -1.347353
-0.910145 -2.808696 -1.347353
-0.910145 -2.904095 -1.320675
-0.910145 -2.904095 -1.320675
-1.823518 -2.904095 -1.320675
-1.823518 -2.808696 -1.347353
-0.910145 -2.808696 -1.347353
-0.910145 -2.857532 -0.940254
-0.910145 -2.904095 -1.320675
-0.910145 -2.808696 -1.347353
-0.910145 -2.767758 -0.996873
-0.910145 -2.645484 -0.717532
-0.910207 -2.700265 -0.593776
-0.910207 -2.700265 -0.593776
-0.910145 -2.857532 -0.940254
-0.910145 -2.767758 -0.996873
-0.910145 -2.645484 -0.717532
0.003228 -2.635557 -0.708671
0.003228 -2.674441 -0.571265
0.003228 -2.674441 -0.571265
-0.910207 -2.700265 -0.593776
-0.910145 -2.645484 -0.717532
0.003228 -2.635557 -0.708671
0.916602 -2.645483 -0.717532
0.916664 -2.700265 -0.593776
0.916664 -2.700265 -0.593776
0.003228 -2.674441 -0.571265
0.003228 -2.635557 -0.708671
0.916602 -2.857532 -0.940254
0.916602 -2.857532 -0.940254
0.916664 -2.700265 -0.593776
0.916602 -2.645483 -0.717532
0.916602 -2.808696 -1.347353
0.916602 -2.904095 -1.320675
0.916602 -2.808696 -1.347353
1.829975 -2.808696 -1.347353
1.829975 -2.904095 -1.320675
0.916602 -2.904095 -1.320675
0.916602 -2.808696 -1.347353
1.829975 -2.808696 -1.347353
1.905981 -2.808696 -1.347353
1.905981 -2.904095 -1.320675
1.829975 -2.808696 -1.347353
1.905981 -2.857532 -0.940254
1.905981 -2.857532 -0.940254
1.905981 -2.904095 -1.320675
1.905981 -2.707602 -0.602371
1.905981 -2.707602 -0.602371
1.905981 -2.857532 -0.940254
1.905981 -2.254925 -0.288864
1.905981 -2.254925 -0.288864
1.905981 -2.707602 -0.602371
1.905981 -1.320641 -0.124963
1.905981 -1.320641 -0.124963
1.905981 -2.254925 -0.288864
1.905981 -0.400923 -0.128799
1.905981 -0.400923 -0.128799
1.905981 -1.320641 -0.124963
1.905981 0.513235 -0.128799
1.905981 0.513235 -0.128799
1.905981 -0.400923 -0.128799
1.905981 1.431664 -0.128935
1.905981 1.431664 -0.128935
1.905981 0.513235 -0.128799
1.905981 2.371047 -0.256693
1.905981 2.371047 -0.256693
1.905981 1.431664 -0.128935
1.905981 2.765070 -0.608956
1.905981 2.765070 -0.608956
1.905981 2.371047 -0.256693
1.905981 2.913972 -0.855430
1.905981 2.913972 -0.855430
1.905981 2.765070 -0.608956
1.905981 2.974504 -1.246125
1.905981 2.974504 -1.246125
1.905981 2.913972 -0.855430
1.905981 2.879931 -1.279103
1.829975 2.879931 -1.279103
1.829975 2.974504 -1.246125
1.829975 2.974504 -1.246125
1.905981 2.974504 -1.246125
1.905981 2.879931 -1.279103
1.829975 2.879931 -1.279103
0.916602 2.879931 -1.279103
0.916602 2.974504 -1.246125
1.829975 2.974504 -1.246125
1.829975 2.879931 -1.279103
0.916602 2.879931 -1.279103
0.916602 2.913972 -0.855430
0.916602 2.974504 -1.246125
0.916602 2.879931 -1.279103
0.916602 2.761427 -0.604728
0.916602 2.705087 -0.726796
0.003228 2.705087 -0.726796
0.003228 2.753847 -0.597150
0.003228 2.753847 -0.597150
0.916602 2.761427 -0.604728
0.916602 2.705087 -0.726796
0.003228 2.705087 -0.726796
-0.910145 2.705087 -0.726796
-0.910145 2.761428 -0.604728
-0.910145 2.761428 -0.604728
0.003228 2.753847 -0.597150
0.003228 2.705087 -0.726796
-0.910145 2.913972 -0.855430
-0.910145 2.761428 -0.604728
-0.910145 2.879931 -1.279103
-0.910145 2.974504 -1.246125
-0.910145 2.879931 -1.279103
-1.823518 2.879931 -1.279103
-1.823518 2.974504 -1.246125
-0.910145 2.974504 -1.246125
-0.910145 2.879931 -1.279103
-1.823518 2.879931 -1.279103
-1.899524 2.879931 -1.279103
-1.899524 2.974504 -1.246125
-1.823518 2.879931 -1.279103
-1.899524 2.913972 -0.855430
-1.899524 2.913972 -0.855430
-1.899524 2.974504 -1.246125
-1.899524 2.765070 -0.608956
-1.899524 2.765070 -0.608956
-1.899524 2.913972 -0.855430
-1.899524 2.371047 -0.256693
-1.899524 2.371047 -0.256693
-1.899524 2.765070 -0.608956
-1.899524 1.431664 -0.128935
-1.899524 1.431664 -0.128935
-1.899524 2.371047 -0.256693
-1.899524 0.513235 -0.128799
-1.899524 0.513235 -0.128799
-1.899524 1.431664 -0.128935
-1.899524 -0.400923 -0.128799
-1.899524 -0.400923 -0.128799
-1.899524 0.513235 -0.128799
-1.899524 -1.320642 -0.124963
-1.899524 -1.320642 -0.124963
-1.899524 -0.400923 -0.128799
-1.899524 -2.254925 -0.288864
-1.899524 -2.254925 -0.288864
-1.899524 -1.320642 -0.124963
-1.899524 -2.707602 -0.602371
-1.899524 -2.707602 -0.602371
-1.899524 -2.254925 -0.288864
-1.899524 -2.857532 -0.940254
-1.899524 -2.857532 -0.940254
-1.899524 -2.707602 -0.602371
-1.899524 -2.904095 -1.320675
-1.899524 -2.904095 -1.320675
-1.899524 -2.857532 -0.940254
-1.899524 -2.808696 -1.347353
-1.823518 -2.808696 -1.347353
-1.899524 -2.904095 -1.320675
-1.899524 -2.808696 -1.347353
3 0 1 2
3 2 3 0
3 4 5 6
3 6 7 4
3 7 6 8
3 8 9 7
3 10 11 12
3 12 13 10
3 1 14 15
3 15 2 1
3 16 17 18
3 18 19 16
3 19 18 20
3 20 21 19
3 11 22 23
3 23 12 11
3 14 24 25
3 25 15 14
3 17 26 27
3 27 18 17
3 18 27 28
3 28 20 18
3 22 29 30
3 30 23 22
3 24 31 32
3 32 25 24
3 26 33 34
3 34 27 26
3 27 34 35
3 35 28 27
3 29 36 37
3 37 30 29
3 31 38 39
3 39 32 31
3 40 41 42
3 43 44 45
3 44 43 46
3 47 48 49
3 36 50 51
3 51 37 36
3 52 53 54
3 54 55 52
3 56 57 58
3 59 60 61
3 62 63 64
3 65 66 67
3 68 69 70
3 70 71 68
3 72 73 74
3 74 75 72
3 73 76 77
3 77 74 73
3 76 78 79
3 79 77 76
3 78 80 81
3 81 79 78
3 82 83 84
3 84 85 82
3 83 86 87
3 87 84 83
3 86 88 89
3 89 87 86
3 88 90 91
3 91 89 88
3 92 93 94
3 94 95 92
3 93 96 97
3 97 94 93
3 96 98 99
3 99 97 96
3 98 100 101
3 101 99 98
3 102 103 104
3 104 105 102
3 103 106 107
3 107 104 103
3 106 108 109
3 109 107 106
3 108 110 111
3 111 109 108
3 112 113 114
3 115 116 117
3 118 119 120
3 120 121 118
3 119 122 123
3 123 120 119
3 124 125 126
3 126 127 124
3 128 129 130
3 130 131 128
3 132 133 134
3 135 136 137
3 138 139 140
3 141 142 143
3 144 145 146
3 146 147 144
3 148 149 150
3 151 152 153
3 154 155 156
3 157 158 159
3 160 161 162
3 163 164 165
3 166 167 168
3 169 170 171
3 172 173 174
3 174 175 172
3 173 176 177
3 177 174 173
3 176 178 179
3 179 177 176
3 178 180 181
3 181 179 178
3 180 182 183
3 183 181 180
3 184 185 186
3 186 187 184
3 185 188 189
3 189 186 185
3 188 190 191
3 191 189 188
3 190 192 193
3 193 191 190
3 192 194 195
3 195 193 192
3 196 187 186
3 186 197 196
3 186 189 198
3 198 197 186
3 189 191 199
3 199 198 189
3 191 193 200
3 200 199 191
3 193 195 201
3 201 200 193
3 202 203 204
3 204 205 202
3 206 207 208
3 208 209 206
3 207 210 211
3 211 208 207
3 212 213 214
3 214 215 212
3 216 217 218
3 218 219 216
3 220 221 222
3 222 223 220
3 221 224 225
3 225 222 221
3 226 227 228
3 228 229 226
3 230 231 232
3 233 234 235
3 236 237 238
3 239 240 241
3 242 243 244
3 245 246 247
3 248 249 250
3 251 252 253
3 254 255 256
3 256 257 254
3 255 258 259
3 259 256 255
3 258 260 261
3 261 259 258
3 260 262 263
3 263 261 260
3 262 264 265
3 265 263 262
3 266 267 268
3 268 269 266
3 267 270 271
3 271 268 267
3 270 272 273
3 273 271 270
3 272 274 275
3 275 273 272
3 274 276 277
3 277 275 274
3 269 268 278
3 278 279 269
3 268 271 280
3 280 278 268
3 271 273 281
3 281 280 271
3 273 275 282
3 282 281 273
3 275 277 283
3 283 282 275
3 264 262 284
3 264 285 286
3 262 260 287
3 288 289 262
3 260 258 290
3 291 292 260
3 258 255 293
3 294 295 258
3 255 254 296
3 297 298 255
3 299 300 301
3 301 302 299
3 303 304 305
3 306 307 308
3 309 310 311
3 312 313 314
3 315 316 317
3 318 319 320
3 321 322 323
3 324 325 326
3 327 328 329
3 330 331 332
3 333 334 335
3 335 336 333
3 337 338 339
3 340 341 342
3 343 344 345
3 346 347 348
3 349 350 351
3 352 353 354
3 355 356 357
3 358 359 360
3 361 362 363
3 364 365 366
3 367 368 369
3 369 370 367
3 182 180 371
3 372 373 182
3 180 178 374
3 375 376 180
3 178 176 377
3 378 379 178
3 176 173 380
3 381 382 176
3 173 172 383
3 384 385 173
3 386 387 388
3 388 389 386
3 183 182 390
3 391 392 183
3 182 393 394
3 395 396 182
3 397 398 399
3 399 400 397
3 401 402 403
3 404 405 406
3 407 408 409
3 410 411 412
3 413 414 415
3 415 416 413
3 417 418 419
3 420 421 422
3 195 194 423
3 423 424 195
3 425 426 427
3 428 429 430
3 431 432 433
3 434 435 436
3 437 438 439
3 439 440 437
3 441 254 442
3 443 444 445
3 254 257 446
3 447 448 254
3 266 269 449
3 449 450 266
3 451 452 453
3 454 455 456
3 457 458 459
3 460 461 457
3 462 463 464
3 465 466 467
3 468 469 470
3 470 471 468
3 472 473 474
3 475 476 477
3 277 276 478
3 478 479 277
3 265 264 480
3 481 482 265
3 264 483 484
3 264 485 486
3 487 488 489
3 489 490 487
3 491 492 493
3 494 495 496
3 497 498 499
3 500 501 502
3 503 504 505
3 506 507 508
3 509 510 511
3 511 512 509
3 513 172 514
3 515 516 517
3 172 175 518
3 519 520 172
3 184 187 521
3 521 522 184
3 523 524 525
3 526 527 528
3 529 530 531
3 532 533 529
3 70 69 534
3 534 535 70
3 536 537 538
3 538 539 536
3 528 527 540
3 540 541 528
3 146 145 542
3 542 543 146
3 544 545 546
3 547 548 549
3 550 551 552
3 553 554 555
3 556 557 558
3 559 560 561
3 562 563 564
3 565 566 567
3 568 569 570
3 571 572 573
3 574 575 576
3 577 578 579
3 580 581 582
3 583 584 585
3 216 219 586
3 587 588 589
3 590 591 592
3 592 593 590
3 594 595 596
3 596 597 594
3 111 110 598
3 598 599 111
3 101 100 600
3 600 601 101
3 91 90 602
3 602 603 91
3 81 80 604
3 604 605 81
3 606 607 608
3 608 609 606
3 72 75 610
3 610 611 72
3 82 85 612
3 612 613 82
3 92 95 614
3 614 615 92
3 102 105 616
3 616 617 102
3 618 619 620
3 620 621 618
3 456 455 622
3 622 623 456
3 624 625 626
3 626 627 624
3 628 629 630
3 631 632 633
3 634 635 636
3 637 638 639
3 640 641 642
3 643 644 645
3 646 647 648
3 649 650 651
3 652 653 654
3 655 656 657
3 658 659 660
3 661 662 663
3 664 665 666
3 667 668 669
3 128 131 670
3 670 671 128
3 672 673 674
3 674 675 672
3 153 152 676
3 676 677 153
3 678 679 680
3 681 682 683
3 684 470 685
3 685 686 687
3 688 689 690
3 691 692 693
3 694 695 696
3 697 698 699
3 700 701 702
3 703 704 705
3 529 533 706
3 707 708 709
3 533 710 711
3 711 706 533
3 712 713 714
3 714 715 716
3 717 718 719
3 719 714 720
3 522 521 721
3 722 723 522
3 521 187 724
3 725 726 521
3 187 196 727
3 728 729 187
3 196 197 730
3 731 732 196
3 197 198 733
3 734 735 197
3 198 199 736
3 737 738 198
3 199 200 739
3 740 741 199
3 200 201 742
3 743 744 200
3 201 195 745
3 746 747 201
3 195 424 748
3 749 750 195
3 424 423 751
3 752 753 424
3 754 755 756
3 757 758 759
3 760 761 762
3 762 763 764
3 765 415 766
3 766 767 768
3 415 414 769
3 769 766 415
3 770 771 772
3 773 774 775
3 776 777 778
3 779 780 781
3 457 461 782
3 782 783 457
3 461 784 785
3 785 782 461
3 786 787 788
3 788 789 790
3 791 792 793
3 793 788 794
3 450 449 795
3 796 797 450
3 449 269 798
3 799 800 449
3 269 279 801
3 802 803 269
3 279 278 804
3 805 806 279
3 278 280 807
3 808 809 278
3 280 281 810
3 811 812 280
3 281 282 813
3 814 815 281
3 282 283 816
3 817 818 282
3 283 277 819
3 820 821 283
3 277 479 822
3 823 824 277
3 479 478 825
3 826 827 479
3 828 829 682
3 682 830 831
