ply
format ascii 1.0
comment Created by Blender 2.63 (sub 0) - www.blender.org, source file: 'untitled.blend'
element vertex 894
property float x
property float y
property float z
property float s
property float t
element face 456
property list uchar uint vertex_indices
end_header
-1.823518 -1.813951 -2.344399 0.124006 0.447708
-1.823518 -1.315360 -2.344399 0.167568 0.447708
-0.910145 -1.315360 -2.344399 0.167568 0.367907
-0.910145 -1.813951 -2.344399 0.124006 0.367907
-0.910145 -1.873811 -1.193464 0.363651 0.609390
-0.910145 -1.315360 -1.719957 0.363651 0.674036
0.003228 -1.315360 -1.719957 0.440583 0.674036
0.003228 -1.873811 -1.193464 0.440583 0.609390
0.916602 -1.315360 -1.719957 0.517515 0.674036
0.916602 -1.873811 -1.193464 0.517515 0.609390
0.916602 -1.813951 -2.344399 0.124006 0.527509
0.916602 -1.315360 -2.344399 0.167568 0.527509
1.829975 -1.315360 -2.344399 0.167568 0.447708
1.829975 -1.813951 -2.344399 0.124006 0.447708
-1.823518 -0.401062 -2.344399 0.247449 0.447708
-0.910145 -0.401062 -2.344399 0.247449 0.367907
-0.910145 -1.315360 -1.719957 0.124006 0.768992
-0.910145 -0.401062 -1.719957 0.203888 0.768992
0.003228 -0.401062 -1.719957 0.203888 0.689191
0.003228 -1.315360 -1.719957 0.124006 0.689191
0.916602 -0.401062 -1.719957 0.203888 0.609390
0.916602 -1.315360 -1.719957 0.124006 0.609390
0.916602 -0.401062 -2.344399 0.247449 0.527509
1.829975 -0.401062 -2.344399 0.247449 0.447708
-1.823518 0.513235 -2.344399 0.327331 0.447708
-0.910145 0.513235 -2.344399 0.327331 0.367907
-0.910145 0.513235 -1.719957 0.283769 0.768992
0.003228 0.513235 -1.719957 0.283769 0.689191
0.916602 0.513235 -1.719957 0.283769 0.609390
0.916602 0.513235 -2.344399 0.327331 0.527509
1.829975 0.513235 -2.344399 0.327331 0.447708
-1.823518 1.427532 -2.344399 0.407212 0.447708
-0.910145 1.427533 -2.344399 0.407212 0.367907
-0.910145 1.427533 -1.719957 0.363651 0.768992
0.003228 1.427532 -1.719957 0.363651 0.689191
0.916602 1.427533 -1.719957 0.363651 0.609390
0.916602 1.427532 -2.344399 0.407212 0.527509
1.829975 1.427533 -2.344399 0.407213 0.447708
-1.823518 2.001844 -2.344399 0.457390 0.447708
-0.910145 2.001844 -2.344399 0.457390 0.367907
-0.910145 1.427533 -1.719957 0.543830 0.447936
-0.910145 2.056574 -1.292348 0.543830 0.514391
0.003228 2.056574 -1.292348 0.623631 0.514391
0.003228 2.056574 -1.292348 0.465045 0.768992
0.003228 1.427532 -1.719957 0.423524 0.719132
-0.910145 1.427533 -1.719957 0.363651 0.768992
0.003228 1.427532 -1.719957 0.423524 0.719132
0.003228 2.056574 -1.292348 0.465045 0.768992
0.916602 2.056574 -1.292348 0.524918 0.719132
0.916602 2.056574 -1.292348 0.124006 0.387521
0.916602 1.427533 -1.719957 0.081480 0.336455
0.003228 1.427532 -1.719957 0.020158 0.387521
0.916602 2.001844 -2.344399 0.457389 0.527509
1.829975 2.001844 -2.344399 0.457390 0.447708
-1.823518 -2.254925 -0.288864 0.604099 0.686762
-0.910145 -2.254925 -0.288864 0.524918 0.686762
-0.910145 -1.320642 -0.124963 0.524918 0.768992
-1.823518 -1.320642 -0.124963 0.604099 0.768992
-0.910145 -2.254925 -0.288864 0.457390 0.333196
0.003228 -2.254795 -0.288810 0.512319 0.390224
0.003228 -1.320642 -0.124963 0.571544 0.333196
0.003228 -1.320642 -0.124963 0.572439 0.447708
-0.910145 -1.320642 -0.124963 0.517087 0.390224
-0.910145 -2.254925 -0.288864 0.457390 0.447708
0.003228 -2.254795 -0.288810 0.491003 0.920199
0.916602 -2.254925 -0.288864 0.490991 1.000000
0.916602 -1.320642 -0.124963 0.573865 1.000000
0.916602 -1.320642 -0.124963 0.632556 0.666870
0.003228 -1.320642 -0.124963 0.577200 0.609390
0.003228 -2.254795 -0.288810 0.517515 0.666870
0.916602 -2.254925 -0.288864 0.457390 0.527509
1.829975 -2.254925 -0.288864 0.533506 0.527508
1.829975 -1.320641 -0.124963 0.533505 0.448461
0.916602 -1.320642 -0.124963 0.457390 0.448462
-1.823518 -1.320642 -0.124963 0.134273 0.367411
-0.910145 -1.320642 -0.124963 0.212308 0.367411
-0.910145 -0.400923 -0.128799 0.212308 0.288833
-1.823518 -0.400923 -0.128799 0.134273 0.288833
0.003228 -1.320642 -0.124963 0.290343 0.367411
0.003228 -0.400923 -0.128799 0.290343 0.288833
0.916602 -1.320642 -0.124963 0.368377 0.367411
0.916602 -0.400923 -0.128799 0.368377 0.288833
1.829975 -1.320641 -0.124963 0.446412 0.367411
1.829975 -0.400923 -0.128799 0.446412 0.288833
-1.823518 -0.400923 -0.128799 0.134222 0.287849
-0.910145 -0.400923 -0.128799 0.212284 0.287848
-0.910145 0.513235 -0.128799 0.212284 0.209719
-1.823518 0.513235 -0.128799 0.134222 0.209720
0.003228 -0.400923 -0.128799 0.290346 0.287848
0.003228 0.513235 -0.128799 0.290346 0.209719
0.916602 -0.400923 -0.128799 0.368408 0.287848
0.916602 0.513235 -0.128799 0.368408 0.209719
1.829975 -0.400923 -0.128799 0.446470 0.287848
1.829975 0.513235 -0.128799 0.446470 0.209719
-1.823518 0.513235 -0.128799 0.466933 0.287843
-0.910145 0.513235 -0.128799 0.544974 0.287843
-0.910145 1.431664 -0.128935 0.544974 0.209370
-1.823518 1.431664 -0.128935 0.466933 0.209370
0.003228 0.513235 -0.128799 0.623015 0.287843
0.003228 1.431664 -0.128935 0.623015 0.209370
0.916602 0.513235 -0.128799 0.701056 0.287843
0.916602 1.431664 -0.128935 0.701056 0.209370
1.829975 0.513235 -0.128799 0.779097 0.287843
1.829975 1.431664 -0.128935 0.779097 0.209369
-1.823518 1.431664 -0.128935 0.134560 0.608855
-0.910145 1.431664 -0.128935 0.212416 0.608855
-0.910145 2.371047 -0.256693 0.212416 0.528045
-1.823518 2.371047 -0.256693 0.134560 0.528045
0.003228 1.431664 -0.128935 0.290272 0.608855
0.003228 2.371048 -0.256693 0.290272 0.528045
0.916602 1.431664 -0.128935 0.368127 0.608855
0.916602 2.371047 -0.256693 0.368127 0.528045
1.829975 1.431664 -0.128935 0.445983 0.608855
1.829975 2.371047 -0.256693 0.445983 0.528045
-1.823518 -2.710966 -1.719957 0.474002 0.087157
-0.910145 -2.710966 -1.719957 0.553414 0.087157
-0.910145 -2.808696 -1.347353 0.553414 0.053665
-0.910145 -2.808696 -1.347353 0.456679 0.052727
-1.823518 -2.808696 -1.347353 0.377267 0.052727
-1.823518 -2.710966 -1.719957 0.377267 0.086218
-0.910145 -1.873811 -1.193464 0.490991 0.914537
0.003228 -1.873811 -1.193464 0.569974 0.914537
0.003228 -2.229657 -0.925069 0.569974 0.875994
-0.910145 -2.229657 -0.925069 0.490991 0.875994
0.916602 -1.873811 -1.193464 0.648958 0.914537
0.916602 -2.229657 -0.925069 0.648958 0.875994
0.916602 -2.710966 -1.719957 0.280144 0.089180
1.829975 -2.710966 -1.719957 0.359945 0.089180
1.829975 -2.808696 -1.347353 0.359945 0.055524
0.916602 -2.808696 -1.347353 0.280144 0.055524
-1.823518 -2.904095 -1.320675 0.850251 0.208875
-0.910145 -2.904095 -1.320675 0.929975 0.208875
-0.910145 -2.857532 -0.940254 0.929975 0.175422
-1.823518 -2.857532 -0.940254 0.850251 0.175422
-0.910145 -2.229657 -0.925069 0.734868 0.085619
0.003228 -2.229657 -0.925069 0.804527 0.120699
0.003228 -2.635557 -0.708671 0.822194 0.085619
0.003228 -2.635557 -0.708671 0.260011 0.209231
-0.910145 -2.645484 -0.717532 0.260431 0.131230
-0.910145 -2.229657 -0.925069 0.220747 0.131230
0.003228 -2.229657 -0.925069 0.573865 0.920199
0.916602 -2.229657 -0.925069 0.573865 0.998347
0.916602 -2.645483 -0.717532 0.613628 0.998347
0.916602 -2.645483 -0.717532 0.641096 0.121275
0.003228 -2.635557 -0.708671 0.571255 0.086195
0.003228 -2.229657 -0.925069 0.553414 0.121275
0.916602 -2.904095 -1.320675 0.467056 0.120611
1.829975 -2.904095 -1.320675 0.546780 0.120610
1.829975 -2.857532 -0.940254 0.546779 0.087157
0.916602 -2.857532 -0.940254 0.467055 0.087158
-1.823518 -2.707602 -0.602371 0.270881 0.125581
-0.910207 -2.700265 -0.593776 0.336670 0.164179
-0.910145 -2.254925 -0.288864 0.359945 0.125581
-0.910145 -2.254925 -0.288864 0.861074 0.829765
-1.823518 -2.254925 -0.288864 0.784393 0.829765
-1.823518 -2.707602 -0.602371 0.784393 0.875994
-0.910207 -2.700265 -0.593776 0.035215 0.092775
0.003228 -2.674441 -0.571265 0.102469 0.129218
0.003228 -2.254795 -0.288810 0.124006 0.092775
0.003228 -2.254795 -0.288810 0.456679 0.164179
-0.910145 -2.254925 -0.288864 0.390873 0.125299
-0.910207 -2.700265 -0.593776 0.367888 0.164179
0.003228 -2.674441 -0.571265 0.789351 0.288337
0.916664 -2.700265 -0.593776 0.869190 0.288337
0.916602 -2.254925 -0.288864 0.867429 0.241229
0.916602 -2.254925 -0.288864 0.630240 0.121286
0.003228 -2.254795 -0.288810 0.553414 0.121275
0.003228 -2.674441 -0.571265 0.553414 0.163823
0.916664 -2.700265 -0.593776 0.791626 0.342599
1.829975 -2.707602 -0.602371 0.868055 0.343514
1.829975 -2.254925 -0.288864 0.868055 0.297435
1.829975 -2.254925 -0.288864 0.869024 0.367234
0.916602 -2.254925 -0.288864 0.789223 0.367261
0.916664 -2.700265 -0.593776 0.789245 0.414416
1.829975 -2.229657 -1.719957 0.050590 0.945442
1.829975 -1.315360 -1.719957 0.130472 0.945443
1.829975 -1.315360 -0.925069 0.130472 0.875994
1.829975 -2.229657 -0.925069 0.050590 0.875994
1.829975 -0.401062 -1.719957 0.210354 0.945443
1.829975 -0.401062 -0.925069 0.210354 0.875994
1.829975 0.513235 -1.719957 0.290235 0.945443
1.829975 0.513235 -0.925069 0.290235 0.875994
1.829975 1.427532 -1.719957 0.370117 0.945443
1.829975 1.427532 -0.925069 0.370117 0.875994
1.829975 2.341830 -1.719957 0.449999 0.945443
1.829975 2.341830 -0.925069 0.449999 0.875994
1.905981 -2.229657 -0.925069 0.178864 0.839022
1.905981 -1.315360 -0.925069 0.258749 0.838903
1.905981 -1.315360 -0.694180 0.258719 0.818730
1.905981 -2.645484 -0.717532 0.142504 0.820943
1.905981 -0.401062 -0.925069 0.338632 0.838784
1.905981 -0.401062 -0.678668 0.338600 0.817256
1.905981 0.513235 -0.925069 0.418513 0.838666
1.905981 0.513235 -0.678668 0.418482 0.817139
1.905981 1.427532 -0.925069 0.498394 0.838550
1.905981 1.427532 -0.678668 0.498363 0.817022
1.905981 2.341830 -0.925069 0.578275 0.838434
1.905981 2.705087 -0.726796 0.609987 0.821065
1.905981 -2.229657 -0.433679 0.178800 0.796087
1.905981 -1.315360 -0.274740 0.258664 0.782082
1.905981 -0.401063 -0.278799 0.338549 0.782319
1.905981 0.513235 -0.278799 0.418431 0.782203
1.905981 1.427532 -0.278799 0.498312 0.782086
1.905981 2.341830 -0.399718 0.578209 0.792534
1.829975 2.811008 -1.719957 0.915356 0.719173
0.916602 2.811008 -1.719957 0.835555 0.719173
0.916602 2.879931 -1.279103 0.835555 0.758158
1.829975 2.879931 -1.279103 0.915356 0.758158
0.916602 2.056574 -1.292348 0.521415 0.674036
0.003228 2.056574 -1.292348 0.442533 0.674036
0.003228 2.341830 -0.925069 0.442533 0.714199
0.916602 2.341830 -0.925069 0.521415 0.714199
-0.910145 2.056574 -1.292348 0.363651 0.674036
-0.910145 2.341830 -0.925069 0.363651 0.714199
-0.910145 2.811008 -1.719957 0.915356 0.504327
-1.823518 2.811008 -1.719957 0.835555 0.504327
-1.823518 2.879931 -1.279103 0.835555 0.543312
-0.910145 2.879931 -1.279103 0.915356 0.543312
1.829975 2.974504 -1.246125 0.214094 0.086081
0.916602 2.974504 -1.246125 0.134294 0.086108
0.916602 2.913972 -0.855430 0.134305 0.120650
1.829975 2.913972 -0.855430 0.214106 0.120623
0.916602 2.341830 -0.925069 0.616095 0.297241
0.003228 2.341830 -0.925069 0.536742 0.297242
0.003228 2.705087 -0.726796 0.536742 0.333196
0.916602 2.705087 -0.726796 0.616095 0.333196
-0.910145 2.341830 -0.925069 0.457390 0.297241
-0.910145 2.705087 -0.726796 0.457390 0.333196
-0.910145 2.974504 -1.246125 0.124006 0.058233
-1.823518 2.974504 -1.246125 0.044205 0.058233
-1.823518 2.913972 -0.855430 0.044205 0.092775
-0.910145 2.913972 -0.855430 0.124006 0.092775
1.829975 2.765070 -0.608956 0.905612 0.701897
0.916602 2.761427 -0.604728 0.840275 0.664616
0.916602 2.371047 -0.256693 0.818702 0.701897
0.916602 2.371047 -0.256693 0.145523 0.164179
1.829975 2.371047 -0.256693 0.220747 0.164179
1.829975 2.765070 -0.608956 0.220747 0.120650
0.916602 2.761427 -0.604728 0.908978 0.126906
0.003228 2.753847 -0.597150 0.843184 0.090249
0.003228 2.371048 -0.256693 0.822194 0.126906
0.003228 2.371048 -0.256693 0.746882 0.163823
0.916602 2.371047 -0.256693 0.822194 0.163823
0.916602 2.761427 -0.604728 0.822194 0.120699
0.003228 2.753847 -0.597150 0.553414 0.121495
-0.910145 2.761428 -0.604728 0.477948 0.120611
-0.910145 2.371047 -0.256693 0.477948 0.163823
-0.910145 2.371047 -0.256693 0.822194 0.126906
0.003228 2.371048 -0.256693 0.888014 0.163823
0.003228 2.753847 -0.597150 0.908720 0.126906
-0.910145 2.761428 -0.604728 0.864535 0.416151
-1.823518 2.765070 -0.608956 0.789223 0.415695
-1.823518 2.371047 -0.256693 0.789223 0.459275
-1.823518 2.371047 -0.256693 0.650148 0.163823
-0.910145 2.371047 -0.256693 0.725460 0.163823
-0.910145 2.761428 -0.604728 0.725460 0.120699
-1.823518 2.341830 -1.719957 0.054557 0.434535
-1.823518 1.427532 -1.719957 0.054557 0.514416
-1.823518 1.427533 -0.925069 0.124006 0.514416
-1.823518 2.341830 -0.925069 0.124006 0.434535
-1.823518 0.513235 -1.719957 0.054557 0.594298
-1.823518 0.513235 -0.925069 0.124006 0.594298
-1.823518 -0.401062 -1.719957 0.054557 0.674179
-1.823518 -0.401062 -0.925069 0.124006 0.674179
-1.823518 -1.315360 -1.719957 0.054557 0.754061
-1.823518 -1.315360 -0.925069 0.124006 0.754061
-1.823518 -2.229657 -1.719957 0.054557 0.833942
-1.823518 -2.229657 -0.925069 0.124006 0.833942
-1.899524 2.341830 -0.925069 0.665085 0.417289
-1.899524 1.427533 -0.925069 0.666043 0.497162
-1.899524 1.427532 -0.678668 0.687569 0.496904
-1.899524 2.705087 -0.726796 0.682026 0.385347
-1.899524 0.513235 -0.925069 0.667001 0.577037
-1.899524 0.513235 -0.678668 0.688527 0.576779
-1.899524 -0.401062 -0.925069 0.667958 0.656913
-1.899524 -0.401062 -0.678668 0.689485 0.656654
-1.899524 -1.315360 -0.925069 0.668917 0.736787
-1.899524 -1.315360 -0.694180 0.689088 0.736545
-1.899524 -2.229657 -0.925069 0.669876 0.816660
-1.899524 -2.645484 -0.717532 0.688442 0.852769
-1.899524 1.427532 -0.278799 0.722502 0.496485
-1.899524 2.341830 -0.399718 0.710980 0.416738
-1.899524 0.513235 -0.278799 0.723460 0.576360
-1.899524 -0.401063 -0.278799 0.724418 0.656235
-1.899524 -1.315360 -0.274740 0.725730 0.736105
-1.899524 -2.229657 -0.433679 0.712804 0.816145
-1.823518 -1.315360 -2.344399 0.000000 0.754061
-1.823518 -2.229657 -1.719957 0.738821 0.619000
-1.823518 -1.315360 -2.344399 0.835555 0.619000
-1.823518 -1.813951 -2.344399 0.799583 0.594432
-1.823518 -0.401062 -2.344399 0.000000 0.674179
-1.823518 -0.401062 -2.344399 0.835555 0.594432
-1.823518 -1.315360 -2.344399 0.769590 0.549379
-1.823518 -1.315360 -1.719957 0.738821 0.594432
-1.823518 0.513235 -2.344399 0.000000 0.594298
-1.823518 0.513235 -2.344399 0.843617 0.208875
-1.823518 -0.401062 -2.344399 0.777652 0.163823
-1.823518 -0.401062 -1.719957 0.746882 0.208875
-1.823518 1.427532 -2.344399 0.000000 0.514416
-1.823518 1.427532 -2.344399 0.746882 0.208875
-1.823518 0.513235 -2.344399 0.680918 0.163823
-1.823518 0.513235 -1.719957 0.650148 0.208875
-1.823518 2.001844 -2.344399 0.000000 0.464239
-1.823518 2.001844 -2.344399 0.875755 0.283249
-1.823518 1.427532 -2.344399 0.912688 0.249282
-1.823518 1.427532 -1.719957 0.875755 0.209126
-1.823518 2.811008 -1.719957 0.835555 0.632072
-0.910145 2.811008 -1.719957 0.915356 0.632072
-0.910145 2.592677 -2.091350 0.915356 0.594432
-1.823518 2.592677 -2.091350 0.835555 0.594432
-0.910145 2.056574 -1.292348 0.895191 0.875994
-0.910145 1.427533 -1.719957 0.867193 0.936263
-0.910145 1.427533 -2.344399 0.895191 0.983088
-0.910145 1.427533 -2.344399 0.001139 0.336455
-0.910145 2.001844 -2.344399 0.044205 0.310705
-0.910145 2.056574 -1.292348 0.001139 0.229360
-0.910145 1.427533 -1.719957 0.835555 0.549379
-0.910145 0.513235 -1.719957 0.769590 0.504327
-0.910145 0.513235 -2.344399 0.738821 0.549379
-0.910145 0.513235 -2.344399 0.748238 0.930551
-0.910145 1.427533 -2.344399 0.828120 0.930551
-0.910145 1.427533 -1.719957 0.828120 0.875994
-0.910145 0.513235 -1.719957 0.828120 0.930551
-0.910145 -0.401062 -1.719957 0.748238 0.930551
-0.910145 -0.401062 -2.344399 0.748238 0.985108
-0.910145 -0.401062 -2.344399 0.263211 0.164179
-0.910145 0.513235 -2.344399 0.329175 0.209231
-0.910145 0.513235 -1.719957 0.359945 0.164179
-0.910145 -0.401062 -1.719957 0.818702 0.664616
-0.910145 -1.315360 -1.719957 0.738821 0.664616
-0.910145 -1.315360 -2.344399 0.738821 0.719173
-0.910145 -1.315360 -2.344399 0.124012 0.164179
-0.910145 -0.401062 -2.344399 0.189977 0.209231
-0.910145 -0.401062 -1.719957 0.220747 0.164179
-0.910145 -1.315360 -1.719957 0.748238 0.924465
-0.910145 -1.873811 -1.193464 0.701902 0.875994
-0.910145 -1.813951 -2.344399 0.701902 0.976686
-0.910145 -1.813951 -2.344399 0.895191 0.945808
-0.910145 -1.315360 -2.344399 0.929232 0.918628
-0.910145 -1.315360 -1.719957 0.895191 0.875994
-0.910145 -2.710966 -1.719957 0.915356 0.459275
-1.823518 -2.710966 -1.719957 0.835555 0.459275
-1.823518 -2.465311 -2.093775 0.835555 0.498356
-0.910145 -2.465311 -2.093775 0.915356 0.498356
0.916602 -1.873811 -1.193464 0.024955 0.117592
0.916602 -1.315360 -1.719957 0.001139 0.180276
0.916602 -1.315360 -2.344399 0.024955 0.229360
0.916602 -1.315360 -2.344399 0.738821 0.875994
0.916602 -1.813951 -2.344399 0.778012 0.856977
0.916602 -1.873811 -1.193464 0.738821 0.764225
0.916602 -1.315360 -1.719957 0.027272 0.174270
0.916602 -0.401062 -1.719957 0.093236 0.219322
0.916602 -0.401062 -2.344399 0.124006 0.174270
0.916602 -0.401062 -2.344399 0.835555 0.664616
0.916602 -1.315360 -2.344399 0.769590 0.619563
0.916602 -1.315360 -1.719957 0.738821 0.664616
0.916602 -0.401062 -1.719957 0.778012 0.764225
0.916602 0.513235 -1.719957 0.843977 0.809277
0.916602 0.513235 -2.344399 0.874747 0.764225
0.916602 0.513235 -2.344399 0.124006 0.174270
0.916602 -0.401062 -2.344399 0.058041 0.129218
0.916602 -0.401062 -1.719957 0.027272 0.174270
0.916602 0.513235 -1.719957 0.738821 0.459275
0.916602 1.427533 -1.719957 0.804785 0.504327
0.916602 1.427532 -2.344399 0.835555 0.459275
0.916602 1.427532 -2.344399 0.650148 0.208875
0.916602 0.513235 -2.344399 0.584183 0.163823
0.916602 0.513235 -1.719957 0.553414 0.208875
0.916602 1.427533 -1.719957 0.701902 0.916158
0.916602 2.056574 -1.292348 0.648958 0.875994
0.916602 2.001844 -2.344399 0.648958 0.968035
0.916602 2.001844 -2.344399 0.868055 0.351991
0.916602 1.427532 -2.344399 0.918232 0.351992
0.916602 1.427533 -1.719957 0.918232 0.297435
0.916602 2.811008 -1.719957 0.645659 0.120699
1.829975 2.811008 -1.719957 0.725460 0.120699
1.829975 2.592677 -2.091350 0.725460 0.083059
0.916602 2.592677 -2.091350 0.645659 0.083059
1.829975 1.427533 -2.344399 0.370117 1.000000
1.829975 1.427533 -2.344399 0.835555 0.636316
1.829975 2.001844 -2.344399 0.876990 0.664616
1.829975 2.341830 -1.719957 0.932289 0.636316
1.829975 0.513235 -2.344399 0.290235 1.000000
1.829975 0.513235 -2.344399 0.738821 0.719173
1.829975 1.427533 -2.344399 0.804785 0.764225
1.829975 1.427532 -1.719957 0.835555 0.719173
1.829975 -0.401062 -2.344399 0.210354 1.000000
1.829975 -0.401062 -2.344399 0.456679 0.163823
1.829975 0.513235 -2.344399 0.522644 0.208875
1.829975 0.513235 -1.719957 0.553414 0.163823
1.829975 -1.315360 -2.344399 0.130472 1.000000
1.829975 -1.315360 -2.344399 0.359945 0.164179
1.829975 -0.401062 -2.344399 0.425910 0.209231
1.829975 -0.401062 -1.719957 0.456679 0.164179
1.829975 -1.813951 -2.344399 0.086910 1.000000
1.829975 -1.813951 -2.344399 0.226390 0.131230
1.829975 -1.315360 -2.344399 0.260431 0.104049
1.829975 -1.315360 -1.719957 0.226390 0.061415
1.829975 -2.710966 -1.719957 0.456679 0.086218
0.916602 -2.710966 -1.719957 0.376879 0.086218
0.916602 -2.465311 -2.093775 0.376879 0.125299
1.829975 -2.465311 -2.093775 0.456679 0.125299
1.829975 2.811008 -1.719957 0.490991 0.945443
1.829975 2.811008 -1.719957 0.604099 0.767406
1.829975 2.879931 -1.279103 0.628863 0.737297
1.829975 2.341830 -0.925069 0.604099 0.686762
1.829975 2.341830 -1.719957 0.915146 0.352297
1.829975 2.001844 -2.344399 0.915146 0.414416
1.829975 2.592677 -2.091350 0.949911 0.370315
1.829975 2.592677 -2.091350 0.025130 0.092775
1.829975 2.811008 -1.719957 0.044205 0.060327
1.829975 2.341830 -1.719957 0.003213 0.060327
1.829975 2.001844 -2.344399 0.124006 0.219322
0.916602 2.001844 -2.344399 0.044205 0.219322
0.916602 2.592677 -2.091350 0.044205 0.275478
1.829975 2.592677 -2.091350 0.124006 0.275478
0.916602 2.001844 -2.344399 0.619796 0.609390
0.916602 2.056574 -1.292348 0.619795 0.517349
0.916602 2.811008 -1.719957 0.552029 0.551234
0.916602 2.811008 -1.719957 0.867312 0.823312
0.916602 2.592677 -2.091350 0.832386 0.809277
0.916602 2.001844 -2.344399 0.778012 0.823312
0.916602 2.056574 -1.292348 0.653514 0.051375
0.916602 2.341830 -0.925069 0.678950 0.083059
0.916602 2.879931 -1.279103 0.725460 0.051375
0.916602 2.879931 -1.279103 0.926547 0.452173
0.916602 2.811008 -1.719957 0.940301 0.415695
0.916602 2.056574 -1.292348 0.864535 0.415695
0.916602 2.341830 -0.925069 0.915146 0.361302
0.916602 2.705087 -0.726796 0.879408 0.366792
0.916602 2.828554 -0.926368 0.881415 0.387197
0.916602 2.879931 -1.279103 0.896548 0.414416
0.916602 2.761427 -0.604728 0.277193 0.031876
1.829975 2.765070 -0.608956 0.352347 0.055524
1.829975 2.913972 -0.855430 0.359945 0.031876
1.829975 2.913972 -0.855430 0.220747 0.056647
0.916602 2.913972 -0.855430 0.145738 0.032547
0.916602 2.761427 -0.604728 0.137994 0.056647
1.905981 2.879931 -1.279103 0.625334 0.869297
1.905981 2.828553 -0.926368 0.620800 0.838486
-0.910145 2.341830 -0.925069 0.841414 0.549379
-0.910145 2.056574 -1.292348 0.835555 0.589585
-0.910145 2.811008 -1.719957 0.911321 0.589585
-0.910145 2.811008 -1.719957 0.915356 0.539919
-0.910145 2.879931 -1.279103 0.940120 0.509810
-0.910145 2.341830 -0.925069 0.915356 0.459275
-0.910145 2.056574 -1.292348 0.738821 0.367234
-0.910145 2.001844 -2.344399 0.738821 0.459275
-0.910145 2.592677 -2.091350 0.789223 0.434514
-0.910145 2.592677 -2.091350 0.936245 0.867401
-0.910145 2.811008 -1.719957 0.936840 0.829765
-0.910145 2.056574 -1.292348 0.861074 0.829765
-0.910145 2.001844 -2.344399 0.791626 0.297435
-1.823518 2.001844 -2.344399 0.711825 0.297435
-1.823518 2.592677 -2.091350 0.711825 0.353590
-0.910145 2.592677 -2.091350 0.791626 0.353590
-1.823518 2.001844 -2.344399 0.874747 0.802833
-1.823518 2.341830 -1.719957 0.931594 0.827877
-1.823518 2.811008 -1.719957 0.964046 0.802833
-1.823518 2.811008 -1.719957 0.908002 0.719173
-1.823518 2.592677 -2.091350 0.873076 0.705138
-1.823518 2.001844 -2.344399 0.818702 0.719173
-1.823518 2.879931 -1.279103 0.093074 0.387521
-1.823518 2.879931 -1.279103 0.969497 0.163823
-1.823518 2.811008 -1.719957 0.940429 0.137844
-1.823518 2.341830 -1.719957 0.908720 0.163823
-1.899524 2.828553 -0.926368 0.664462 0.374770
-1.899524 2.879931 -1.279103 0.633593 0.370651
-1.823518 2.765070 -0.608956 0.739539 0.033275
-0.910145 2.761428 -0.604728 0.814579 0.057431
-0.910145 2.913972 -0.855430 0.822194 0.033275
-0.910145 2.913972 -0.855430 0.124006 0.033338
-1.823518 2.913972 -0.855430 0.045043 0.033338
-1.823518 2.765070 -0.608956 0.045043 0.058233
-0.910145 2.705087 -0.726796 0.912183 0.951172
-0.910145 2.341830 -0.925069 0.895191 0.983088
-0.910145 2.879931 -1.279103 0.951468 0.983088
-0.910145 2.879931 -1.279103 0.368272 0.125299
-0.910145 2.828554 -0.926368 0.368555 0.094157
-0.910145 2.705087 -0.726796 0.360564 0.075274
-0.910145 -1.873811 -1.193464 0.822194 0.085619
-0.910145 -2.229657 -0.925069 0.795326 0.057431
-0.910145 -2.808696 -1.347353 0.739415 0.085619
-0.910145 -2.808696 -1.347353 0.799454 0.209126
-0.910145 -2.710966 -1.719957 0.789351 0.241229
-0.910145 -1.873811 -1.193464 0.875755 0.241229
-0.910145 -2.229657 -0.925069 0.949582 0.071302
-0.910145 -2.645484 -0.717532 0.908978 0.071302
-0.910145 -2.767758 -0.996873 0.910318 0.097910
-0.910145 -2.808696 -1.347353 0.920793 0.126906
-0.910207 -2.700265 -0.593776 0.220747 0.086081
-1.823518 -2.707602 -0.602371 0.147664 0.056647
-1.823518 -2.857532 -0.940254 0.135402 0.086081
-1.823518 -2.857532 -0.940254 0.615458 0.968035
-0.910145 -2.857532 -0.940254 0.689122 0.998724
-0.910207 -2.700265 -0.593776 0.701902 0.968035
-1.899524 -2.808696 -1.347353 0.633592 0.867687
-1.899524 -2.767758 -0.996873 0.664167 0.863744
-1.823518 -2.710966 -1.719957 0.054557 0.875994
-1.823518 -2.710966 -1.719957 0.915356 0.624500
-1.823518 -2.808696 -1.347353 0.939521 0.601076
-1.823518 -2.229657 -0.925069 0.915356 0.543312
-1.823518 -2.229657 -1.719957 0.874747 0.802833
-1.823518 -1.813951 -2.344399 0.934565 0.776050
-1.823518 -2.465311 -2.093775 0.874747 0.764225
-1.823518 -2.229657 -1.719957 0.648770 0.936186
-1.823518 -2.465311 -2.093775 0.613628 0.920199
-1.823518 -2.710966 -1.719957 0.613628 0.959280
-1.823518 -1.813951 -2.344399 0.044205 0.336455
-0.910145 -1.813951 -2.344399 0.124006 0.336455
-0.910145 -2.465311 -2.093775 0.124006 0.275478
-1.823518 -2.465311 -2.093775 0.044205 0.275478
-0.910145 -1.813951 -2.344399 0.552029 0.609390
-0.910145 -1.873811 -1.193464 0.490286 0.529850
-0.910145 -2.710966 -1.719957 0.456538 0.609390
-0.910145 -2.710966 -1.719957 0.524918 0.672220
-0.910145 -2.465311 -2.093775 0.561193 0.686762
-0.910145 -1.813951 -2.344399 0.620410 0.672220
0.916602 -2.229657 -0.925069 0.346111 0.125581
0.916602 -1.873811 -1.193464 0.359945 0.089180
0.916602 -2.710966 -1.719957 0.273541 0.089180
0.916602 -2.710966 -1.719957 0.915356 0.758158
0.916602 -2.808696 -1.347353 0.939521 0.734733
0.916602 -2.229657 -0.925069 0.915356 0.676970
0.916602 -1.873811 -1.193464 0.632025 0.353590
0.916602 -1.813951 -2.344399 0.572439 0.434760
0.916602 -2.465311 -2.093775 0.632025 0.447708
0.916602 -2.465311 -2.093775 0.828120 0.961617
0.916602 -2.710966 -1.719957 0.867193 0.962398
0.916602 -1.873811 -1.193464 0.867193 0.875994
0.916602 -1.813951 -2.344399 0.632025 0.353590
1.829975 -1.813951 -2.344399 0.711825 0.353590
1.829975 -2.465311 -2.093775 0.711825 0.292614
0.916602 -2.465311 -2.093775 0.632025 0.292614
1.829975 -1.813951 -2.344399 0.917686 0.058279
1.829975 -2.229657 -1.719957 0.856707 0.034254
1.829975 -2.710966 -1.719957 0.822194 0.058279
1.829975 -2.710966 -1.719957 0.748238 0.985108
1.829975 -2.465311 -2.093775 0.784513 0.999650
1.829975 -1.813951 -2.344399 0.843730 0.985108
1.829975 -2.808696 -1.347353 0.000000 0.912888
1.829975 -2.808696 -1.347353 0.791626 0.343514
1.829975 -2.710966 -1.719957 0.816423 0.366269
1.829975 -2.229657 -1.719957 0.851786 0.343514
1.905981 -2.767758 -0.996873 0.131857 0.845366
1.905981 -2.808696 -1.347353 0.128326 0.875994
1.829975 -2.707602 -0.602371 0.641096 0.054263
0.916664 -2.700265 -0.593776 0.562229 0.053338
0.916602 -2.857532 -0.940254 0.562229 0.086195
0.916602 -2.857532 -0.940254 0.822194 0.090248
1.829975 -2.857532 -0.940254 0.901187 0.090249
1.829975 -2.707602 -0.602371 0.901187 0.058279
0.916602 -2.645483 -0.717532 0.953292 0.209126
0.916602 -2.229657 -0.925069 0.912688 0.209126
0.916602 -2.808696 -1.347353 0.941477 0.264729
0.916602 -2.808696 -1.347353 0.619796 0.574194
0.916602 -2.767758 -0.996873 0.624015 0.543654
0.916602 -2.645483 -0.717532 0.619796 0.517349
1.905981 -2.254925 -0.288864 0.543830 0.526983
1.905981 -1.320641 -0.124963 0.543829 0.447936
1.829975 -2.254925 -0.288864 0.620548 0.335292
1.829975 -2.707602 -0.602371 0.572439 0.335292
1.905981 -2.707602 -0.602371 0.572439 0.341932
1.905981 -2.254925 -0.288864 0.620548 0.341932
1.905981 -2.857532 -0.940254 0.907760 0.090249
1.905981 -2.707602 -0.602371 0.907760 0.058279
1.829975 -2.857532 -0.940254 0.546779 0.087157
1.829975 -2.904095 -1.320675 0.546780 0.120610
1.905981 -2.904095 -1.320675 0.553414 0.120610
1.905981 -2.857532 -0.940254 0.553413 0.087157
1.829975 -2.808696 -1.347353 0.711825 0.289307
1.829975 -2.229657 -0.925069 0.773578 0.297435
1.905981 -2.229657 -0.925069 0.774440 0.289307
1.905981 -2.229657 -0.925069 0.616095 0.297241
1.905981 -2.808696 -1.347353 0.554342 0.289114
1.829975 -2.808696 -1.347353 0.553480 0.297241
1.829975 -2.229657 -0.925069 0.918232 0.307885
1.829975 -1.315360 -0.925069 0.998205 0.307885
1.905981 -1.315360 -0.925069 0.997705 0.297435
1.905981 -1.315360 -0.925069 0.725460 0.008892
1.905981 -2.229657 -0.925069 0.645578 0.005070
1.829975 -2.229657 -0.925069 0.645578 0.015532
1.829975 -1.315360 -0.925069 0.140865 0.017050
1.829975 -0.401062 -0.925069 0.220747 0.020872
1.905981 -0.401062 -0.925069 0.220747 0.010409
1.905981 -0.401062 -0.925069 0.725460 0.015532
1.905981 -1.315360 -0.925069 0.645487 0.015532
1.829975 -1.315360 -0.925069 0.645987 0.025983
1.829975 -0.401062 -0.925069 0.376707 0.026516
1.829975 0.513235 -0.925069 0.456679 0.026516
1.905981 0.513235 -0.925069 0.456179 0.016065
1.905981 0.513235 -0.925069 0.553414 0.010417
1.905981 -0.401062 -0.925069 0.473532 0.006595
1.829975 -0.401062 -0.925069 0.473532 0.017057
1.829975 0.513235 -0.925069 0.917686 0.054457
1.829975 1.427532 -0.925069 0.997567 0.058279
1.905981 1.427532 -0.925069 0.997567 0.047817
1.905981 1.427532 -0.925069 0.992569 0.276608
1.905981 0.513235 -0.925069 0.912688 0.272786
1.829975 0.513235 -0.925069 0.912688 0.283249
1.829975 1.427532 -0.925069 0.908720 0.134022
1.829975 2.341830 -0.925069 0.988602 0.137844
1.905981 2.341830 -0.925069 0.988602 0.127382
1.905981 2.341830 -0.925069 0.987642 0.062101
1.905981 1.427532 -0.925069 0.907760 0.058279
1.829975 1.427532 -0.925069 0.907760 0.068742
1.829975 2.341830 -0.925069 0.220747 0.049352
1.829975 2.879931 -1.279103 0.276162 0.056647
1.905981 2.879931 -1.279103 0.277023 0.049352
1.905981 2.879931 -1.279103 0.917351 0.875994
1.905981 2.341830 -0.925069 0.861935 0.868699
1.829975 2.341830 -0.925069 0.861074 0.875994
1.905981 2.913972 -0.855430 0.220747 0.120620
1.905981 2.913972 -0.855430 0.875637 0.241229
1.905981 2.974504 -1.246125 0.869190 0.274764
1.829975 2.974504 -1.246125 0.875637 0.276004
1.829975 2.913972 -0.855430 0.465003 0.129281
1.829975 2.765070 -0.608956 0.465003 0.104122
1.905981 2.765070 -0.608956 0.458363 0.104122
1.905981 2.913972 -0.855430 0.458363 0.129281
1.829975 2.765070 -0.608956 0.748079 0.992084
1.829975 2.371047 -0.256693 0.701902 0.992084
1.905981 2.371047 -0.256693 0.701902 0.998724
1.905981 2.765070 -0.608956 0.748079 0.998724
1.905981 1.431664 -0.128935 0.456538 0.608319
1.905981 2.371047 -0.256693 0.456538 0.527509
1.905981 0.513235 -0.128799 0.789351 0.287348
1.905981 1.431664 -0.128935 0.789351 0.208875
1.905981 -0.400923 -0.128799 0.456679 0.287360
1.905981 0.513235 -0.128799 0.456679 0.209231
1.905981 -1.320641 -0.124963 0.456679 0.366914
1.905981 -0.400923 -0.128799 0.456679 0.288337
-1.823518 -2.254925 -0.288864 0.470540 0.027881
-1.823518 -1.320642 -0.124963 0.553414 0.027881
-1.899524 -1.320642 -0.124963 0.552864 0.017057
-1.899524 -2.254925 -0.288864 0.469990 0.017057
-1.899524 -0.400923 -0.128799 0.124006 0.289329
-1.899524 -1.320642 -0.124963 0.124006 0.367907
-1.899524 0.513235 -0.128799 0.124012 0.210208
-1.899524 -0.400923 -0.128799 0.124012 0.288337
-1.899524 1.431664 -0.128935 0.456679 0.209864
-1.899524 0.513235 -0.128799 0.456679 0.288337
-1.899524 2.371047 -0.256693 0.124006 0.528581
-1.899524 1.431664 -0.128935 0.124006 0.609390
-1.823518 2.371047 -0.256693 0.864535 0.459275
-1.823518 2.765070 -0.608956 0.910712 0.459275
-1.899524 2.765070 -0.608956 0.910712 0.452634
-1.899524 2.371047 -0.256693 0.864535 0.452634
-1.899524 2.913972 -0.855430 0.038472 0.033338
-1.899524 2.765070 -0.608956 0.038472 0.058233
-1.823518 2.913972 -0.855430 0.732244 0.129281
-1.823518 2.974504 -1.246125 0.732244 0.163823
-1.899524 2.974504 -1.246125 0.738884 0.163823
-1.899524 2.913972 -0.855430 0.738884 0.129281
-1.823518 2.879931 -1.279103 0.830716 0.296602
-1.823518 2.341830 -0.925069 0.775301 0.289307
-1.899524 2.341830 -0.925069 0.774440 0.296602
-1.899524 2.341830 -0.925069 0.220747 0.042057
-1.899524 2.879931 -1.279103 0.276162 0.049352
-1.823518 2.879931 -1.279103 0.277023 0.042057
-1.823518 2.341830 -0.925069 0.997567 0.038076
-1.823518 1.427533 -0.925069 0.917686 0.034254
-1.899524 1.427533 -0.925069 0.917686 0.044716
-1.899524 1.427533 -0.925069 0.376798 0.012243
-1.899524 2.341830 -0.925069 0.456679 0.016065
-1.823518 2.341830 -0.925069 0.456679 0.005602
-1.823518 1.427533 -0.925069 0.124006 0.014750
-1.823518 0.513235 -0.925069 0.044124 0.010928
-1.899524 0.513235 -0.925069 0.044124 0.021390
-1.899524 0.513235 -0.925069 0.905612 0.671256
-1.899524 1.427533 -0.925069 0.985494 0.675078
-1.823518 1.427533 -0.925069 0.985494 0.664616
-1.823518 0.513235 -0.925069 0.981823 0.012204
-1.823518 -0.401062 -0.925069 0.901850 0.012204
-1.899524 -0.401062 -0.925069 0.902350 0.022654
-1.899524 -0.401062 -0.925069 0.561123 0.027480
-1.899524 0.513235 -0.925069 0.641096 0.027480
-1.823518 0.513235 -0.925069 0.640595 0.017029
-1.823518 -0.401062 -0.925069 0.359945 0.013440
-1.823518 -1.315360 -0.925069 0.280063 0.009618
-1.899524 -1.315360 -0.925069 0.280063 0.020081
-1.899524 -1.315360 -0.925069 0.742313 0.017502
-1.899524 -0.401062 -0.925069 0.822194 0.021324
-1.823518 -0.401062 -0.925069 0.822194 0.010861
-1.823518 -1.315360 -0.925069 0.995329 0.624500
-1.823518 -2.229657 -0.925069 0.915356 0.624500
-1.899524 -2.229657 -0.925069 0.915856 0.634951
-1.899524 -2.229657 -0.925069 0.561214 0.013207
-1.899524 -1.315360 -0.925069 0.641096 0.017029
-1.823518 -1.315360 -0.925069 0.641096 0.006566
-1.823518 -2.229657 -0.925069 0.520004 0.297241
-1.823518 -2.808696 -1.347353 0.458252 0.289114
-1.899524 -2.808696 -1.347353 0.457390 0.297241
-1.899524 -2.808696 -1.347353 0.714374 0.353590
-1.899524 -2.229657 -0.925069 0.776127 0.361718
-1.823518 -2.229657 -0.925069 0.776989 0.353590
-1.823518 -2.904095 -1.320675 0.850251 0.208875
-1.823518 -2.857532 -0.940254 0.850251 0.175422
-1.899524 -2.857532 -0.940254 0.843617 0.175421
-1.899524 -2.904095 -1.320675 0.843617 0.208874
-1.823518 -2.857532 -0.940254 0.270881 0.130935
-1.823518 -2.707602 -0.602371 0.270881 0.098638
-1.899524 -2.707602 -0.602371 0.264241 0.098638
-1.899524 -2.857532 -0.940254 0.264241 0.130935
-1.899524 -2.254925 -0.288864 0.778012 0.829765
-1.899524 -2.707602 -0.602371 0.778012 0.875994
-1.823518 -2.808696 -1.347353 0.918232 0.331168
-0.910145 -2.808696 -1.347353 0.997338 0.341580
-0.910145 -2.904095 -1.320675 0.998467 0.331168
-0.910145 -2.904095 -1.320675 0.998467 0.318297
-1.823518 -2.904095 -1.320675 0.919362 0.307885
-1.823518 -2.808696 -1.347353 0.918232 0.318297
-0.910145 -2.808696 -1.347353 0.359945 0.164179
-0.910145 -2.767758 -0.996873 0.367144 0.134201
-0.910145 -2.857532 -0.940254 0.359945 0.128356
-0.910145 -2.857532 -0.940254 0.650148 0.128000
-0.910145 -2.904095 -1.320675 0.642150 0.160516
-0.910145 -2.808696 -1.347353 0.650148 0.163823
-0.910145 -2.767758 -0.996873 0.725460 0.163823
-0.910145 -2.645484 -0.717532 0.731966 0.137988
-0.910207 -2.700265 -0.593776 0.725460 0.128114
-0.910207 -2.700265 -0.593776 0.632184 0.478682
-0.910145 -2.857532 -0.940254 0.623631 0.510807
-0.910145 -2.767758 -0.996873 0.632184 0.514391
-0.910145 -2.645484 -0.717532 0.644642 0.025983
0.003228 -2.635557 -0.708671 0.723457 0.038291
0.003228 -2.674441 -0.571265 0.725460 0.025983
0.003228 -2.674441 -0.571265 0.220747 0.032547
-0.910207 -2.700265 -0.593776 0.141767 0.020872
-0.910145 -2.645484 -0.717532 0.139914 0.032547
0.003228 -2.635557 -0.708671 0.280333 0.031556
0.916602 -2.645483 -0.717532 0.359945 0.031876
0.916664 -2.700265 -0.593776 0.359945 0.020081
0.916664 -2.700265 -0.593776 0.901850 0.023083
0.003228 -2.674441 -0.571265 0.822194 0.021808
0.003228 -2.635557 -0.708671 0.822194 0.034254
0.916602 -2.857532 -0.940254 0.632848 0.540833
0.916602 -2.857532 -0.940254 0.270881 0.164179
0.916664 -2.700265 -0.593776 0.270881 0.130935
0.916602 -2.645483 -0.717532 0.262054 0.138802
0.916602 -2.808696 -1.347353 0.619796 0.574194
0.916602 -2.904095 -1.320675 0.628449 0.574028
0.916602 -2.808696 -1.347353 0.918232 0.341580
1.829975 -2.808696 -1.347353 0.997338 0.351992
1.829975 -2.904095 -1.320675 0.998467 0.341580
1.829975 -2.904095 -1.320675 0.982085 0.012204
0.916602 -2.904095 -1.320675 0.902979 0.001792
0.916602 -2.808696 -1.347353 0.901850 0.012204
1.829975 -2.808696 -1.347353 0.620410 0.683128
1.905981 -2.808696 -1.347353 0.625678 0.679086
1.905981 -2.904095 -1.320675 0.620410 0.672220
1.905981 -2.904095 -1.320675 0.613628 0.959280
1.829975 -2.904095 -1.320675 0.613628 0.965921
1.829975 -2.808696 -1.347353 0.622282 0.965921
1.905981 -2.857532 -0.940254 0.124006 0.840430
1.905981 -2.857532 -0.940254 0.746882 0.128000
1.905981 -2.904095 -1.320675 0.738885 0.160516
1.905981 -2.808696 -1.347353 0.746882 0.163823
1.905981 -2.707602 -0.602371 0.137062 0.810889
1.905981 -2.707602 -0.602371 0.628295 0.574525
1.905981 -2.857532 -0.940254 0.619796 0.605682
1.905981 -2.767758 -0.996873 0.628295 0.609390
1.905981 -2.254925 -0.288864 0.176573 0.783438
1.905981 -2.254925 -0.288864 0.010788 0.336855
1.905981 -2.707602 -0.602371 0.000000 0.383739
1.905981 -2.645484 -0.717532 0.010788 0.387521
1.905981 -1.320641 -0.124963 0.258184 0.768996
1.905981 -1.320641 -0.124963 0.553414 0.053665
1.905981 -2.254925 -0.288864 0.471517 0.040975
1.905981 -2.229657 -0.433679 0.469538 0.053665
1.905981 -0.400923 -0.128799 0.338542 0.769214
1.905981 -0.400923 -0.128799 0.725460 0.038291
1.905981 -1.320641 -0.124963 0.645104 0.038292
1.905981 -1.315360 -0.274740 0.645620 0.051375
1.905981 0.513235 -0.128799 0.418412 0.769097
1.905981 0.513235 -0.128799 0.641096 0.040410
1.905981 -0.400923 -0.128799 0.562280 0.027480
1.905981 -0.401063 -0.278799 0.560146 0.040410
1.905981 1.431664 -0.128935 0.498654 0.768992
1.905981 1.431664 -0.128935 0.456679 0.039633
1.905981 0.513235 -0.128799 0.376437 0.039621
1.905981 0.513235 -0.278799 0.376437 0.052727
1.905981 2.371047 -0.256693 0.580743 0.780035
1.905981 2.371047 -0.256693 0.714374 0.362486
1.905981 1.431664 -0.128935 0.632025 0.353590
1.905981 1.427532 -0.278799 0.632025 0.366689
1.905981 2.765070 -0.608956 0.615213 0.810762
1.905981 2.765070 -0.608956 0.748079 0.976686
1.905981 2.371047 -0.256693 0.701902 0.976686
1.905981 2.341830 -0.399718 0.708327 0.987703
1.905981 2.913972 -0.855430 0.628254 0.832277
1.905981 2.913972 -0.855430 0.633440 0.473095
1.905981 2.765070 -0.608956 0.633440 0.447936
1.905981 2.705087 -0.726796 0.623631 0.454039
1.905981 2.974504 -1.246125 0.633592 0.866404
1.905981 2.974504 -1.246125 0.465003 0.163823
1.905981 2.913972 -0.855430 0.465003 0.129281
1.905981 2.828553 -0.926368 0.456679 0.134263
1.905981 2.879931 -1.279103 0.512961 0.914909
1.829975 2.879931 -1.279103 0.516975 0.920199
1.829975 2.974504 -1.246125 0.523946 0.914909
1.829975 2.974504 -1.246125 0.512961 0.920199
1.905981 2.974504 -1.246125 0.508947 0.914909
1.905981 2.879931 -1.279103 0.501976 0.920199
1.829975 2.879931 -1.279103 0.998460 0.328706
0.916602 2.879931 -1.279103 0.919374 0.318297
0.916602 2.974504 -1.246125 0.918232 0.328706
0.916602 2.974504 -1.246125 0.043779 0.000518
1.829975 2.974504 -1.246125 0.122865 0.010928
1.829975 2.879931 -1.279103 0.124006 0.000518
0.916602 2.879931 -1.279103 0.896548 0.414416
0.916602 2.913972 -0.855430 0.871722 0.386799
0.916602 2.913972 -0.855430 0.132018 0.127043
0.916602 2.974504 -1.246125 0.124012 0.160645
0.916602 2.879931 -1.279103 0.132018 0.164179
0.916602 2.761427 -0.604728 0.869024 0.361302
0.916602 2.705087 -0.726796 0.124006 0.033338
0.003228 2.705087 -0.726796 0.045217 0.021390
0.003228 2.753847 -0.597150 0.043405 0.033338
0.003228 2.753847 -0.597150 0.843617 0.163824
0.916602 2.761427 -0.604728 0.922463 0.175421
0.916602 2.705087 -0.726796 0.924218 0.163824
0.003228 2.705087 -0.726796 0.982360 0.034254
-0.910145 2.705087 -0.726796 0.903557 0.022654
-0.910145 2.761428 -0.604728 0.901850 0.034254
-0.910145 2.761428 -0.604728 0.741684 0.021324
0.003228 2.753847 -0.597150 0.820440 0.033275
0.003228 2.705087 -0.726796 0.822194 0.021324
-0.910145 2.913972 -0.855430 0.376879 0.089175
-0.910145 2.761428 -0.604728 0.367062 0.065489
-0.910145 2.879931 -1.279103 0.368272 0.125299
-0.910145 2.974504 -1.246125 0.376879 0.123717
-0.910145 2.879931 -1.279103 0.220747 0.010409
-1.823518 2.879931 -1.279103 0.141661 0.000000
-1.823518 2.974504 -1.246125 0.140519 0.010409
-1.823518 2.974504 -1.246125 0.741967 0.000452
-0.910145 2.974504 -1.246125 0.821053 0.010861
-0.910145 2.879931 -1.279103 0.822194 0.000452
-1.823518 2.879931 -1.279103 0.517515 0.666870
-1.899524 2.879931 -1.279103 0.521530 0.672160
-1.899524 2.974504 -1.246125 0.528500 0.666870
-1.899524 2.974504 -1.246125 0.501976 0.920199
-1.823518 2.974504 -1.246125 0.497961 0.914909
-1.823518 2.879931 -1.279103 0.490991 0.920199
-1.899524 2.913972 -0.855430 0.670569 0.367234
-1.899524 2.913972 -0.855430 0.020158 0.350386
-1.899524 2.974504 -1.246125 0.012152 0.383987
-1.899524 2.879931 -1.279103 0.020158 0.387521
-1.899524 2.765070 -0.608956 0.692257 0.379983
-1.899524 2.765070 -0.608956 0.477948 0.135541
-1.899524 2.913972 -0.855430 0.469414 0.159209
-1.899524 2.828553 -0.926368 0.477948 0.163823
-1.899524 2.371047 -0.256693 0.723444 0.414036
-1.899524 2.371047 -0.256693 0.632025 0.303205
-1.899524 2.765070 -0.608956 0.621789 0.348233
-1.899524 2.705087 -0.726796 0.632025 0.353590
-1.899524 1.431664 -0.128935 0.735590 0.495967
-1.899524 1.431664 -0.128935 0.875755 0.290513
-1.899524 2.371047 -0.256693 0.958402 0.296003
-1.899524 2.341830 -0.399718 0.958402 0.283249
-1.899524 0.513235 -0.128799 0.736565 0.576202
-1.899524 0.513235 -0.128799 0.473171 0.040963
-1.899524 1.431664 -0.128935 0.553414 0.040975
-1.899524 1.427532 -0.278799 0.553057 0.027881
-1.899524 -0.400923 -0.128799 0.737522 0.656066
-1.899524 -0.400923 -0.128799 0.376810 0.039621
-1.899524 0.513235 -0.128799 0.456679 0.039621
-1.899524 0.513235 -0.278799 0.456679 0.026516
-1.899524 -1.320642 -0.124963 0.738821 0.736410
-1.899524 -1.320642 -0.124963 0.559636 0.040410
-1.899524 -0.400923 -0.128799 0.638945 0.053338
-1.899524 -0.401063 -0.278799 0.641096 0.040410
-1.899524 -2.254925 -0.288864 0.725481 0.818200
-1.899524 -2.254925 -0.288864 0.843730 0.986769
-1.899524 -1.320642 -0.124963 0.925811 0.998202
-1.899524 -1.315360 -0.274740 0.925811 0.985108
-1.899524 -2.707602 -0.602371 0.698568 0.858075
-1.899524 -2.707602 -0.602371 0.572439 0.353590
-1.899524 -2.254925 -0.288864 0.620548 0.353590
-1.899524 -2.229657 -0.433679 0.615159 0.341932
-1.899524 -2.857532 -0.940254 0.669208 0.871527
-1.899524 -2.857532 -0.940254 0.145523 0.164179
-1.899524 -2.707602 -0.602371 0.145523 0.131882
-1.899524 -2.645484 -0.717532 0.136482 0.138878
-1.899524 -2.904095 -1.320675 0.636023 0.875994
-1.899524 -2.904095 -1.320675 0.638626 0.163823
-1.899524 -2.857532 -0.940254 0.638626 0.130338
-1.899524 -2.767758 -0.996873 0.630240 0.134295
-1.899524 -2.808696 -1.347353 0.543830 0.527509
-1.823518 -2.808696 -1.347353 0.549099 0.523466
-1.823518 -2.904095 -1.320675 0.543830 0.516600
-1.823518 -2.904095 -1.320675 0.622282 0.959280
-1.899524 -2.904095 -1.320675 0.622282 0.965921
-1.899524 -2.808696 -1.347353 0.630937 0.965921
3 0 1 2
3 3 0 2
3 4 5 6
3 6 7 4
3 7 6 8
3 8 9 7
3 10 11 12
3 12 13 10
3 1 14 15
3 15 2 1
3 16 17 18
3 18 19 16
3 19 18 20
3 20 21 19
3 11 22 23
3 23 12 11
3 14 24 25
3 25 15 14
3 17 26 27
3 27 18 17
3 18 27 28
3 28 20 18
3 22 29 30
3 30 23 22
3 24 31 32
3 32 25 24
3 26 33 34
3 34 27 26
3 27 34 35
3 35 28 27
3 29 36 37
3 37 30 29
3 31 38 39
3 39 32 31
3 40 41 42
3 43 44 45
3 46 47 48
3 49 50 51
3 36 52 53
3 53 37 36
3 54 55 56
3 56 57 54
3 58 59 60
3 61 62 63
3 64 65 66
3 67 68 69
3 70 71 72
3 72 73 70
3 74 75 76
3 76 77 74
3 75 78 79
3 79 76 75
3 78 80 81
3 81 79 78
3 80 82 83
3 83 81 80
3 84 85 86
3 86 87 84
3 85 88 89
3 89 86 85
3 88 90 91
3 91 89 88
3 90 92 93
3 93 91 90
3 94 95 96
3 96 97 94
3 95 98 99
3 99 96 95
3 98 100 101
3 101 99 98
3 100 102 103
3 103 101 100
3 104 105 106
3 106 107 104
3 105 108 109
3 109 106 105
3 108 110 111
3 111 109 108
3 110 112 113
3 113 111 110
3 114 115 116
3 117 118 119
3 120 121 122
3 122 123 120
3 121 124 125
3 125 122 121
3 126 127 128
3 128 129 126
3 130 131 132
3 132 133 130
3 134 135 136
3 137 138 139
3 140 141 142
3 143 144 145
3 146 147 148
3 148 149 146
3 150 151 152
3 153 154 155
3 156 157 158
3 159 160 161
3 162 163 164
3 165 166 167
3 168 169 170
3 171 172 173
3 174 175 176
3 176 177 174
3 175 178 179
3 179 176 175
3 178 180 181
3 181 179 178
3 180 182 183
3 183 181 180
3 182 184 185
3 185 183 182
3 186 187 188
3 188 189 186
3 187 190 191
3 191 188 187
3 190 192 193
3 193 191 190
3 192 194 195
3 195 193 192
3 194 196 197
3 197 195 194
3 198 189 188
3 188 199 198
3 188 191 200
3 200 199 188
3 191 193 201
3 201 200 191
3 193 195 202
3 202 201 193
3 195 197 203
3 203 202 195
3 204 205 206
3 206 207 204
3 208 209 210
3 210 211 208
3 209 212 213
3 213 210 209
3 214 215 216
3 216 217 214
3 218 219 220
3 220 221 218
3 222 223 224
3 224 225 222
3 223 226 227
3 227 224 223
3 228 229 230
3 230 231 228
3 232 233 234
3 235 236 237
3 238 239 240
3 241 242 243
3 244 245 246
3 247 248 249
3 250 251 252
3 253 254 255
3 256 257 258
3 258 259 256
3 257 260 261
3 261 258 257
3 260 262 263
3 263 261 260
3 262 264 265
3 265 263 262
3 264 266 267
3 267 265 264
3 268 269 270
3 270 271 268
3 269 272 273
3 273 270 269
3 272 274 275
3 275 273 272
3 274 276 277
3 277 275 274
3 276 278 279
3 279 277 276
3 271 270 280
3 280 281 271
3 270 273 282
3 282 280 270
3 273 275 283
3 283 282 273
3 275 277 284
3 284 283 275
3 277 279 285
3 285 284 277
3 266 264 286
3 287 288 289
3 264 262 290
3 291 292 293
3 262 260 294
3 295 296 297
3 260 257 298
3 299 300 301
3 257 256 302
3 303 304 305
3 306 307 308
3 308 309 306
3 310 311 312
3 313 314 315
3 316 317 318
3 319 320 321
3 322 323 324
3 325 326 327
3 328 329 330
3 331 332 333
3 334 335 336
3 337 338 339
3 340 341 342
3 342 343 340
3 344 345 346
3 347 348 349
3 350 351 352
3 353 354 355
3 356 357 358
3 359 360 361
3 362 363 364
3 365 366 367
3 368 369 370
3 371 372 373
3 374 375 376
3 376 377 374
3 184 182 378
3 379 380 381
3 182 180 382
3 383 384 385
3 180 178 386
3 387 388 389
3 178 175 390
3 391 392 393
3 175 174 394
3 395 396 397
3 398 399 400
3 400 401 398
3 185 184 402
3 403 404 405
3 406 407 408
3 409 410 411
3 412 413 414
3 414 415 412
3 416 417 418
3 419 420 421
3 422 423 424
3 425 426 427
3 428 429 430
3 430 431 428
3 432 433 434
3 435 436 437
3 197 196 438
3 438 439 197
3 440 441 442
3 443 444 445
3 446 447 448
3 449 450 451
3 452 453 454
3 454 455 452
3 456 457 458
3 459 460 461
3 256 259 462
3 463 464 465
3 268 271 466
3 466 467 268
3 468 469 470
3 471 472 473
3 474 475 476
3 477 478 479
3 480 481 482
3 483 484 485
3 486 487 488
3 488 489 486
3 490 491 492
3 493 494 495
3 279 278 496
3 496 497 279
3 267 266 498
3 499 500 501
3 502 503 504
3 505 506 507
3 508 509 510
3 510 511 508
3 512 513 514
3 515 516 517
3 518 519 520
3 521 522 523
3 524 525 526
3 527 528 529
3 530 531 532
3 532 533 530
3 534 535 536
3 537 538 539
3 174 177 540
3 541 542 543
3 186 189 544
3 544 545 186
3 546 547 548
3 549 550 551
3 552 553 554
3 555 556 557
3 72 71 558
3 558 559 72
3 560 561 562
3 562 563 560
3 551 550 564
3 564 565 551
3 566 567 568
3 568 569 566
3 570 571 572
3 573 574 575
3 576 577 578
3 579 580 581
3 582 583 584
3 585 586 587
3 588 589 590
3 591 592 593
3 594 595 596
3 597 598 599
3 600 601 602
3 603 604 605
3 606 607 608
3 609 610 611
3 218 221 612
3 613 614 615
3 616 617 618
3 618 619 616
3 620 621 622
3 622 623 620
3 113 112 624
3 624 625 113
3 103 102 626
3 626 627 103
3 93 92 628
3 628 629 93
3 83 82 630
3 630 631 83
3 632 633 634
3 634 635 632
3 74 77 636
3 636 637 74
3 84 87 638
3 638 639 84
3 94 97 640
3 640 641 94
3 104 107 642
3 642 643 104
3 644 645 646
3 646 647 644
3 473 472 648
3 648 649 473
3 650 651 652
3 652 653 650
3 654 655 656
3 657 658 659
3 660 661 662
3 663 664 665
3 666 667 668
3 669 670 671
3 672 673 674
3 675 676 677
3 678 679 680
3 681 682 683
3 684 685 686
3 687 688 689
3 690 691 692
3 693 694 695
3 696 697 698
3 698 699 696
3 700 701 702
3 702 703 700
3 155 154 704
3 704 705 155
3 706 707 708
3 709 710 711
3 712 713 714
3 715 716 717
3 718 719 720
3 721 722 723
3 724 725 726
3 727 728 729
3 730 731 732
3 733 734 735
3 557 556 736
3 737 738 739
3 556 740 741
3 741 736 556
3 742 743 744
3 745 746 747
3 748 749 750
3 751 752 753
3 545 544 754
3 755 756 757
3 544 189 758
3 759 760 761
3 189 198 762
3 763 764 765
3 198 199 766
3 767 768 769
3 199 200 770
3 771 772 773
3 200 201 774
3 775 776 777
3 201 202 778
3 779 780 781
3 202 203 782
3 783 784 785
3 203 197 786
3 787 788 789
3 197 439 790
3 791 792 793
3 439 438 794
3 795 796 797
3 798 799 800
3 801 802 803
3 804 805 806
3 807 808 809
3 810 430 811
3 812 813 814
3 430 429 815
3 815 811 430
3 816 817 818
3 819 820 821
3 822 823 824
3 825 826 827
3 479 478 828
3 828 829 479
3 478 830 831
3 831 828 478
3 832 833 834
3 835 836 837
3 838 839 840
3 841 842 843
3 467 466 844
3 845 846 847
3 466 271 848
3 849 850 851
3 271 281 852
3 853 854 855
3 281 280 856
3 857 858 859
3 280 282 860
3 861 862 863
3 282 283 864
3 865 866 867
3 283 284 868
3 869 870 871
3 284 285 872
3 873 874 875
3 285 279 876
3 877 878 879
3 279 497 880
3 881 882 883
3 497 496 884
3 885 886 887
3 888 889 890
3 891 892 893
