ply
format ascii 1.0
comment Created by Blender 2.60 (sub 0) - www.blender.org, source file: ''
element vertex 1067
property float x
property float y
property float z
element face 741
property list uchar uint vertex_indices
end_header
-47.066319 96.348396 152.328674
-47.066319 133.151382 -10.392329
-47.066319 96.348396 -807.671326
-47.066319 137.078384 71.083687
-47.066319 144.348404 152.328674
48.933681 96.348396 152.328674
48.933681 137.078384 71.083687
48.933681 144.348404 152.328674
48.933681 133.151382 -10.392329
48.933681 132.572403 -91.960320
48.933681 135.342422 -173.483337
48.933681 141.457413 -254.823303
48.933681 96.348396 -807.671326
48.933681 150.907425 -335.844299
48.933681 163.675430 -416.409332
48.933681 179.740433 -496.381317
48.933681 199.076431 -575.626282
48.933681 221.648392 -654.011292
48.933681 247.420425 -731.403320
48.933681 276.348389 -807.671326
-47.066319 96.348396 -807.671326
48.933681 276.348389 -807.671326
48.933681 96.348396 -807.671326
-47.066319 276.348389 -807.671326
-47.066319 247.420425 -731.403320
-47.066319 276.348389 -807.671326
-47.066319 221.648392 -654.011292
-47.066319 199.076431 -575.626282
-47.066319 179.740433 -496.381317
-47.066319 163.675430 -416.409332
-47.066319 150.907425 -335.844299
-47.066319 141.457413 -254.823303
-47.066319 135.342422 -173.483337
-47.066319 132.572403 -91.960320
-47.066319 133.151382 -10.392329
48.933681 132.572403 -91.960320
-47.066319 132.572403 -91.960320
48.933681 133.151382 -10.392329
-47.066319 137.078384 71.083687
48.933681 133.151382 -10.392329
-47.066319 133.151382 -10.392329
48.933681 137.078384 71.083687
-47.066319 144.348404 152.328674
48.933681 137.078384 71.083687
-47.066319 137.078384 71.083687
48.933681 144.348404 152.328674
48.933681 96.348396 152.328674
-47.066319 96.348396 152.328674
-47.066319 96.348396 -807.671326
48.933681 96.348396 -807.671326
-47.066319 96.348396 248.328674
48.933681 -95.651604 248.328674
48.933681 96.348396 248.328674
-47.066319 -95.651604 248.328674
-47.066319 144.348404 248.328674
-47.066319 -95.651604 248.328674
-47.066319 96.348396 248.328674
-47.066319 -143.651596 248.328674
-47.066319 144.348404 248.328674
-51.865330 197.396378 248.328674
-47.066319 -143.651596 248.328674
0.933680 204.348404 248.328674
0.933680 144.348404 248.328674
48.933681 144.348404 248.328674
48.933681 144.348404 152.328674
53.732693 197.396378 152.328674
48.933681 96.348396 152.328674
0.933680 204.348404 152.328674
-47.066319 144.348404 152.328674
-51.865330 197.396378 152.328674
-47.066319 -143.651596 152.328674
-51.865330 -196.700607 152.328674
-95.066322 -47.651604 152.328674
-95.066322 48.348396 152.328674
-101.066322 177.017410 152.328674
-143.066315 48.348396 152.328674
-143.315338 144.597427 152.328674
-143.315338 -143.901596 152.328674
-175.735321 -101.651604 152.328674
-175.735321 102.348396 152.328674
-196.115326 -52.450615 152.328674
-196.115326 53.147408 152.328674
-203.066315 0.348396 152.328674
-143.066315 -47.651604 152.328674
-101.066322 -176.321609 152.328674
-143.066315 48.348396 152.328674
-135.796356 -47.651604 71.083687
-143.066315 -47.651604 152.328674
-135.796356 48.348396 71.083687
-95.066322 48.348396 152.328674
-135.796356 48.348396 71.083687
-143.066315 48.348396 152.328674
-131.869354 48.348396 -10.392329
-131.290314 48.348396 -91.960320
-134.060333 48.348396 -173.483337
-140.175323 48.348396 -254.823303
-95.066322 48.348396 -807.671326
-149.625336 48.348396 -335.844299
-162.393341 48.348396 -416.409332
-178.459320 48.348396 -496.381317
-197.794342 48.348396 -575.626282
-220.366302 48.348396 -654.011292
-246.138336 48.348396 -731.403320
-275.066345 48.348396 -807.671326
-95.066322 48.348396 -807.671326
-275.066345 -47.651604 -807.671326
-275.066345 48.348396 -807.671326
-95.066322 -47.651604 -807.671326
-95.066322 48.348396 -807.671326
-95.066322 -47.651604 152.328674
-95.066322 -47.651604 -807.671326
-95.066322 48.348396 152.328674
-143.066315 48.348396 152.328674
-143.066315 -47.651604 248.328674
-143.066315 -47.651604 152.328674
-143.066315 0.348396 248.328674
-143.066315 48.348396 248.328674
-95.066322 -47.651604 248.328674
-143.066315 -47.651604 152.328674
-95.066322 -47.651604 152.328674
-143.066315 -47.651604 248.328674
-143.066315 -47.651604 248.328674
-95.066322 -47.651604 248.328674
-133.715302 -47.651604 248.328674
-143.066315 0.348396 248.328674
-138.159332 -36.921623 248.328674
-138.743317 -32.482597 248.328674
-143.315338 -143.901596 248.328674
-143.315338 144.597427 248.328674
-175.735321 102.348396 248.328674
-175.735321 -101.651604 248.328674
-196.115326 53.147408 248.328674
-196.115326 -52.450615 248.328674
-203.066315 0.348396 248.328674
-143.066315 48.348396 248.328674
-101.066322 177.017410 248.328674
-138.159332 37.618416 248.328674
-133.715302 48.348396 248.328674
-100.889320 102.171394 344.328674
-71.066322 -124.359612 344.328674
-71.066322 125.055367 344.328674
-100.889320 -101.475578 344.328674
-123.773354 72.348396 344.328674
-123.773354 -71.651604 344.328674
-138.159332 37.618416 344.328674
-138.159332 -36.921623 344.328674
-143.066315 0.348396 344.328674
-95.066322 48.348396 248.328674
-51.865330 -196.700607 248.328674
-95.066322 -47.651604 248.328674
-101.066322 -176.321609 248.328674
-133.715302 -47.651604 248.328674
-53.066319 18.348396 344.328674
-36.336338 139.441422 344.328674
-71.066322 0.348396 344.328674
-71.066322 125.055367 344.328674
-71.066322 -124.359612 344.328674
-71.066322 0.348396 344.328674
-36.336338 -138.745590 344.328674
-53.066319 -17.651604 344.328674
-35.066319 -35.651604 344.328674
0.933680 -143.651596 344.328674
-35.066319 36.348396 344.328674
0.933680 144.348404 344.328674
0.933680 -71.651604 344.328674
38.203640 -138.745590 344.328674
18.933680 -53.651604 344.328674
-17.066320 -53.651604 344.328674
38.203640 139.441422 344.328674
54.933681 18.348396 344.328674
72.933678 125.055367 344.328674
36.933681 36.348396 344.328674
18.933680 54.348396 344.328674
0.933680 72.348396 344.328674
-17.066320 54.348396 344.328674
-23.066320 41.917366 -807.671326
42.502651 -23.651604 -807.671326
-33.007359 34.289375 -807.671326
-11.489354 46.712410 -807.671326
0.933680 48.348396 -807.671326
13.357692 46.712410 -807.671326
-11.489354 -46.016594 -807.671326
0.933680 -47.651604 -807.671326
-23.066320 -41.221611 -807.671326
-33.007359 -33.593620 -807.671326
-40.635349 -23.651604 -807.671326
-40.635349 24.348396 -807.671326
-45.430332 -12.075615 -807.671326
-45.430332 12.771370 -807.671326
-47.066319 0.348396 -807.671326
48.933681 -95.651604 152.328674
-23.066320 -41.221611 152.328674
-11.489354 -46.016594 152.328674
-47.066319 -95.651604 152.328674
-33.007359 -33.593620 152.328674
-40.635349 -23.651604 152.328674
-45.430332 -12.075615 152.328674
-47.066319 0.348396 152.328674
-47.066319 -143.651596 152.328674
-47.066319 0.348396 152.328674
-47.066319 -95.651604 152.328674
-47.066319 96.348396 152.328674
-47.066319 144.348404 152.328674
-47.066319 96.348396 152.328674
-45.430332 12.771370 152.328674
-40.635349 24.348396 152.328674
-33.007359 34.289375 152.328674
-23.066320 41.917366 152.328674
-11.489354 46.712410 152.328674
0.933680 48.348396 152.328674
13.357692 46.712410 152.328674
24.933680 41.917366 152.328674
34.874660 34.289375 152.328674
42.502651 24.348396 152.328674
47.298672 12.771370 152.328674
48.933681 0.348396 152.328674
48.933681 -143.651596 152.328674
53.732693 -196.700607 152.328674
102.933678 -176.321609 152.328674
96.933678 -47.651604 152.328674
96.933678 48.348396 152.328674
102.933678 177.017410 152.328674
144.933685 48.348396 152.328674
145.183685 144.597427 152.328674
102.933678 177.017410 248.328674
144.933685 48.348396 248.328674
145.183685 144.597427 248.328674
96.933678 48.348396 248.328674
53.732693 197.396378 248.328674
96.933678 -47.651604 248.328674
102.933678 -176.321609 248.328674
53.732693 -196.700607 248.328674
48.933681 -143.651596 248.328674
0.933680 -143.651596 248.328674
0.933680 -203.651596 248.328674
0.933680 -203.651596 152.328674
-47.066319 -136.382584 71.083687
48.933681 -143.651596 152.328674
-47.066319 -143.651596 152.328674
48.933681 -136.382584 71.083687
-47.066319 -132.454605 -10.392329
48.933681 -136.382584 71.083687
-47.066319 -136.382584 71.083687
48.933681 -132.454605 -10.392329
-47.066319 -131.875595 -91.960320
48.933681 -132.454605 -10.392329
-47.066319 -132.454605 -10.392329
48.933681 -131.875595 -91.960320
-47.066319 -134.646591 -173.483337
48.933681 -131.875595 -91.960320
-47.066319 -131.875595 -91.960320
48.933681 -134.646591 -173.483337
-47.066319 -140.761581 -254.823303
48.933681 -134.646591 -173.483337
-47.066319 -134.646591 -173.483337
48.933681 -140.761581 -254.823303
-47.066319 -150.211594 -335.844299
48.933681 -140.761581 -254.823303
-47.066319 -140.761581 -254.823303
48.933681 -150.211594 -335.844299
-47.066319 -162.979599 -416.409332
48.933681 -150.211594 -335.844299
-47.066319 -150.211594 -335.844299
48.933681 -162.979599 -416.409332
-47.066319 -179.044601 -496.381317
48.933681 -162.979599 -416.409332
-47.066319 -162.979599 -416.409332
48.933681 -179.044601 -496.381317
-47.066319 -198.379593 -575.626282
48.933681 -179.044601 -496.381317
-47.066319 -179.044601 -496.381317
48.933681 -198.379593 -575.626282
-47.066319 -220.952591 -654.011292
48.933681 -198.379593 -575.626282
-47.066319 -198.379593 -575.626282
48.933681 -220.952591 -654.011292
-47.066319 -246.724594 -731.403320
48.933681 -220.952591 -654.011292
-47.066319 -220.952591 -654.011292
48.933681 -246.724594 -731.403320
-47.066319 -275.651611 -807.671326
48.933681 -246.724594 -731.403320
-47.066319 -246.724594 -731.403320
48.933681 -275.651611 -807.671326
-47.066319 -275.651611 -807.671326
48.933681 -95.651604 -807.671326
48.933681 -275.651611 -807.671326
-47.066319 -95.651604 -807.671326
-47.066319 -246.724594 -731.403320
-47.066319 -95.651604 -807.671326
-47.066319 -275.651611 -807.671326
-47.066319 -220.952591 -654.011292
-47.066319 -198.379593 -575.626282
-47.066319 -179.044601 -496.381317
-47.066319 -162.979599 -416.409332
-47.066319 -150.211594 -335.844299
-47.066319 -140.761581 -254.823303
-47.066319 -134.646591 -173.483337
-47.066319 -131.875595 -91.960320
-47.066319 -95.651604 152.328674
-47.066319 -132.454605 -10.392329
-47.066319 -136.382584 71.083687
-47.066319 -143.651596 152.328674
48.933681 -136.382584 71.083687
48.933681 -95.651604 152.328674
48.933681 -143.651596 152.328674
48.933681 -132.454605 -10.392329
48.933681 -131.875595 -91.960320
48.933681 -95.651604 -807.671326
48.933681 -134.646591 -173.483337
48.933681 -140.761581 -254.823303
48.933681 -150.211594 -335.844299
48.933681 -162.979599 -416.409332
48.933681 -179.044601 -496.381317
48.933681 -198.379593 -575.626282
48.933681 -220.952591 -654.011292
48.933681 -246.724594 -731.403320
48.933681 -275.651611 -807.671326
48.933681 -95.651604 -807.671326
-47.066319 -95.651604 152.328674
48.933681 -95.651604 152.328674
-47.066319 -95.651604 -807.671326
144.933685 -47.651604 152.328674
145.183685 -143.901596 152.328674
96.933678 -47.651604 152.328674
137.664642 -47.651604 71.083687
144.933685 -47.651604 152.328674
133.736664 -47.651604 -10.392329
133.157684 -47.651604 -91.960320
135.928680 -47.651604 -173.483337
142.043671 -47.651604 -254.823303
96.933678 -47.651604 -807.671326
151.493683 -47.651604 -335.844299
164.261688 -47.651604 -416.409332
180.326691 -47.651604 -496.381317
199.661652 -47.651604 -575.626282
222.233673 -47.651604 -654.011292
248.003693 -47.651604 -731.403320
276.933624 -47.651604 -807.671326
96.933678 -47.651604 -807.671326
276.933624 48.348396 -807.671326
276.933624 -47.651604 -807.671326
96.933678 48.348396 -807.671326
96.933678 -47.651604 -807.671326
96.933678 48.348396 152.328674
96.933678 48.348396 -807.671326
96.933678 -47.651604 152.328674
144.933685 -47.651604 152.328674
137.664642 48.348396 71.083687
144.933685 48.348396 152.328674
137.664642 -47.651604 71.083687
137.664642 -47.651604 71.083687
133.736664 48.348396 -10.392329
137.664642 48.348396 71.083687
133.736664 -47.651604 -10.392329
133.736664 -47.651604 -10.392329
133.157684 48.348396 -91.960320
133.736664 48.348396 -10.392329
133.157684 -47.651604 -91.960320
133.157684 -47.651604 -91.960320
135.928680 48.348396 -173.483337
133.157684 48.348396 -91.960320
135.928680 -47.651604 -173.483337
135.928680 -47.651604 -173.483337
142.043671 48.348396 -254.823303
135.928680 48.348396 -173.483337
142.043671 -47.651604 -254.823303
142.043671 -47.651604 -254.823303
151.493683 48.348396 -335.844299
142.043671 48.348396 -254.823303
151.493683 -47.651604 -335.844299
151.493683 -47.651604 -335.844299
164.261688 48.348396 -416.409332
151.493683 48.348396 -335.844299
164.261688 -47.651604 -416.409332
180.326691 -47.651604 -496.381317
164.261688 48.348396 -416.409332
164.261688 -47.651604 -416.409332
180.326691 48.348396 -496.381317
180.326691 -47.651604 -496.381317
199.661652 48.348396 -575.626282
180.326691 48.348396 -496.381317
199.661652 -47.651604 -575.626282
222.233673 -47.651604 -654.011292
199.661652 48.348396 -575.626282
199.661652 -47.651604 -575.626282
222.233673 48.348396 -654.011292
248.003693 -47.651604 -731.403320
222.233673 48.348396 -654.011292
222.233673 -47.651604 -654.011292
248.003693 48.348396 -731.403320
248.003693 -47.651604 -731.403320
276.933624 48.348396 -807.671326
248.003693 48.348396 -731.403320
276.933624 -47.651604 -807.671326
96.933678 48.348396 -807.671326
248.003693 48.348396 -731.403320
276.933624 48.348396 -807.671326
222.233673 48.348396 -654.011292
199.661652 48.348396 -575.626282
180.326691 48.348396 -496.381317
164.261688 48.348396 -416.409332
151.493683 48.348396 -335.844299
142.043671 48.348396 -254.823303
96.933678 48.348396 152.328674
135.928680 48.348396 -173.483337
133.157684 48.348396 -91.960320
133.736664 48.348396 -10.392329
137.664642 48.348396 71.083687
144.933685 48.348396 152.328674
144.933685 0.348396 248.328674
144.933685 -47.651604 248.328674
145.183685 -143.901596 248.328674
144.933685 -47.651604 248.328674
144.933685 48.348396 248.328674
144.933685 0.348396 248.328674
177.602692 -101.651604 152.328674
177.602692 102.348396 152.328674
177.602692 -101.651604 248.328674
177.602692 102.348396 248.328674
197.982697 -52.450615 248.328674
197.982697 53.147408 248.328674
204.933685 0.348396 248.328674
197.982697 -52.450615 152.328674
197.982697 53.147408 152.328674
204.933685 0.348396 152.328674
-135.796356 -47.651604 71.083687
-131.869354 -47.651604 -10.392329
-131.290314 -47.651604 -91.960320
-134.060333 -47.651604 -173.483337
-140.175323 -47.651604 -254.823303
-95.066322 -47.651604 -807.671326
-149.625336 -47.651604 -335.844299
-162.393341 -47.651604 -416.409332
-178.459320 -47.651604 -496.381317
-197.794342 -47.651604 -575.626282
-220.366302 -47.651604 -654.011292
-246.138336 -47.651604 -731.403320
-275.066345 -47.651604 -807.671326
-246.138336 48.348396 -731.403320
-275.066345 -47.651604 -807.671326
-246.138336 -47.651604 -731.403320
-275.066345 48.348396 -807.671326
-246.138336 -47.651604 -731.403320
-220.366302 48.348396 -654.011292
-246.138336 48.348396 -731.403320
-220.366302 -47.651604 -654.011292
-220.366302 -47.651604 -654.011292
-197.794342 48.348396 -575.626282
-220.366302 48.348396 -654.011292
-197.794342 -47.651604 -575.626282
-197.794342 -47.651604 -575.626282
-178.459320 48.348396 -496.381317
-197.794342 48.348396 -575.626282
-178.459320 -47.651604 -496.381317
-178.459320 -47.651604 -496.381317
-162.393341 48.348396 -416.409332
-178.459320 48.348396 -496.381317
-162.393341 -47.651604 -416.409332
-162.393341 -47.651604 -416.409332
-149.625336 48.348396 -335.844299
-162.393341 48.348396 -416.409332
-149.625336 -47.651604 -335.844299
-149.625336 -47.651604 -335.844299
-140.175323 48.348396 -254.823303
-149.625336 48.348396 -335.844299
-140.175323 -47.651604 -254.823303
-140.175323 -47.651604 -254.823303
-134.060333 48.348396 -173.483337
-140.175323 48.348396 -254.823303
-134.060333 -47.651604 -173.483337
-134.060333 -47.651604 -173.483337
-131.290314 48.348396 -91.960320
-134.060333 48.348396 -173.483337
-131.290314 -47.651604 -91.960320
-131.290314 -47.651604 -91.960320
-131.869354 48.348396 -10.392329
-131.290314 48.348396 -91.960320
-131.869354 -47.651604 -10.392329
-131.869354 -47.651604 -10.392329
-135.796356 48.348396 71.083687
-131.869354 48.348396 -10.392329
-135.796356 -47.651604 71.083687
47.298672 -12.075615 152.328674
42.502651 -23.651604 152.328674
34.874660 -33.593620 152.328674
29.904688 -37.407585 152.328674
24.933680 -41.221611 152.328674
13.357692 -46.016594 152.328674
0.933680 -47.651604 152.328674
13.357692 -46.016594 -807.671326
24.933680 -41.221611 -807.671326
34.874660 -33.593620 -807.671326
24.933680 41.917366 -807.671326
34.874660 34.289375 -807.671326
42.502651 24.348396 -807.671326
47.298672 12.771370 -807.671326
47.298672 -12.075615 -807.671326
48.933681 0.348396 -807.671326
36.933681 -35.651604 344.328674
54.933681 -17.651604 344.328674
72.933678 -124.359612 344.328674
102.757652 -101.475578 344.328674
102.757652 102.171394 344.328674
72.933678 0.348396 344.328674
125.641685 -71.651604 344.328674
125.641685 72.348396 344.328674
140.027679 -36.921623 344.328674
140.027679 37.618416 344.328674
144.933685 0.348396 344.328674
48.933681 135.342422 -173.483337
-47.066319 132.572403 -91.960320
48.933681 132.572403 -91.960320
-47.066319 135.342422 -173.483337
48.933681 141.457413 -254.823303
-47.066319 135.342422 -173.483337
48.933681 135.342422 -173.483337
-47.066319 141.457413 -254.823303
48.933681 150.907425 -335.844299
-47.066319 141.457413 -254.823303
48.933681 141.457413 -254.823303
-47.066319 150.907425 -335.844299
48.933681 163.675430 -416.409332
-47.066319 150.907425 -335.844299
48.933681 150.907425 -335.844299
-47.066319 163.675430 -416.409332
48.933681 179.740433 -496.381317
-47.066319 163.675430 -416.409332
48.933681 163.675430 -416.409332
-47.066319 179.740433 -496.381317
48.933681 199.076431 -575.626282
-47.066319 179.740433 -496.381317
48.933681 179.740433 -496.381317
-47.066319 199.076431 -575.626282
48.933681 221.648392 -654.011292
-47.066319 199.076431 -575.626282
48.933681 199.076431 -575.626282
-47.066319 221.648392 -654.011292
48.933681 247.420425 -731.403320
-47.066319 221.648392 -654.011292
48.933681 221.648392 -654.011292
-47.066319 247.420425 -731.403320
48.933681 276.348389 -807.671326
-47.066319 247.420425 -731.403320
48.933681 247.420425 -731.403320
-47.066319 276.348389 -807.671326
-47.066319 144.348404 152.328674
-47.066319 96.348396 152.328674
48.933681 96.348396 152.328674
48.933681 144.348404 152.328674
-143.066315 48.348396 152.328674
-95.066322 -47.651604 152.328674
-95.066322 48.348396 152.328674
-143.066315 -47.651604 152.328674
48.933681 -143.651596 152.328674
-47.066319 -95.651604 152.328674
-47.066319 -143.651596 152.328674
48.933681 -95.651604 152.328674
144.933685 -47.651604 152.328674
96.933678 48.348396 152.328674
96.933678 -47.651604 152.328674
144.933685 48.348396 152.328674
-196.115326 -52.450615 152.328674
-203.066315 0.348396 248.328674
-203.066315 0.348396 152.328674
-196.115326 -52.450615 248.328674
-175.735321 -101.651604 152.328674
-196.115326 -52.450615 248.328674
-196.115326 -52.450615 152.328674
-175.735321 -101.651604 248.328674
-143.315338 -143.901596 152.328674
-175.735321 -101.651604 248.328674
-175.735321 -101.651604 152.328674
-143.315338 -143.901596 248.328674
-143.315338 -143.901596 152.328674
-101.066322 -176.321609 248.328674
-143.315338 -143.901596 248.328674
-101.066322 -176.321609 152.328674
-196.115326 53.147408 248.328674
-203.066315 0.348396 152.328674
-203.066315 0.348396 248.328674
-196.115326 53.147408 152.328674
-175.735321 102.348396 248.328674
-196.115326 53.147408 152.328674
-196.115326 53.147408 248.328674
-175.735321 102.348396 152.328674
-143.315338 144.597427 248.328674
-175.735321 102.348396 152.328674
-175.735321 102.348396 248.328674
-143.315338 144.597427 152.328674
-143.315338 144.597427 248.328674
-101.066322 177.017410 152.328674
-143.315338 144.597427 152.328674
-101.066322 177.017410 248.328674
-138.159332 37.618416 248.328674
-123.773354 72.348396 344.328674
-133.715302 48.348396 248.328674
-123.773354 72.348396 344.328674
-138.159332 37.618416 248.328674
-138.159332 37.618416 344.328674
-143.066315 0.348396 248.328674
-138.159332 37.618416 344.328674
-138.159332 37.618416 248.328674
-143.066315 0.348396 344.328674
-138.743317 -32.482597 248.328674
-143.066315 0.348396 344.328674
-143.066315 0.348396 248.328674
-138.159332 -36.921623 248.328674
-143.066315 0.348396 344.328674
-138.743317 -32.482597 248.328674
-143.066315 0.348396 344.328674
-138.159332 -36.921623 248.328674
-138.159332 -36.921623 344.328674
-133.715302 -47.651604 248.328674
-138.159332 -36.921623 344.328674
-138.159332 -36.921623 248.328674
-123.773354 -71.651604 248.328674
-138.159332 -36.921623 344.328674
-133.715302 -47.651604 248.328674
-138.159332 -36.921623 344.328674
-123.773354 -71.651604 248.328674
-123.773354 -71.651604 344.328674
-100.889320 -101.475578 248.328674
-123.773354 -71.651604 344.328674
-123.773354 -71.651604 248.328674
-100.889320 -101.475578 344.328674
-100.889320 -101.475578 248.328674
-71.066322 -124.359612 344.328674
-100.889320 -101.475578 344.328674
-71.066322 -124.359612 248.328674
-100.889320 102.171394 344.328674
-71.066322 125.055367 248.328674
-100.889320 102.171394 248.328674
-71.066322 125.055367 344.328674
-100.889320 102.171394 344.328674
-123.773354 72.348396 248.328674
-123.773354 72.348396 344.328674
-100.889320 102.171394 248.328674
-133.715302 48.348396 248.328674
-123.773354 72.348396 344.328674
-123.773354 72.348396 248.328674
-71.066322 125.055367 344.328674
-36.336338 139.441422 248.328674
-71.066322 125.055367 248.328674
-36.336338 139.441422 344.328674
-36.336338 -138.745590 248.328674
0.933680 -143.651596 344.328674
-36.336338 -138.745590 344.328674
0.933680 -143.651596 248.328674
-36.336338 139.441422 344.328674
0.933680 144.348404 248.328674
-36.336338 139.441422 248.328674
0.933680 144.348404 344.328674
-33.007359 -33.593620 344.328674
-16.036352 -16.622612 344.328674
18.933680 -17.651604 344.328674
0.933680 -143.651596 248.328674
38.203640 -138.745590 344.328674
0.933680 -143.651596 344.328674
38.203640 -138.745590 248.328674
38.203640 139.441422 344.328674
72.933678 125.055367 248.328674
38.203640 139.441422 248.328674
72.933678 125.055367 344.328674
-33.007359 34.289375 344.328674
0.933680 0.348396 344.328674
-45.430332 -12.075615 344.328674
-47.066319 0.348396 152.328674
-47.066319 0.348396 344.328674
-45.430332 -12.075615 152.328674
-40.635349 -23.651604 344.328674
-45.430332 -12.075615 152.328674
-45.430332 -12.075615 344.328674
-40.635349 -23.651604 152.328674
-33.007359 -33.593620 344.328674
-40.635349 -23.651604 152.328674
-40.635349 -23.651604 344.328674
-33.007359 -33.593620 152.328674
-33.007359 -33.593620 344.328674
-23.066320 -41.221611 152.328674
-33.007359 -33.593620 152.328674
-23.066320 -41.221611 344.328674
-33.007359 34.289375 152.328674
-23.066320 41.917366 344.328674
-33.007359 34.289375 344.328674
-23.066320 41.917366 152.328674
-23.066320 41.917366 -807.671326
-33.007359 34.289375 152.328674
-23.066320 41.917366 152.328674
-33.007359 34.289375 -807.671326
-23.066320 41.917366 152.328674
-11.489354 46.712410 -807.671326
-23.066320 41.917366 -807.671326
-11.489354 46.712410 152.328674
-11.489354 46.712410 344.328674
-23.066320 41.917366 152.328674
-11.489354 46.712410 152.328674
-23.066320 41.917366 344.328674
-11.489354 46.712410 152.328674
0.933680 48.348396 344.328674
-11.489354 46.712410 344.328674
0.933680 48.348396 152.328674
0.933680 48.348396 -807.671326
-11.489354 46.712410 152.328674
0.933680 48.348396 152.328674
-11.489354 46.712410 -807.671326
0.933680 48.348396 152.328674
13.357692 46.712410 -807.671326
0.933680 48.348396 -807.671326
13.357692 46.712410 152.328674
13.357692 46.712410 344.328674
0.933680 48.348396 152.328674
13.357692 46.712410 152.328674
0.933680 48.348396 344.328674
0.933680 -47.651604 152.328674
-11.489354 -46.016594 344.328674
0.933680 -47.651604 344.328674
-11.489354 -46.016594 152.328674
-11.489354 -46.016594 -807.671326
0.933680 -47.651604 152.328674
-11.489354 -46.016594 152.328674
0.933680 -47.651604 -807.671326
-45.430332 -12.075615 -807.671326
-47.066319 0.348396 152.328674
-47.066319 0.348396 -807.671326
-45.430332 -12.075615 152.328674
-40.635349 -23.651604 -807.671326
-45.430332 -12.075615 152.328674
-45.430332 -12.075615 -807.671326
-40.635349 -23.651604 152.328674
-33.007359 -33.593620 -807.671326
-40.635349 -23.651604 152.328674
-40.635349 -23.651604 -807.671326
-33.007359 -33.593620 152.328674
-33.007359 -33.593620 -807.671326
-23.066320 -41.221611 152.328674
-33.007359 -33.593620 152.328674
-23.066320 -41.221611 -807.671326
-23.066320 -41.221611 -807.671326
-11.489354 -46.016594 152.328674
-23.066320 -41.221611 152.328674
-11.489354 -46.016594 -807.671326
-23.066320 -41.221611 344.328674
-11.489354 -46.016594 152.328674
-23.066320 -41.221611 152.328674
-11.489354 -46.016594 344.328674
102.933678 177.017410 248.328674
145.183685 144.597427 152.328674
102.933678 177.017410 152.328674
145.183685 144.597427 248.328674
53.732693 197.396378 152.328674
0.933680 204.348404 248.328674
53.732693 197.396378 248.328674
0.933680 204.348404 152.328674
0.933680 204.348404 152.328674
-51.865330 197.396378 248.328674
0.933680 204.348404 248.328674
-51.865330 197.396378 152.328674
-51.865330 197.396378 152.328674
-101.066322 177.017410 248.328674
-51.865330 197.396378 248.328674
-101.066322 177.017410 152.328674
53.732693 197.396378 248.328674
102.933678 177.017410 152.328674
53.732693 197.396378 152.328674
102.933678 177.017410 248.328674
-51.865330 -196.700607 152.328674
0.933680 -203.651596 248.328674
-51.865330 -196.700607 248.328674
0.933680 -203.651596 152.328674
53.732693 -196.700607 248.328674
0.933680 -203.651596 152.328674
53.732693 -196.700607 152.328674
0.933680 -203.651596 248.328674
53.732693 -196.700607 152.328674
102.933678 -176.321609 248.328674
53.732693 -196.700607 248.328674
102.933678 -176.321609 152.328674
102.933678 -176.321609 152.328674
145.183685 -143.901596 248.328674
102.933678 -176.321609 248.328674
145.183685 -143.901596 152.328674
145.183685 144.597427 152.328674
177.602692 102.348396 248.328674
177.602692 102.348396 152.328674
145.183685 144.597427 248.328674
145.183685 -143.901596 248.328674
177.602692 -101.651604 152.328674
177.602692 -101.651604 248.328674
145.183685 -143.901596 152.328674
197.982697 -52.450615 152.328674
177.602692 -101.651604 248.328674
177.602692 -101.651604 152.328674
197.982697 -52.450615 248.328674
204.933685 0.348396 152.328674
197.982697 -52.450615 248.328674
197.982697 -52.450615 152.328674
204.933685 0.348396 248.328674
197.982697 53.147408 152.328674
204.933685 0.348396 248.328674
204.933685 0.348396 152.328674
197.982697 53.147408 248.328674
177.602692 102.348396 152.328674
197.982697 53.147408 248.328674
197.982697 53.147408 152.328674
177.602692 102.348396 248.328674
-51.865330 -196.700607 248.328674
-101.066322 -176.321609 152.328674
-51.865330 -196.700607 152.328674
-101.066322 -176.321609 248.328674
0.933680 -47.651604 -807.671326
13.357692 -46.016594 152.328674
0.933680 -47.651604 152.328674
13.357692 -46.016594 -807.671326
42.502651 -23.651604 -807.671326
34.874660 -33.593620 152.328674
34.874660 -33.593620 -807.671326
42.502651 -23.651604 152.328674
47.298672 -12.075615 -807.671326
42.502651 -23.651604 152.328674
42.502651 -23.651604 -807.671326
47.298672 -12.075615 152.328674
48.933681 0.348396 -807.671326
47.298672 -12.075615 152.328674
47.298672 -12.075615 -807.671326
48.933681 0.348396 152.328674
47.298672 12.771370 -807.671326
48.933681 0.348396 152.328674
48.933681 0.348396 -807.671326
47.298672 12.771370 152.328674
42.502651 24.348396 -807.671326
47.298672 12.771370 152.328674
47.298672 12.771370 -807.671326
42.502651 24.348396 152.328674
34.874660 34.289375 -807.671326
42.502651 24.348396 152.328674
42.502651 24.348396 -807.671326
34.874660 34.289375 152.328674
34.874660 34.289375 -807.671326
24.933680 41.917366 152.328674
34.874660 34.289375 152.328674
24.933680 41.917366 -807.671326
13.357692 46.712410 152.328674
24.933680 41.917366 -807.671326
13.357692 46.712410 -807.671326
24.933680 41.917366 152.328674
24.933680 41.917366 344.328674
13.357692 46.712410 152.328674
24.933680 41.917366 152.328674
13.357692 46.712410 344.328674
13.357692 -46.016594 152.328674
0.933680 -47.651604 344.328674
13.357692 -46.016594 344.328674
0.933680 -47.651604 152.328674
13.357692 -46.016594 344.328674
24.933680 -41.221611 152.328674
13.357692 -46.016594 152.328674
24.933680 -41.221611 344.328674
24.933680 -41.221611 344.328674
29.904688 -37.407585 152.328674
24.933680 -41.221611 152.328674
29.904688 -37.407585 344.328674
24.933680 41.917366 152.328674
34.874660 34.289375 344.328674
24.933680 41.917366 344.328674
34.874660 34.289375 152.328674
42.502651 24.348396 152.328674
34.874660 34.289375 344.328674
34.874660 34.289375 152.328674
42.502651 24.348396 344.328674
47.298672 12.771370 152.328674
42.502651 24.348396 344.328674
42.502651 24.348396 152.328674
47.298672 12.771370 344.328674
48.933681 0.348396 152.328674
47.298672 12.771370 344.328674
47.298672 12.771370 152.328674
48.933681 0.348396 344.328674
47.298672 -12.075615 152.328674
48.933681 0.348396 344.328674
48.933681 0.348396 152.328674
47.298672 -12.075615 344.328674
42.502651 -23.651604 152.328674
47.298672 -12.075615 344.328674
47.298672 -12.075615 152.328674
42.502651 -23.651604 344.328674
34.874660 -33.593620 152.328674
42.502651 -23.651604 344.328674
42.502651 -23.651604 152.328674
34.874660 -33.593620 344.328674
34.874660 -33.593620 152.328674
29.904688 -37.407585 344.328674
34.874660 -33.593620 344.328674
29.904688 -37.407585 152.328674
24.933680 -41.221611 -807.671326
34.874660 -33.593620 152.328674
24.933680 -41.221611 152.328674
34.874660 -33.593620 -807.671326
24.933680 -41.221611 152.328674
13.357692 -46.016594 -807.671326
24.933680 -41.221611 -807.671326
13.357692 -46.016594 152.328674
-33.007359 34.289375 152.328674
-40.635349 24.348396 -807.671326
-40.635349 24.348396 152.328674
-33.007359 34.289375 -807.671326
-45.430332 12.771370 -807.671326
-40.635349 24.348396 152.328674
-40.635349 24.348396 -807.671326
-45.430332 12.771370 152.328674
-47.066319 0.348396 -807.671326
-45.430332 12.771370 152.328674
-45.430332 12.771370 -807.671326
-47.066319 0.348396 152.328674
-45.430332 12.771370 152.328674
-47.066319 0.348396 344.328674
-47.066319 0.348396 152.328674
-45.430332 12.771370 344.328674
-40.635349 24.348396 152.328674
-45.430332 12.771370 344.328674
-45.430332 12.771370 152.328674
-40.635349 24.348396 344.328674
-33.007359 34.289375 152.328674
-40.635349 24.348396 344.328674
-40.635349 24.348396 152.328674
-33.007359 34.289375 344.328674
18.933680 18.348396 344.328674
34.874660 -33.593620 344.328674
18.933680 -17.651604 344.328674
36.933681 -35.651604 344.328674
34.874660 -33.593620 344.328674
38.203640 -138.745590 248.328674
72.933678 -124.359612 344.328674
38.203640 -138.745590 344.328674
72.933678 -124.359612 248.328674
0.933680 144.348404 344.328674
38.203640 139.441422 248.328674
0.933680 144.348404 248.328674
38.203640 139.441422 344.328674
-36.336338 -138.745590 344.328674
-71.066322 -124.359612 248.328674
-36.336338 -138.745590 248.328674
-71.066322 -124.359612 344.328674
72.933678 125.055367 344.328674
102.757652 102.171394 248.328674
72.933678 125.055367 248.328674
102.757652 102.171394 344.328674
72.933678 -124.359612 248.328674
102.757652 -101.475578 344.328674
72.933678 -124.359612 344.328674
102.757652 -101.475578 248.328674
102.757652 102.171394 248.328674
125.641685 72.348396 344.328674
125.641685 72.348396 248.328674
102.757652 102.171394 344.328674
102.757652 -101.475578 344.328674
125.641685 -71.651604 248.328674
125.641685 -71.651604 344.328674
102.757652 -101.475578 248.328674
125.641685 72.348396 248.328674
140.027679 37.618416 344.328674
140.027679 37.618416 248.328674
125.641685 72.348396 344.328674
125.641685 -71.651604 344.328674
140.027679 -36.921623 248.328674
140.027679 -36.921623 344.328674
125.641685 -71.651604 248.328674
140.027679 37.618416 248.328674
144.933685 0.348396 344.328674
144.933685 0.348396 248.328674
140.027679 37.618416 344.328674
140.027679 -36.921623 344.328674
144.933685 0.348396 248.328674
144.933685 0.348396 344.328674
140.027679 -36.921623 248.328674
34.874660 34.289375 344.328674
-40.635349 -23.651604 344.328674
-33.007359 34.289375 344.328674
-33.007359 -33.593620 344.328674
-40.635349 24.348396 344.328674
-45.430332 -12.075615 344.328674
-45.430332 12.771370 344.328674
-47.066319 0.348396 344.328674
-23.066320 -41.221611 344.328674
-23.066320 41.917366 344.328674
-11.489354 46.712410 344.328674
-11.489354 -46.016594 344.328674
0.933680 48.348396 344.328674
0.933680 -47.651604 344.328674
13.357692 46.712410 344.328674
24.933680 -41.221611 344.328674
24.933680 41.917366 344.328674
13.357692 -46.016594 344.328674
34.874660 34.289375 344.328674
29.904688 -37.407585 344.328674
42.502651 24.348396 344.328674
42.502651 -23.651604 344.328674
47.298672 12.771370 344.328674
47.298672 -12.075615 344.328674
48.933681 0.348396 344.328674
48.933681 144.348404 152.328674
-47.066319 144.348404 152.328674
48.933681 144.348404 248.328674
-47.066319 144.348404 248.328674
0.933680 144.348404 248.328674
48.933681 144.348404 248.328674
-47.066319 144.348404 248.328674
-47.066319 96.348396 248.328674
-47.066319 96.348396 248.328674
48.933681 96.348396 248.328674
48.933681 96.348396 248.328674
48.933681 144.348404 248.328674
-143.066315 48.348396 248.328674
-95.066322 48.348396 248.328674
-133.715302 48.348396 248.328674
-95.066322 48.348396 248.328674
-143.066315 48.348396 248.328674
-95.066322 48.348396 248.328674
-95.066322 -47.651604 248.328674
48.933681 -95.651604 248.328674
-47.066319 -95.651604 248.328674
-47.066319 -95.651604 248.328674
-47.066319 -143.651596 248.328674
-47.066319 -143.651596 152.328674
48.933681 -143.651596 152.328674
-47.066319 -143.651596 248.328674
48.933681 -143.651596 248.328674
0.933680 -143.651596 248.328674
48.933681 -143.651596 248.328674
48.933681 -143.651596 248.328674
48.933681 -95.651604 248.328674
144.933685 48.348396 248.328674
96.933678 48.348396 248.328674
96.933678 48.348396 248.328674
96.933678 -47.651604 248.328674
96.933678 -47.651604 248.328674
144.933685 -47.651604 248.328674
144.933685 48.348396 248.328674
144.933685 0.348396 248.328674
144.933685 48.348396 152.328674
144.933685 -47.651604 152.328674
144.933685 -47.651604 248.328674
-95.066322 48.348396 248.328674
-71.066322 125.055367 248.328674
-95.066322 -47.651604 248.328674
-123.773354 72.348396 248.328674
-100.889320 102.171394 248.328674
-133.715302 48.348396 248.328674
-123.773354 -71.651604 248.328674
-133.715302 -47.651604 248.328674
-100.889320 -101.475578 248.328674
-71.066322 -124.359612 248.328674
38.203640 -138.745590 248.328674
38.203640 139.441422 248.328674
72.933678 -124.359612 248.328674
0.933680 -143.651596 248.328674
0.933680 144.348404 248.328674
-36.336338 139.441422 248.328674
-36.336338 -138.745590 248.328674
72.933678 125.055367 248.328674
102.757652 -101.475578 248.328674
102.757652 102.171394 248.328674
125.641685 -71.651604 248.328674
125.641685 72.348396 248.328674
140.027679 -36.921623 248.328674
140.027679 37.618416 248.328674
144.933685 0.348396 248.328674
3 0 1 2
3 1 0 3
3 3 0 4
3 5 6 7
3 6 5 8
3 8 5 9
3 5 10 9
3 5 11 10
3 12 11 5
3 11 12 13
3 13 12 14
3 14 12 15
3 15 12 16
3 16 12 17
3 17 12 18
3 18 12 19
3 20 21 22
3 21 20 23
3 2 24 25
3 24 2 26
3 26 2 27
3 27 2 28
3 28 2 29
3 29 2 30
3 30 2 31
3 31 2 32
3 32 2 33
3 2 1 33
3 34 35 36
3 35 34 37
3 38 39 40
3 39 38 41
3 42 43 44
3 43 42 45
3 46 47 48
3 46 48 49
3 50 51 52
3 51 50 53
3 54 55 56
3 54 57 55
3 58 59 60
3 59 58 61
3 61 58 62
3 58 52 62
3 52 58 50
3 62 52 63
3 64 65 66
3 64 67 65
3 68 67 64
3 67 68 69
3 70 69 68
3 71 69 70
3 72 69 71
3 73 69 72
3 73 74 69
3 75 74 73
3 75 76 74
3 77 76 75
3 78 76 77
3 78 79 76
3 80 79 78
3 80 81 79
3 81 80 82
3 77 83 84
3 83 77 75
3 85 86 87
3 86 85 88
3 89 90 91
3 89 92 90
3 89 93 92
3 89 94 93
3 89 95 94
3 96 95 89
3 96 97 95
3 96 98 97
3 96 99 98
3 96 100 99
3 96 101 100
3 96 102 101
3 102 96 103
3 104 105 106
3 105 104 107
3 108 109 110
3 109 108 111
3 112 113 114
3 113 112 115
3 115 112 116
3 117 118 119
3 118 117 120
3 121 122 123
3 124 125 126
3 124 127 125
3 128 127 124
3 129 127 128
3 129 130 127
3 131 130 129
3 131 132 130
3 132 131 133
3 128 134 135
3 134 128 124
3 136 134 124
3 134 136 137
3 138 139 140
3 138 141 139
3 142 141 138
3 142 143 141
3 144 143 142
3 144 145 143
3 145 144 146
3 135 137 147
3 135 134 137
3 135 147 59
3 59 147 148
3 149 148 147
3 149 150 148
3 151 150 149
3 125 150 151
3 125 127 150
3 140 152 153
3 140 154 152
3 155 156 157
3 158 154 139
3 154 158 159
3 159 158 160
3 160 158 161
3 153 162 163
3 153 152 162
3 164 165 166
3 164 161 165
3 167 161 164
3 160 161 167
3 168 169 170
3 168 171 169
3 168 172 171
3 163 172 168
3 163 173 172
3 163 174 173
3 163 162 174
3 175 176 177
3 176 175 178
3 176 178 179
3 176 179 180
3 181 176 182
3 183 176 181
3 183 177 176
3 184 177 183
3 185 177 184
3 185 186 177
3 187 186 185
3 187 188 186
3 188 187 189
3 190 191 192
3 193 191 190
3 193 194 191
3 193 195 194
3 193 196 195
3 196 193 197
3 198 199 200
3 198 201 199
3 202 201 198
3 203 204 197
3 204 203 205
3 205 203 206
3 206 203 207
3 207 203 66
3 207 66 208
3 208 66 209
3 209 66 210
3 210 66 211
3 211 66 212
3 212 66 213
3 213 66 214
3 214 66 215
3 66 65 215
3 215 65 190
3 190 65 216
3 216 65 217
3 217 65 218
3 218 65 219
3 219 65 220
3 221 220 65
3 220 221 222
3 222 221 223
3 224 225 226
3 224 227 225
3 228 227 224
3 227 228 229
3 228 230 229
3 228 231 230
3 228 63 231
3 61 63 228
3 61 62 63
3 52 231 63
3 51 231 52
3 232 231 51
3 233 231 232
3 233 234 231
3 60 234 233
3 60 148 234
3 59 148 60
3 71 70 235
3 235 70 216
3 236 237 238
3 237 236 239
3 240 241 242
3 241 240 243
3 244 245 246
3 245 244 247
3 248 249 250
3 249 248 251
3 252 253 254
3 253 252 255
3 256 257 258
3 257 256 259
3 260 261 262
3 261 260 263
3 264 265 266
3 265 264 267
3 268 269 270
3 269 268 271
3 272 273 274
3 273 272 275
3 276 277 278
3 277 276 279
3 280 281 282
3 281 280 283
3 284 285 286
3 285 284 287
3 288 289 290
3 289 288 291
3 289 291 292
3 289 292 293
3 289 293 294
3 289 294 295
3 289 295 296
3 289 296 297
3 289 297 298
3 289 298 299
3 300 299 298
3 301 299 300
3 299 301 302
3 303 304 305
3 304 303 306
3 304 306 307
3 304 307 308
3 309 308 307
3 310 308 309
3 311 308 310
3 312 308 311
3 313 308 312
3 314 308 313
3 315 308 314
3 316 308 315
3 308 316 317
3 318 319 320
3 319 318 321
3 53 233 51
3 233 53 60
3 51 233 232
3 235 216 217
3 218 322 323
3 218 219 322
3 324 325 326
3 324 327 325
3 324 328 327
3 324 329 328
3 324 330 329
3 331 330 324
3 331 332 330
3 331 333 332
3 331 334 333
3 331 335 334
3 331 336 335
3 331 337 336
3 337 331 338
3 339 340 341
3 340 339 342
3 343 344 345
3 344 343 346
3 347 348 349
3 348 347 350
3 351 352 353
3 352 351 354
3 355 356 357
3 356 355 358
3 359 360 361
3 360 359 362
3 363 364 365
3 364 363 366
3 367 368 369
3 368 367 370
3 371 372 373
3 372 371 374
3 375 376 377
3 376 375 378
3 379 380 381
3 380 379 382
3 383 384 385
3 384 383 386
3 387 388 389
3 388 387 390
3 391 392 393
3 392 391 394
3 395 396 397
3 396 395 398
3 398 395 399
3 399 395 400
3 400 395 401
3 401 395 402
3 402 395 403
3 403 395 404
3 403 404 405
3 405 404 406
3 406 404 407
3 407 404 408
3 408 404 409
3 225 227 410
3 227 411 410
3 411 227 229
3 229 230 411
3 411 230 412
3 226 411 412
3 226 225 411
3 413 414 415
3 222 223 322
3 322 223 323
3 323 223 416
3 416 223 417
3 226 418 419
3 226 412 418
3 419 420 421
3 419 418 420
3 421 420 422
3 423 417 424
3 416 417 423
3 423 424 425
3 84 72 71
3 84 83 72
3 426 119 118
3 427 119 426
3 428 119 427
3 429 119 428
3 430 119 429
3 430 431 119
3 432 431 430
3 433 431 432
3 434 431 433
3 435 431 434
3 436 431 435
3 437 431 436
3 431 437 438
3 439 440 441
3 440 439 442
3 443 444 445
3 444 443 446
3 447 448 449
3 448 447 450
3 451 452 453
3 452 451 454
3 455 456 457
3 456 455 458
3 459 460 461
3 460 459 462
3 463 464 465
3 464 463 466
3 467 468 469
3 468 467 470
3 471 472 473
3 472 471 474
3 475 476 477
3 476 475 478
3 479 480 481
3 480 479 482
3 190 483 215
3 190 484 483
3 190 485 484
3 190 486 485
3 190 487 486
3 190 488 487
3 190 489 488
3 190 192 489
3 182 176 490
3 490 176 491
3 491 176 492
3 176 493 494
3 176 180 493
3 176 494 495
3 176 495 496
3 176 496 497
3 497 496 498
3 166 165 499
3 499 165 500
3 500 165 501
3 170 502 503
3 504 502 170
3 504 501 502
3 500 501 504
3 170 169 504
3 503 505 506
3 503 502 505
3 506 507 508
3 506 505 507
3 508 507 509
3 510 511 512
3 511 510 513
3 514 515 516
3 515 514 517
3 518 519 520
3 519 518 521
3 522 523 524
3 523 522 525
3 526 527 528
3 527 526 529
3 530 531 532
3 531 530 533
3 534 535 536
3 535 534 537
3 538 539 540
3 539 538 541
3 542 543 544
3 543 542 545
3 546 547 548
3 546 548 549
3 550 551 552
3 551 550 553
3 554 555 556
3 555 554 557
3 558 559 560
3 559 558 561
3 562 563 564
3 563 562 565
3 566 567 568
3 567 566 569
3 570 571 572
3 571 570 573
3 574 575 576
3 575 574 577
3 578 579 580
3 579 578 581
3 582 583 584
3 583 582 585
3 586 587 588
3 587 586 589
3 590 591 592
3 591 590 593
3 594 595 596
3 597 598 599
3 600 601 602
3 601 600 603
3 604 605 606
3 607 608 609
3 610 611 612
3 613 614 615
3 616 617 618
3 619 620 621
3 622 623 624
3 623 622 625
3 626 627 628
3 627 626 629
3 630 631 632
3 631 630 633
3 634 635 636
3 635 634 637
3 638 639 640
3 641 642 643
3 642 641 644
3 645 646 647
3 646 645 648
3 649 650 651
3 650 649 652
3 152 160 162
3 152 159 160
3 159 152 154
3 162 160 653
3 167 653 160
3 653 167 654
3 654 167 655
3 164 655 167
3 655 164 166
3 656 657 658
3 657 656 659
3 660 661 662
3 661 660 663
3 664 174 162
3 174 664 665
3 664 654 665
3 664 653 654
3 162 653 664
3 666 667 668
3 667 666 669
3 670 671 672
3 671 670 673
3 674 675 676
3 675 674 677
3 678 679 680
3 679 678 681
3 682 683 684
3 683 682 685
3 686 687 688
3 687 686 689
3 690 691 692
3 691 690 693
3 694 695 696
3 695 694 697
3 698 699 700
3 699 698 701
3 702 703 704
3 703 702 705
3 706 707 708
3 707 706 709
3 710 711 712
3 711 710 713
3 714 715 716
3 715 714 717
3 718 719 720
3 719 718 721
3 722 723 724
3 723 722 725
3 726 727 728
3 727 726 729
3 730 731 732
3 731 730 733
3 734 735 736
3 735 734 737
3 738 739 740
3 739 738 741
3 742 743 744
3 743 742 745
3 746 747 748
3 747 746 749
3 750 751 752
3 751 750 753
3 754 755 756
3 755 754 757
3 758 759 760
3 759 758 761
3 762 763 764
3 763 762 765
3 766 767 768
3 767 766 769
3 770 771 772
3 771 770 773
3 774 775 776
3 775 774 777
3 778 779 780
3 779 778 781
3 782 783 784
3 783 782 785
3 786 787 788
3 787 786 789
3 790 791 792
3 791 790 793
3 794 795 796
3 795 794 797
3 798 799 800
3 799 798 801
3 802 803 804
3 803 802 805
3 806 807 808
3 807 806 809
3 810 811 812
3 811 810 813
3 814 815 816
3 815 814 817
3 818 819 820
3 819 818 821
3 822 823 824
3 823 822 825
3 826 827 828
3 827 826 829
3 830 831 832
3 831 830 833
3 834 835 836
3 835 834 837
3 838 839 840
3 839 838 841
3 842 843 844
3 843 842 845
3 846 847 848
3 847 846 849
3 850 851 852
3 851 850 853
3 854 855 856
3 855 854 857
3 858 859 860
3 859 858 861
3 862 863 864
3 863 862 865
3 866 867 868
3 867 866 869
3 870 871 872
3 871 870 873
3 874 875 876
3 875 874 877
3 878 879 880
3 879 878 881
3 882 883 884
3 883 882 885
3 886 887 888
3 887 886 889
3 890 891 892
3 891 890 893
3 487 485 486
3 894 895 896
3 895 894 897
3 898 899 900
3 899 898 901
3 902 903 904
3 903 902 905
3 906 907 908
3 907 906 909
3 910 911 912
3 911 910 913
3 914 915 916
3 915 914 917
3 918 919 920
3 919 918 921
3 922 923 924
3 923 922 925
3 654 655 665
3 655 926 665
3 926 655 169
3 927 169 655
3 169 927 499
3 928 929 930
3 655 166 499
3 931 932 933
3 932 931 934
3 935 936 937
3 936 935 938
3 939 940 941
3 940 939 942
3 943 944 945
3 944 943 946
3 169 500 504
3 169 499 500
3 947 948 949
3 948 947 950
3 951 952 953
3 952 951 954
3 955 956 957
3 956 955 958
3 959 960 961
3 960 959 962
3 963 964 965
3 964 963 966
3 967 968 969
3 968 967 970
3 971 972 973
3 972 971 974
3 926 169 975
3 975 169 171
3 172 975 171
3 172 926 975
3 173 926 172
3 173 665 926
3 174 665 173
3 976 977 978
3 976 979 977
3 980 979 976
3 980 981 979
3 981 980 982
3 978 977 983
3 983 977 984
3 983 984 985
3 983 985 986
3 986 985 987
3 988 987 989
3 986 987 988
3 990 989 991
3 992 989 990
3 988 989 992
3 990 993 994
3 990 991 993
3 994 993 930
3 930 993 995
3 930 995 996
3 996 995 997
3 996 997 998
3 998 997 999
3 1000 1001 1002
3 1003 1002 1001
3 1004 1005 54
3 1006 4 1007
3 0 1007 4
3 47 46 1008
3 1009 1008 46
3 1010 5 1011
3 7 1011 5
3 1012 1013 91
3 1014 1015 1016
3 89 91 1013
3 111 1017 109
3 1018 109 1017
3 149 147 151
3 147 137 151
3 151 137 125
3 137 136 125
3 125 136 126
3 124 126 136
3 320 319 1019
3 1020 1019 319
3 1021 299 1022
3 302 1022 299
3 1023 1024 1025
3 1026 1025 1024
3 1027 57 1028
3 1029 305 1030
3 304 1030 305
3 409 404 1031
3 1032 1031 404
3 1033 344 1034
3 346 1034 344
3 324 326 1035
3 1036 1035 326
3 1037 1038 1039
3 1039 1038 1040
3 1041 1040 1038
3 1042 1043 1044
3 1042 1045 1046
3 1045 1042 1047
3 1044 1048 1049
3 1048 1044 1050
3 1050 1044 1051
3 1051 1044 1043
3 1052 1053 1054
3 1055 1053 1052
3 1055 1056 1053
3 1055 1057 1056
3 1058 1057 1055
3 1051 1057 1058
3 1051 1043 1057
3 1054 1053 1059
3 1054 1059 1060
3 1060 1059 1061
3 1060 1061 1062
3 1062 1061 1063
3 1062 1063 1064
3 1064 1063 1065
3 1064 1065 1066
3 1042 1046 1043
