ply
format ascii 1.0
comment Created by Blender 2.60 (sub 0) - www.blender.org, source file: ''
element vertex 240
property float x
property float y
property float z
element face 90
property list uchar uint vertex_indices
end_header
-0.793774 -0.614736 1.369979
-0.296976 -0.614736 1.470829
-0.296977 -0.233087 1.534768
-0.793774 -0.233087 1.433917
-0.793774 -0.614736 1.369979
-0.296977 -0.233087 1.534768
-0.296976 -0.614736 1.470829
0.299745 -0.614736 1.470829
0.299745 -0.233087 1.534768
-0.296977 -0.233087 1.534768
0.299745 -0.614736 1.470829
0.806479 -0.614736 1.381243
0.806479 -0.233087 1.445182
0.299745 -0.233087 1.534768
-0.793774 -0.233087 1.433917
-0.296977 -0.233087 1.534768
-0.296976 0.229723 1.534768
-0.793774 0.229723 1.433917
-0.296977 -0.233087 1.534768
0.299745 -0.233087 1.534768
0.299745 0.229723 1.534768
-0.296976 0.229723 1.534768
0.299745 -0.233087 1.534768
0.806479 -0.233087 1.445182
0.806479 0.229722 1.445182
0.299745 0.229723 1.534768
-0.793774 0.229723 1.433917
-0.296976 0.229723 1.534768
-0.296976 0.599294 1.494385
-0.793774 0.599294 1.393534
-0.296976 0.229723 1.534768
0.299745 0.229723 1.534768
0.299745 0.599294 1.494385
-0.296976 0.599294 1.494385
0.299745 0.229723 1.534768
0.806479 0.229722 1.445182
0.806479 0.599294 1.404798
0.806479 0.599294 1.404798
0.299745 0.599294 1.494385
0.299745 0.229723 1.534768
-1.274103 -1.084362 0.000000
-0.547698 -1.274362 0.000000
-0.547698 -1.161659 0.463738
-1.274103 -1.084362 0.000000
-0.547698 -1.161659 0.463738
-1.099232 -0.971659 0.700471
-0.547698 -1.274362 0.000000
0.547698 -1.274362 0.000000
0.547698 -1.161659 0.463738
-0.547698 -1.161659 0.463738
0.547698 -1.274362 0.000000
1.183195 -1.105592 0.000000
1.024505 -0.992888 0.695829
1.024505 -0.992888 0.695829
0.547698 -1.161659 0.463738
0.547698 -1.274362 0.000000
-1.099232 -0.971659 0.700471
-0.547698 -1.161659 0.463738
-0.547698 -1.006255 1.173766
-0.547698 -1.006255 1.173766
-0.869713 -0.816255 1.173766
-1.099232 -0.971659 0.700471
-0.547698 -1.161659 0.463738
0.547698 -1.161659 0.463738
0.547698 -1.006255 1.173766
-0.547698 -1.006255 1.173766
0.547698 -1.161659 0.463738
1.024505 -0.992888 0.695829
0.860651 -0.837485 1.173766
0.860651 -0.837485 1.173766
0.547698 -1.006255 1.173766
0.547698 -1.161659 0.463738
-0.869713 -0.816255 1.173766
-0.547698 -1.006255 1.173766
-0.296976 -0.614736 1.470829
-0.296976 -0.614736 1.470829
-0.793774 -0.614736 1.369979
-0.869713 -0.816255 1.173766
-0.547698 -1.006255 1.173766
0.547698 -1.006255 1.173766
0.299745 -0.614736 1.470829
-0.296976 -0.614736 1.470829
-0.547698 -1.006255 1.173766
0.547698 -1.006255 1.173766
0.860651 -0.837485 1.173766
0.806479 -0.614736 1.381243
0.806479 -0.614736 1.381243
0.299745 -0.614736 1.470829
0.547698 -1.006255 1.173766
1.183195 -1.105592 0.000000
1.643093 -0.424787 0.000000
1.484403 -0.424788 0.695829
1.484403 -0.424788 0.695829
1.024505 -0.992888 0.695829
1.183195 -1.105592 0.000000
1.643093 -0.424787 0.000000
1.643093 0.424787 0.000000
1.484404 0.424787 0.695829
1.484404 0.424787 0.695829
1.484403 -0.424788 0.695829
1.643093 -0.424787 0.000000
1.643093 0.424787 0.000000
1.194378 1.103389 0.000000
1.035688 0.971071 0.695829
1.035688 0.971071 0.695829
1.484404 0.424787 0.695829
1.643093 0.424787 0.000000
1.024505 -0.992888 0.695829
1.484403 -0.424788 0.695829
1.320550 -0.424788 1.173766
1.320550 -0.424788 1.173766
0.860651 -0.837485 1.173766
1.024505 -0.992888 0.695829
1.484403 -0.424788 0.695829
1.484404 0.424787 0.695829
1.320550 0.424787 1.173766
1.320550 0.424787 1.173766
1.320550 -0.424788 1.173766
1.484403 -0.424788 0.695829
1.484404 0.424787 0.695829
1.035688 0.971071 0.695829
0.871835 0.805153 1.173766
0.871835 0.805153 1.173766
1.320550 0.424787 1.173766
1.484404 0.424787 0.695829
0.860651 -0.837485 1.173766
1.320550 -0.424788 1.173766
0.806479 -0.233087 1.445182
0.806479 -0.233087 1.445182
0.806479 -0.614736 1.381243
0.860651 -0.837485 1.173766
1.320550 -0.424788 1.173766
1.320550 0.424787 1.173766
0.806479 0.229722 1.445182
0.806479 -0.233087 1.445182
1.320550 0.424787 1.173766
0.871835 0.805153 1.173766
0.806479 0.599294 1.404798
0.806479 0.599294 1.404798
0.806479 0.229722 1.445182
1.320550 0.424787 1.173766
1.194378 1.103389 0.000000
0.547698 1.274363 0.000000
0.547698 1.142044 0.463738
0.547698 1.142044 0.463738
1.035688 0.971071 0.695829
1.194378 1.103389 0.000000
0.547698 1.274363 0.000000
-0.547698 1.274363 0.000000
-0.547698 1.142044 0.463738
0.547698 1.142044 0.463738
-0.547698 1.274363 0.000000
-1.261037 1.095067 0.000000
-1.086167 0.962748 0.700471
-1.086167 0.962748 0.700471
-0.547698 1.142044 0.463738
-0.547698 1.274363 0.000000
1.035688 0.971071 0.695829
0.547698 1.142044 0.463738
0.547698 0.976126 1.173766
0.547698 0.976126 1.173766
0.871835 0.805153 1.173766
1.035688 0.971071 0.695829
0.547698 1.142044 0.463738
-0.547698 1.142044 0.463738
-0.547698 0.976126 1.173766
0.547698 0.976126 1.173766
-0.547698 1.142044 0.463738
-1.086167 0.962748 0.700471
-0.856647 0.796830 1.173766
-0.856647 0.796830 1.173766
-0.547698 0.976126 1.173766
-0.547698 1.142044 0.463738
0.871835 0.805153 1.173766
0.547698 0.976126 1.173766
0.299745 0.599294 1.494385
0.299745 0.599294 1.494385
0.806479 0.599294 1.404798
0.871835 0.805153 1.173766
0.547698 0.976126 1.173766
-0.547698 0.976126 1.173766
-0.296976 0.599294 1.494385
0.299745 0.599294 1.494385
0.547698 0.976126 1.173766
-0.547698 0.976126 1.173766
-0.856647 0.796830 1.173766
-0.793774 0.599294 1.393534
-0.793774 0.599294 1.393534
-0.296976 0.599294 1.494385
-0.547698 0.976126 1.173766
-1.261037 1.095067 0.000000
-1.643093 0.424788 0.000000
-1.468222 0.424787 0.700471
-1.468222 0.424787 0.700471
-1.086167 0.962748 0.700471
-1.261037 1.095067 0.000000
-1.643093 0.424788 0.000000
-1.643093 -0.424787 0.000000
-1.468222 -0.424788 0.700471
-1.468222 0.424787 0.700471
-1.643093 -0.424787 0.000000
-1.274103 -1.084362 0.000000
-1.099232 -0.971659 0.700471
-1.099232 -0.971659 0.700471
-1.468222 -0.424788 0.700471
-1.643093 -0.424787 0.000000
-1.086167 0.962748 0.700471
-1.468222 0.424787 0.700471
-1.238703 0.424787 1.173766
-1.238703 0.424787 1.173766
-0.856647 0.796830 1.173766
-1.086167 0.962748 0.700471
-1.468222 0.424787 0.700471
-1.468222 -0.424788 0.700471
-1.238703 -0.424788 1.173766
-1.238703 0.424787 1.173766
-1.468222 -0.424788 0.700471
-1.099232 -0.971659 0.700471
-0.869713 -0.816255 1.173766
-0.869713 -0.816255 1.173766
-1.238703 -0.424788 1.173766
-1.468222 -0.424788 0.700471
-0.856647 0.796830 1.173766
-1.238703 0.424787 1.173766
-0.793774 0.229723 1.433917
-0.793774 0.229723 1.433917
-0.793774 0.599294 1.393534
-0.856647 0.796830 1.173766
-1.238703 0.424787 1.173766
-1.238703 -0.424788 1.173766
-0.793774 -0.233087 1.433917
-0.793774 -0.233087 1.433917
-0.793774 0.229723 1.433917
-1.238703 0.424787 1.173766
-1.238703 -0.424788 1.173766
-0.869713 -0.816255 1.173766
-0.793774 -0.614736 1.369979
-0.793774 -0.614736 1.369979
-0.793774 -0.233087 1.433917
-1.238703 -0.424788 1.173766
3 0 1 2
3 3 4 5
3 6 7 8
3 8 9 6
3 10 11 12
3 12 13 10
3 14 15 16
3 16 17 14
3 18 19 20
3 20 21 18
3 22 23 24
3 24 25 22
3 26 27 28
3 28 29 26
3 30 31 32
3 32 33 30
3 34 35 36
3 37 38 39
3 40 41 42
3 43 44 45
3 46 47 48
3 48 49 46
3 50 51 52
3 53 54 55
3 56 57 58
3 59 60 61
3 62 63 64
3 64 65 62
3 66 67 68
3 69 70 71
3 72 73 74
3 75 76 77
3 78 79 80
3 80 81 82
3 83 84 85
3 86 87 88
3 89 90 91
3 92 93 94
3 95 96 97
3 98 99 100
3 101 102 103
3 104 105 106
3 107 108 109
3 110 111 112
3 113 114 115
3 116 117 118
3 119 120 121
3 122 123 124
3 125 126 127
3 128 129 130
3 131 132 133
3 133 134 131
3 135 136 137
3 138 139 140
3 141 142 143
3 144 145 146
3 147 148 149
3 149 150 147
3 151 152 153
3 154 155 156
3 157 158 159
3 160 161 162
3 163 164 165
3 165 166 163
3 167 168 169
3 170 171 172
3 173 174 175
3 176 177 178
3 179 180 181
3 181 182 183
3 184 185 186
3 187 188 189
3 190 191 192
3 193 194 195
3 196 197 198
3 198 199 196
3 200 201 202
3 203 204 205
3 206 207 208
3 209 210 211
3 212 213 214
3 214 215 212
3 216 217 218
3 219 220 221
3 222 223 224
3 225 226 227
3 228 229 230
3 231 232 233
3 234 235 236
3 237 238 239
